<svg width="21" height="21" viewBox="0 0 21 21" fill="none" xmlns="http://www.w3.org/2000/svg">
<path fill-rule="evenodd" clip-rule="evenodd" d="M12.6184 0.991211C14.7212 0.991211 16.6671 1.80723 18.1736 3.28235C19.6487 4.78885 20.4647 6.73475 20.4961 8.83757C20.4961 9.05727 20.3078 9.24558 20.0881 9.24558C19.8684 9.24558 19.6801 9.05727 19.6801 8.83757C19.6801 6.95444 18.9582 5.19686 17.6087 3.87867C16.2591 2.5291 14.5015 1.80723 12.6184 1.80723C12.3987 1.80723 12.2104 1.61892 12.2104 1.39922C12.2104 1.17952 12.3987 0.991211 12.6184 0.991211ZM14.6271 13.2628L18.2992 16.9349C18.77 17.4057 18.77 18.1903 18.2992 18.6297L16.8869 20.042C16.4475 20.45 15.8511 20.6697 15.0979 20.6697C14.3133 20.6697 13.3403 20.45 12.2418 19.9479C10.2332 19.0691 8.03617 17.4684 5.99612 15.4284C3.98745 13.3883 2.35541 11.1913 1.47662 9.18268C0.535054 7.07985 0.503668 5.41643 1.38246 4.53763L2.7948 3.15667C3.26559 2.68589 4.05022 2.68589 4.521 3.15667L8.1931 6.86016C8.4128 7.07985 8.53834 7.39371 8.53834 7.70756C8.53834 8.02142 8.4128 8.33527 8.1931 8.55497L7.28292 9.46515V9.49653C7.03184 9.87316 7.56539 11.1913 8.91496 12.5409C10.2645 13.8905 11.6141 14.3927 11.9594 14.173L12.9009 13.2628C13.3717 12.792 14.1563 12.792 14.6271 13.2628ZM17.0752 18.7866L17.7657 18.0961C17.9226 17.9392 17.9226 17.6567 17.7657 17.5312L14.0622 13.8277C13.9052 13.6708 13.6228 13.6708 13.4659 13.8277L12.0849 14.989C11.9907 15.0204 11.8652 15.0204 11.7397 15.0204C10.7667 15.0204 9.38575 14.1102 8.38141 13.1059C7.22015 11.976 6.2472 10.4067 6.49829 9.40238L7.65955 8.02142C7.7537 7.92726 7.78509 7.8331 7.78509 7.70756C7.78509 7.58202 7.7537 7.48786 7.65955 7.39371L3.92468 3.72161C3.76775 3.56469 3.48528 3.56469 3.32836 3.72161L2.63788 4.41209L6.30997 8.08419C6.21582 8.17834 6.12952 8.27249 6.04321 8.36664L6.0432 8.36666C5.95689 8.46081 5.87058 8.55497 5.77642 8.64913L2.07294 4.97703L1.9474 5.10257C1.31969 5.73028 1.41385 7.11124 2.19848 8.86882C3.04589 10.7833 4.61516 12.9175 6.56106 14.8948C10.8922 19.1946 15.0979 20.7639 16.3533 19.5085L16.4789 19.3516L12.8068 15.6795L13.3717 15.1145L17.0752 18.7866ZM12.6184 4.44359C15.0351 4.44359 17.0123 6.42087 17.0123 8.83755C17.0123 9.05725 17.2006 9.24556 17.4203 9.24556C17.64 9.24556 17.8284 9.05725 17.8284 8.83755C17.8284 5.98148 15.5058 3.62757 12.6184 3.62757C12.3987 3.62757 12.2104 3.81588 12.2104 4.03558C12.2104 4.25528 12.3987 4.44359 12.6184 4.44359ZM14.3762 8.83777C14.3762 7.86482 13.5916 7.08018 12.6186 7.08018C12.3989 7.08018 12.242 6.92325 12.242 6.70356C12.242 6.48386 12.4303 6.29555 12.65 6.29555C14.0623 6.29555 15.1922 7.42542 15.1922 8.83777C15.1922 9.05746 15.0039 9.24578 14.7842 9.24578C14.5645 9.24578 14.3762 9.05746 14.3762 8.83777Z" fill="black"/>
</svg>
