<svg width="21" height="21" viewBox="0 0 21 21" fill="none" xmlns="http://www.w3.org/2000/svg">
<path fill-rule="evenodd" clip-rule="evenodd" d="M0.327683 10.7805C0.311659 5.4925 4.47988 1.09363 9.76186 0.842133C15.567 0.565667 20.3414 5.28199 20.161 11.0669C19.9928 16.4635 15.4912 20.7502 10.0925 20.6678C8.56272 20.6444 7.11726 20.2742 5.83035 19.6331L0.821303 20.8199C0.546607 20.8849 0.297214 20.6428 0.354181 20.3663L1.40729 15.2544C0.721383 13.9112 0.332562 12.391 0.327683 10.7805ZM10.2468 18.5165C12.3214 18.5165 14.2718 17.7086 15.7387 16.2417C17.1926 14.7879 18.0136 12.8057 18.0136 10.7496C18.0136 8.67506 17.2057 6.72468 15.7388 5.25774C14.2718 3.79084 12.3215 2.98297 10.247 2.98292C8.19093 2.98292 6.2087 3.80395 4.75486 5.25779C3.28792 6.72478 2.48005 8.67515 2.48005 10.7497C2.48005 11.9923 2.76407 13.1785 3.32423 14.2755L3.66789 14.9485L3.02145 18.0866L6.09252 17.359L6.79009 17.7065C7.86912 18.244 9.03209 18.5165 10.2468 18.5165ZM13.1392 12.3492L15.0606 12.9009C15.5208 13.033 15.7233 13.57 15.4669 13.9743C15.0907 14.5673 14.4946 15.2916 13.7487 15.4722C12.4337 15.7908 10.4139 15.4798 7.8918 13.1258C5.70863 11.0881 5.1313 9.39118 5.26767 8.04501C5.34501 7.28148 5.98127 6.59227 6.5175 6.13874C6.88308 5.82955 7.44266 5.95703 7.63628 6.39492L8.44463 8.22318C8.55091 8.46354 8.517 8.74278 8.35629 8.9507L7.94608 9.48139C7.77313 9.70519 7.74983 10.0118 7.8907 10.2571C8.37896 11.1074 10.2909 12.8073 11.1998 13.1752C11.462 13.2813 11.7626 13.2164 11.9607 13.0146L12.4306 12.5359C12.6146 12.3483 12.8866 12.2767 13.1392 12.3492Z" fill="#7AD06D"/>
</svg>
