<svg width="46" height="49" fill="none" xmlns="http://www.w3.org/2000/svg"><path d="M25.846 3.004h8.642V41.5l-3.538 3.537H3.004v-42h7.883a.38.38 0 000-.759H2.633a.372.372 0 00-.372.372v42.759a.372.372 0 00.372.371h28.511a.372.372 0 00.258-.113L35.166 42a.371.371 0 00.097-.226V2.633a.372.372 0 00-.371-.372h-9.046a.38.38 0 100 .76v-.017zm-10.452-.758h6.01a.372.372 0 000-.743h-6.01a.372.372 0 000 .743z" fill="#467637"/><path d="M30.401 44.294a.372.372 0 00.372-.372V41.29h2.633a.38.38 0 000-.76H30.4a.371.371 0 00-.371.372v3.005a.373.373 0 00.371.388z" fill="#467637"/><path d="M37.153 0H.372A.372.372 0 000 .372v47.297a.356.356 0 00.145.275.372.372 0 00.227.097h36.781a.372.372 0 00.227-.097.356.356 0 00.145-.275V.372A.371.371 0 0037.153 0zM11.308 1.34l1.502 2.246a.37.37 0 00.307.162h10.516a.372.372 0 00.258-.113l2.278-2.246a.372.372 0 00-.323-.63h10.887v46.539H.743V.759h25.103a.372.372 0 00-.259.113l-2.1 2.133H13.343L11.953.92a.386.386 0 10-.645.42zm34.487 11.066a3.118 3.118 0 00-1.615-3.231.355.355 0 00-.307-.21h-1.502a.355.355 0 00-.307.21 3.117 3.117 0 00-1.615 3.23l.759 18.771v5.977a.356.356 0 000 .194c.066.06.152.095.242.097H42v.307l-.727 2.197a.37.37 0 000 .323l1.502 2.261c.068.02.141.02.21 0 .068.02.141.02.21 0l1.777-2.148a.37.37 0 000-.323l-.727-2.197v-.307h.371a.468.468 0 00.372-.372v-6.041l.807-18.738zM43.922 36.78h-1.923v-3.747h2.246v3.747h-.323zm.371-5.25v.776H42v-.743l2.294-.032zm-1.13-21.84c1.243 0 1.873.89 1.873 2.618l-.727 18.399H42l-.71-18.335c0-1.728.63-2.681 1.873-2.681zm.452 28.334l.694 2.084-1.082 1.615-1.082-1.615.694-2.084a.42.42 0 000-.113v-.371h.776v.371a.376.376 0 000 .113z" fill="#467637"/><path d="M43.163 22.518a.372.372 0 00.372-.371V10.839a.372.372 0 00-.743 0v11.308a.371.371 0 00.371.371zm-37.25-11.63c0 .21.258.371.597.371h23.682c.323 0 .597-.178.597-.371 0-.194-.258-.372-.598-.372H6.462c-.29 0-.548.162-.548.372zm24.277 1.874H6.462c-.323 0-.597.161-.597.371s.258.372.597.372h23.73c.323 0 .598-.162.598-.372s-.275-.371-.598-.371zM6.461 15.766h11.84c.324 0 .599-.162.599-.371 0-.21-.259-.372-.598-.372H6.462c-.324 0-.598.162-.598.372s.306.371.597.371zm0 6.009h23.73c.323 0 .598-.161.598-.371s-.259-.372-.598-.372H6.46c-.323 0-.597.162-.597.372s.306.371.597.371zm0 2.246h23.73c.323 0 .598-.161.598-.371s-.259-.372-.598-.372H6.46c-.323 0-.597.162-.597.372s.306.371.597.371zm0 1.502c-.323 0-.597.162-.597.372s.258.371.597.371h11.84c.324 0 .599-.161.599-.371s-.259-.372-.598-.372H6.462zm0 6.784h23.73c.323 0 .598-.161.598-.371s-.259-.372-.598-.372H6.46c-.323 0-.597.162-.597.372s.306.371.597.371zm24.312 1.843c0-.21-.259-.372-.598-.372H6.46c-.323 0-.597.161-.597.371s.258.372.597.372h23.73c.323.016.582-.162.582-.372zM6.461 36.023c-.323 0-.597.161-.597.371s.258.372.597.372h11.84c.324 0 .599-.161.599-.371s-.259-.372-.598-.372H6.462z" fill="#467637"/></svg>