<svg width="46" height="48" fill="none" xmlns="http://www.w3.org/2000/svg"><path d="M6.138 13.408a.404.404 0 00.323-.485V.824h21.34v12.1a.412.412 0 00.823 0V.403a.403.403 0 00-.42-.404H6.138a.404.404 0 00-.404.404v12.52a.404.404 0 00.404.484zm-2.455.824a.412.412 0 100 .824h34.342a.412.412 0 100-.824H3.683zm40.885 12.261h-8.481a2.374 2.374 0 00-1.616.775l-3.036 3.65a1.437 1.437 0 000 1.778l3.037 3.65c.416.46.996.738 1.615.776h8.48a1.228 1.228 0 001.228-1.228V27.72a1.228 1.228 0 00-1.227-1.227zm.403 9.401a.404.404 0 01-.403.404h-8.481a1.615 1.615 0 01-1.034-.485l-3.037-3.65a.614.614 0 010-.727l3.037-3.651a1.615 1.615 0 011.034-.485h8.48a.404.404 0 01.404.404v8.19z" fill="#467637"/><path d="M38.026 28.948a2.86 2.86 0 100 5.718 2.86 2.86 0 000-5.718zm0 4.846a2.052 2.052 0 112.051-2.051 2.052 2.052 0 01-2.051 2.18v-.129z" fill="#467637"/><path d="M38.025 30.58a1.228 1.228 0 100 2.455 1.228 1.228 0 000-2.456zm0 1.614a.404.404 0 11.404-.403.402.402 0 01-.404.42v-.017zM29.432 4.345l8.077 2.1-1.76 6.704a.403.403 0 00.29.5h.113a.403.403 0 00.388-.306l1.873-7.108a.403.403 0 00-.29-.5l-8.481-2.182a.42.42 0 00-.5.291.403.403 0 00.29.501zm8.19 7.835a.404.404 0 00.404.404h.743a3.683 3.683 0 013.683 3.683v1.292a.412.412 0 00.824 0v-1.292a4.507 4.507 0 00-4.507-4.49h-.824a.404.404 0 00-.323.403zM4.49 19.143h-.807a.412.412 0 000 .823h.824a.412.412 0 000-.823H4.49zm15.977 0H18.85a.412.412 0 000 .823h1.616a.412.412 0 100-.823zm-3.199 0h-1.615a.412.412 0 000 .823h1.615a.412.412 0 000-.823zm-3.198 0h-1.615a.412.412 0 000 .823h1.615a.412.412 0 000-.823zm-3.183 0H9.272a.412.412 0 000 .823h1.615a.412.412 0 100-.823zm-3.198 0H6.074a.412.412 0 000 .823h1.615a.412.412 0 000-.823zm27.139 0a.412.412 0 000 .823h1.615a.412.412 0 000-.823h-1.615zm-3.199 0a.412.412 0 100 .823h1.615a.412.412 0 000-.823H31.63zm-1.583 0h-1.615a.412.412 0 000 .823h1.615a.412.412 0 000-.823zm-3.198 0h-1.615a.412.412 0 000 .823h1.615a.412.412 0 100-.823zm-3.199 0h-1.616a.412.412 0 100 .823h1.616a.412.412 0 000-.823zm14.377 0a.412.412 0 000 .823h.743a.412.412 0 100-.823h-.743zM4.49 44.487h-.807a.412.412 0 000 .824h.824a.412.412 0 000-.824H4.49zm9.58 0h-1.615a.412.412 0 000 .824h1.615a.412.412 0 000-.824zm3.198 0h-1.615a.412.412 0 000 .824h1.615a.412.412 0 000-.824zm-9.579 0H6.074a.412.412 0 000 .824h1.615a.412.412 0 000-.824zm3.198 0H9.272a.412.412 0 000 .824h1.615a.412.412 0 100-.824zm9.58 0H18.85a.412.412 0 000 .824h1.616a.412.412 0 100-.824zm3.182 0h-1.616a.412.412 0 100 .824h1.616a.412.412 0 000-.824zm9.579.744a.412.412 0 100-.824h-1.615a.412.412 0 100 .824h1.615zm3.198 0a.412.412 0 100-.824h-1.615a.412.412 0 100 .824h1.615zm-9.578-.744h-1.615a.412.412 0 000 .824h1.615a.412.412 0 100-.824zm3.198 0h-1.615a.412.412 0 000 .824h1.615a.412.412 0 000-.824zm8.723.744a.412.412 0 100-.824h-.824a.412.412 0 100 .824h.824z" fill="#467637"/><path d="M42.92 37.945a.404.404 0 00-.404.404v4.846a3.683 3.683 0 01-3.747 3.732H2.859A2.051 2.051 0 01.824 44.89V16.64a2.843 2.843 0 002.051.872H38.77a3.683 3.683 0 013.683 3.683v4.087a.412.412 0 10.824 0v-4.103a4.507 4.507 0 00-4.507-4.49H2.859a2.052 2.052 0 01-2.035-2.052A2.052 2.052 0 012.859 12.6h1.616a.412.412 0 000-.824H2.859A2.86 2.86 0 000 14.636V44.89a2.86 2.86 0 002.86 2.86h35.909a4.507 4.507 0 004.49-4.491v-4.846a.403.403 0 00-.339-.469z" fill="#467637"/></svg>