<svg width="123" height="160" fill="none" xmlns="http://www.w3.org/2000/svg"><g clip-path="url(#clip0)"><path fill-rule="evenodd" clip-rule="evenodd" d="M28.568 133.475c0 5.8 1.102 8.188 3.306 8.359 2.204.256 4.154-2.474 4.238-6.397.17-6.141-6.103-7.591-7.544-1.962zm88.329-27.889c.17-3.496.424-12.878.339-15.522-.084-2.644-1.102-3.156-2.712-3.156-1.95-.085-3.137 1.365-3.137 4.094 0 2.815 1.102 5.288 4.917 5.459-1.78 5.117-1.865 8.358-4.154 10.746-1.78 1.791-3.899 1.876-5.594 1.279-2.628 1.45-6.867 1.791-8.138-2.388-.255-.768-.34-1.791-.424-2.985-.933 1.706-2.543 2.985-5.256 2.985-2.458 0-7.12-1.962-7.12-10.832 0-8.187 4.577-10.831 7.968-11.172 3.475-.427 6.103 2.303 5.595 4.947-1.272-1.706-7.206-2.56-7.46 6.225-.085 2.644.593 6.909 3.306 6.738 1.441-.085 2.373-1.961 2.713-4.264 0-2.985.084-6.056-.085-7.932 1.95.17 4.832.256 6.527 0-.339 2.985-1.441 12.111 1.102 16.034 2.882-1.45 4.408-4.52 5.51-7.59-2.628-1.11-4.408-3.156-4.408-7.08 0-5.799 4.069-7.675 7.884-7.675 3.814 0 5.933.597 7.968 1.023-.424 3.241-.085 12.793.848 20.981-2.544-.256-3.391-.171-6.189.085zm-4.408 41.536c-.254-.768-.339-1.792-.423-2.986-.933 1.706-2.544 2.986-5.256 2.986-2.458 0-7.12-1.962-7.12-10.832 0-8.188 4.577-10.832 7.968-11.173 3.475-.426 6.103 2.303 5.594 4.947-1.271-1.706-7.205-2.559-7.459 6.226-.085 2.644.593 6.908 3.306 6.738 1.441 0 2.373-1.962 2.712-4.265.085-2.985.085-6.055-.085-7.931 1.95.17 4.832.17 6.528 0-.424 3.667-1.95 16.801 3.56 17.825-2.204 2.047-7.884 3.411-9.325-1.535zm-16.19 5.202c-.848 3.412-3.73 6.994-8.901 7.164-3.984.171-7.036-3.667-6.358-7.846 3.56 5.373 9.07 3.155 10.003-2.218.254-1.194.339-3.155.424-5.288-.678 1.536-1.95 2.815-4.07 2.986-3.983.426-8.137-3.071-8.307-10.406-.17-7.761 4.493-11.769 8.901-11.769 3.306 0 5.002 1.705 5.171 4.349-.932-1.023-2.12-2.047-3.984-1.791-3.39.427-3.984 6.056-3.984 8.956 0 2.473 0 7.078 3.051 6.993 2.374-.085 3.391-3.838 3.137-7.932-.085-1.705-.254-3.241-.34-4.179 1.611.171 5.002.086 6.528-.17-.424 3.241.424 14.413-1.271 21.151zm-17.887-1.62c-.424 4.605-4.493 9.125-9.579 9.296-3.984.085-9.579-3.326-8.053-11.514 1.187 4.606 4.154 6.482 7.036 6.226 2.628-.17 5.171-2.473 5.51-5.885.509-4.691-2.543-8.699-7.29-9.296 3.475-.768 6.019-3.497 6.527-6.653.424-2.558-.678-4.264-2.713-4.605-3.136-.512-4.831 2.985-3.814 6.055-3.136-.085-5.002-3.326-3.645-5.97 1.78-3.411 5.17-3.838 8.223-3.411 3.475.426 7.29 3.07 7.205 7.505-.085 3.838-3.137 6.311-5.764 6.994 3.814 1.364 6.781 5.714 6.357 11.258zm-34.84-14.585c0 11.003 12.207 15.437 17.039 6.312-4.747 2.217-11.105.426-11.19-6.653-.085-4.094.509-8.699 3.306-8.784 2.543-.086 2.882 3.241 2.543 5.458-.254 2.303-1.95 5.373-4.323 6.397 2.289 1.194 8.477.085 8.9-5.971.34-6.226-2.966-8.272-7.035-8.272-3.984 0-9.24 2.643-9.24 11.513zm-8.477-30.533c.933-6.823 4.154-10.149 7.12-11.343-1.695-1.109-5.848-4.947-6.357-10.49 2.035.34 3.815.34 6.443.17-.085 4.094 1.356 8.785 4.747 10.15-2.374 1.535-4.663 4.35-4.663 11.513-2.288-.682-5.425-.426-7.29 0zm7.12 30.875c-.762 7.761-5.848 11.002-10.51 10.661-6.697-.512-10.936-5.374-9.834-19.617.678-8.955 3.9-17.143 11.698-17.057 2.883 0 6.867 1.961 6.697 7.079-.085 4.179-3.56 8.87-10.087 5.714 3.814-.938 4.831-3.07 4.916-4.776.17-1.791-.17-3.838-2.034-3.838-3.306 0-4.323 6.482-4.832 12.622 6.103-5.202 15.004-.511 13.987 9.212zM20.6 138.166c.339-4.179-1.95-8.273-7.036-8.87 2.458-.682 5.086-2.985 5.086-6.652 0-4.264-3.9-6.567-7.29-6.994-2.882-.341-6.104.256-7.63 3.071-1.017 2.217.085 5.629 3.222 5.714-1.017-2.985.424-5.458 3.56-5.203 1.695.171 3.137 1.365 2.713 3.838-.424 2.985-3.137 5.8-5.765 6.653 5.34.256 7.29 4.008 6.782 7.505-.34 2.9-2.713 5.203-5.17 5.117-3.137-.085-5.257-1.961-7.122-4.861-1.525 4.861 1.696 9.126 7.036 9.552 6.188.768 11.02-2.729 11.614-8.87zM.51 75.821c1.95.17 4.916.256 6.696 0-.339 1.535-.424 7.079-.339 13.134.933 0 1.865 0 2.882.17.848-9.466 8.477-13.133 13.478-10.66-4.238 1.194-6.357 6.14-6.442 12.196-.17 9.552 1.95 12.964 5.34 12.878 3.815-.17 5.341-7.079 5.256-13.049 0-4.179-.763-13.646-9.494-15.18 10.257-3.583 15.852 4.178 15.852 15.266 0 8.699-4.578 16.801-11.529 16.801-6.357 0-11.698-4.52-12.546-13.816-.847-.256-1.864-.341-2.797-.427.17 6.056.424 11.599.678 12.879-1.695-.597-5.849-.341-7.629.085 1.017-3.753 1.187-26.269.593-30.277zm23.057-33.262c.932-.853 2.034-1.62 3.22-2.047 1.696-.597 3.476-.853 5.257-1.109 1.102-.085 2.204 0 3.22.256 1.272.341 1.442 1.535.34 2.303-.678.511-1.526.767-2.289 1.023-2.458.768-5.001 1.45-7.544 2.132l-1.357.341c-.339-.255-1.187-.511-1.356-1.023-.085-.597.085-1.535.509-1.876zm8.222-29.936c.17-.427.763-.683 1.272-1.11 1.695.683 3.306 1.195 4.662 2.048 1.526.853 2.882 1.961 4.239 3.07.762.597 1.017 1.365.339 2.218-.679.852-1.357.511-2.204.085-2.12-1.109-4.239-2.132-6.358-3.326-.678-.341-1.356-.939-1.865-1.536-.254-.255-.254-.938-.085-1.45zM40.944 0c-1.695 0-2.373.853-2.034 2.217.085.171.085.512.17.683 1.864 2.9 3.73 5.885 5.679 8.7.254.34 1.356.51 1.865.255.763-.256 1.017-1.109.763-1.876C46.2 6.482 44.589 3.156 41.792.512c-.17-.256-.678-.427-.848-.512zm-2.797 50.32c-1.865 2.047-3.815 4.094-6.443 5.117-1.102.427-2.034-.341-2.034-1.79.17-.257.34-.854.678-1.11 1.95-1.364 3.984-2.729 6.104-4.008.339-.17 1.186.085 1.525.426.255.256.34 1.194.17 1.365zM65.019 71.3c-.594-2.387-1.187-4.775-1.61-7.163-.086-.427.508-1.11.932-1.365.339-.17 1.186.085 1.356.341 1.187 2.473 2.458 5.032 2.458 7.847 0 1.194-1.017 1.876-2.373 1.279-.17-.17-.678-.512-.763-.938zm-11.868.512c.254-1.45.678-2.9 1.187-4.264.593-1.706 1.271-3.412 2.119-5.032.17-.426.932-.938 1.356-.853.509.085.848.768 1.102 1.024-.423 3.582-.847 6.737-2.373 9.637-.17.341-.424.853-.763.938-.678.17-1.441.427-2.035.17-.423-.085-.678-1.108-.593-1.62zm.34 22.005c3.56-.768 4.492-6.653 4.322-10.064 2.035.17 4.832.34 6.782 0-.254 4.52-4.154 8.784-6.188 10.234 2.882 1.194 6.103 4.52 7.035 11.343-1.95-.255-4.662-.511-7.29 0 0-7.078-2.204-9.978-4.662-11.513zm-6.359-10.064c.424 2.302.679 15.096 0 21.833 1.696-.256 4.324-.426 6.528-.17-.763-4.35-.933-14.584-.509-21.92-1.695.513-4.069.598-6.019.257zm25.94 11.428c0 3.582.084 7.847.763 10.235-2.543-.341-4.493-.341-6.358 0 .424-5.288.678-18.166-.085-21.322 1.526.341 3.222.341 5.934 0-.508 3.07-.254 6.908-.254 8.358 1.526-.085 3.221-.17 4.916-.085 0-3.582-.17-6.823-.339-8.359 1.61.171 4.154.256 5.595 0-.678 2.986 0 18.934.509 21.408-1.441-.512-4.917-.341-6.443.085.34-1.535.594-6.482.678-10.576-1.61.086-3.39.086-4.916.256zm-20.345-72.92c-.593 1.023-1.187 2.046-2.373 2.302-1.526.341-3.137.512-4.747.853-2.544.597-5.087 1.108-7.46 1.876-1.695.512-1.865 1.706-.763 3.07 1.272 1.45 2.543 2.9 3.9 4.18 1.78 1.705 3.644 3.155 5.425 4.861.423.341.762 1.109.678 1.535-.17 1.706-.594 3.326-.848 5.032a674.142 674.142 0 01-1.187 7.25c-.084 3.155.678 3.838 2.798 2.985 3.73-1.62 7.46-3.326 11.104-5.118 1.018-.511 1.78-.597 2.713-.085.678.341 1.272.682 1.95 1.024l11.19 5.373a1.723 1.723 0 002.457-1.791A329.9 329.9 0 0075.53 42.9c-.17-.853-.085-1.365.424-2.047 1.61-1.962 3.221-3.923 4.747-5.97a85.249 85.249 0 003.815-5.8c.678-1.109.423-1.961-.509-2.217-3.73-1.024-7.375-2.218-11.19-2.9-1.864-.341-3.22-.768-4.068-2.559a1.785 1.785 0 00-.34-.512c-2.288-3.155-4.492-6.31-6.866-9.381-.932-1.28-1.95-1.109-2.797.256a466.227 466.227 0 00-6.019 10.49zm21.108-9.638c.932-2.559 1.695-5.203 2.712-7.762.34-.852 1.272-1.62 2.035-2.217.254-.256.932-.256 1.271-.085.424.255.678.853 1.018 1.279-.51 1.109-.933 2.132-1.357 3.07-1.017 2.303-1.95 4.606-2.967 6.823-.339.768-.847 1.62-1.78 1.194-1.017-.426-1.271-1.194-.932-2.302zm8.053 3.496a10.45 10.45 0 011.95-2.388c1.017-1.023 2.119-1.961 3.305-2.729.51-.341 1.442-.426 1.95-.085.763.426.678 1.28.085 1.876-1.526 1.706-3.137 3.326-4.662 4.947-.255.256-.763.341-1.102.512-1.357 0-2.12-1.11-1.526-2.133zM93.84 56.034c-.593.682-1.271 1.024-2.119.427-1.356-.853-2.713-1.62-4.069-2.56-.509-.34-1.017-.852-1.272-1.449-.254-.426-.254-1.194-.084-1.62.17-.427.847-.683 1.271-.939.594.256 1.102.341 1.526.683 1.526 1.108 3.052 2.217 4.493 3.411.678.512.932 1.28.254 2.047zm6.358-10.917c-.424.938-1.272 1.024-2.204.683-3.137-1.11-6.358-2.133-9.494-3.156-.678-.256-1.441-.682-1.102-1.535.254-.597 1.017-1.024 1.271-1.28 3.984.597 7.375 1.45 10.512 3.07.932.512 1.441 1.195 1.017 2.218z" fill="#fff"/></g><defs><clipPath id="clip0"><path fill="#fff" d="M0 0h123v160H0z"/></clipPath></defs></svg>