<svg width="155" height="112" fill="none" xmlns="http://www.w3.org/2000/svg"><path fill-rule="evenodd" clip-rule="evenodd" d="M154.004 0h-154v98h64.46l12.54 14 12.54-14h64.46V0z" fill="#467637"/><path fill-rule="evenodd" clip-rule="evenodd" d="M154.004 0h-154v98h64.46l12.54 14 12.54-14h64.46V0z" fill="url(#paint0_linear)"/><path d="M36.44 40.5V26.2h-4.004l-.39 3.432c-.277 2.375-.624 4.325-1.04 5.85-.416 1.508-.954 2.66-1.612 3.458-.641.78-1.352 1.283-2.132 1.508-.78.225-1.733.243-2.86.052l.078-4.16c.346.07.65.07.91 0s.546-.286.858-.65c.312-.381.58-.927.806-1.638.243-.728.468-1.777.676-3.146.225-1.37.407-3.025.546-4.966l.26-3.64H40.6v18.2h-4.16zm12.49 0h-3.64V22.3h4.16v11.31l8.06-11.31h3.64v18.2h-4.16V29.19L48.93 40.5zm14.821-14.3v-3.9h15.08v3.9h-5.46v14.3h-4.16V26.2h-5.46zm17.67 14.3V22.3h10.79v3.9h-6.63v3.198h5.85v3.9h-5.85V36.6h6.89v3.9h-11.05zm19.115 0h-4.16V22.3c.312 0 1.188-.009 2.626-.026 1.456-.017 2.435-.026 2.938-.026 2.583 0 4.455.572 5.616 1.716 1.161 1.127 1.742 2.565 1.742 4.316 0 1.699-.615 3.146-1.846 4.342-1.231 1.179-2.86 1.768-4.888 1.768-.919 0-1.595-.026-2.028-.078V40.5zm1.82-14.352c-.069 0-.676.017-1.82.052v4.16c.659.087 1.291.13 1.898.13.659 0 1.231-.173 1.716-.52.485-.347.728-.919.728-1.716 0-1.404-.841-2.106-2.522-2.106zM116.322 40.5v-3.12c.156-.139.581-.546 1.274-1.222a52.462 52.462 0 001.43-1.43c.243-.26.659-.693 1.248-1.3.589-.624 1.005-1.118 1.248-1.482.243-.364.529-.806.858-1.326.347-.537.581-1.031.702-1.482a4.56 4.56 0 00.208-1.352c0-1.196-.555-1.794-1.664-1.794-.52 0-.927.173-1.222.52-.295.33-.555.806-.78 1.43l-3.25-1.482c.295-1.335.927-2.392 1.898-3.172.988-.797 2.262-1.196 3.822-1.196 1.681 0 2.99.477 3.926 1.43.953.953 1.43 2.115 1.43 3.484 0 3.45-2.028 6.734-6.084 9.854h6.708v3.64h-11.752zm-61.61 29.568l.883 1.664c-.606.624-1.43 1.118-2.47 1.482a9.844 9.844 0 01-3.276.546c-2.738 0-4.966-.85-6.682-2.548-1.698-1.716-2.548-3.987-2.548-6.812 0-2.687.815-4.914 2.444-6.682 1.647-1.785 3.857-2.678 6.63-2.678 2.323 0 4.169.59 5.538 1.768l-1.014 1.664c-1.213-.901-2.712-1.352-4.498-1.352-1.976 0-3.596.676-4.862 2.028-1.265 1.352-1.898 3.103-1.898 5.252 0 2.167.65 3.926 1.95 5.278 1.318 1.335 3.034 2.002 5.148 2.002 1.786 0 3.337-.537 4.654-1.612zm1.679 6.812v-5.46h1.95c.555-.693 1.144-2.106 1.768-4.238.641-2.15 1.049-4.897 1.222-8.242l.182-3.64h10.712v16.12h2.47v5.46h-2.08V73.5H58.471v3.38h-2.08zm7.02-16.25c-.19 2.773-.563 5.13-1.118 7.072-.555 1.924-1.057 3.163-1.508 3.718h9.23V57.38h-6.37l-.234 3.25zM75.866 73.5l7.826-18.304h1.898L93.416 73.5H91.05l-2.34-5.512h-8.294L78.102 73.5h-2.236zm8.71-15.366L81.3 65.908h6.552l-3.276-7.774zM108.758 73.5v-8.242h-10.01V73.5h-2.21V55.3h2.21v7.878h10.01V55.3h2.21v18.2h-2.21z" fill="#F7F7EC"/><defs><linearGradient id="paint0_linear" x1="77.004" y1="0" x2="77.004" y2="112" gradientUnits="userSpaceOnUse"><stop stop-color="#467637"/><stop offset="1" stop-color="#284A2E"/></linearGradient></defs></svg>