<svg width="154" height="112" fill="none" xmlns="http://www.w3.org/2000/svg"><path fill-rule="evenodd" clip-rule="evenodd" d="M154 0H0v98h64.46L77 112l12.54-14H154V0z" fill="#000" fill-opacity=".6"/><path d="M36.39 40.5V26.2h-4.004l-.39 3.432c-.277 2.375-.624 4.325-1.04 5.85-.416 1.508-.953 2.66-1.612 3.458-.641.78-1.352 1.283-2.132 1.508-.78.225-1.733.243-2.86.052l.078-4.16c.347.07.65.07.91 0s.546-.286.858-.65c.312-.381.58-.927.806-1.638.243-.728.468-1.777.676-3.146.225-1.37.407-3.025.546-4.966l.26-3.64H40.55v18.2h-4.16zm12.49 0h-3.64V22.3h4.16v11.31l8.06-11.31h3.64v18.2h-4.16V29.19L48.88 40.5zm14.821-14.3v-3.9h15.08v3.9h-5.46v14.3h-4.16V26.2h-5.46zm17.67 14.3V22.3h10.79v3.9h-6.63v3.198h5.85v3.9h-5.85V36.6h6.89v3.9h-11.05zm19.115 0h-4.16V22.3c.312 0 1.188-.009 2.626-.026 1.456-.017 2.436-.026 2.938-.026 2.583 0 4.455.572 5.616 1.716 1.162 1.127 1.742 2.565 1.742 4.316 0 1.699-.615 3.146-1.846 4.342-1.23 1.179-2.86 1.768-4.888 1.768-.918 0-1.594-.026-2.028-.078V40.5zm1.82-14.352c-.069 0-.676.017-1.82.052v4.16c.659.087 1.292.13 1.898.13.659 0 1.231-.173 1.716-.52.486-.347.728-.919.728-1.716 0-1.404-.84-2.106-2.522-2.106zm14.226 7.904c0-1.595.278-3.103.832-4.524.572-1.439 1.309-2.652 2.21-3.64a15.345 15.345 0 012.912-2.47c1.04-.676 2.072-1.153 3.094-1.43l1.586 2.938a11.08 11.08 0 00-3.64 2.054c-1.057.901-1.846 1.959-2.366 3.172.711-.659 1.777-.988 3.198-.988 1.352 0 2.522.52 3.51 1.56 1.006 1.04 1.508 2.366 1.508 3.978 0 1.907-.615 3.406-1.846 4.498-1.23 1.075-2.66 1.612-4.29 1.612-1.993 0-3.614-.65-4.862-1.95-1.23-1.3-1.846-2.903-1.846-4.81zm4.16.026c0 .867.226 1.56.676 2.08.451.503 1.084.754 1.898.754.642 0 1.127-.19 1.456-.572.33-.381.494-.832.494-1.352 0-.641-.19-1.161-.572-1.56-.381-.416-.927-.624-1.638-.624-.953 0-1.724.425-2.314 1.274zM40.414 73.5v-1.69c2.462-2.427 4.195-4.264 5.2-5.512 1.959-2.444 2.938-4.507 2.938-6.188 0-.85-.26-1.551-.78-2.106-.502-.555-1.23-.832-2.184-.832-.78 0-1.473.251-2.08.754s-.997 1.222-1.17 2.158l-1.768-.728c.208-1.317.797-2.357 1.768-3.12.97-.763 2.115-1.144 3.432-1.144 1.595 0 2.825.46 3.692 1.378.867.901 1.3 1.976 1.3 3.224 0 1.179-.312 2.427-.936 3.744a16.442 16.442 0 01-2.418 3.718c-1.005 1.161-1.811 2.045-2.418 2.652-.59.59-1.213 1.17-1.872 1.742h8.398v1.95H40.414zm15.453-2.288c-.988-1.681-1.482-3.952-1.482-6.812 0-2.86.485-5.122 1.456-6.786.988-1.681 2.47-2.522 4.446-2.522 1.976 0 3.45.84 4.42 2.522.988 1.664 1.482 3.926 1.482 6.786 0 2.877-.485 5.148-1.456 6.812-.953 1.664-2.418 2.496-4.394 2.496s-3.467-.832-4.472-2.496zm4.42-14.17c-2.461 0-3.692 2.453-3.692 7.358 0 4.905 1.248 7.358 3.744 7.358 1.283 0 2.21-.615 2.782-1.846.572-1.23.858-3.068.858-5.512 0-2.427-.295-4.255-.884-5.486-.59-1.248-1.525-1.872-2.808-1.872zM68.801 73.5v-1.69c2.461-2.427 4.195-4.264 5.2-5.512 1.959-2.444 2.938-4.507 2.938-6.188 0-.85-.26-1.551-.78-2.106-.503-.555-1.23-.832-2.184-.832-.78 0-1.474.251-2.08.754-.607.503-.997 1.222-1.17 2.158l-1.768-.728c.208-1.317.797-2.357 1.768-3.12.97-.763 2.115-1.144 3.432-1.144 1.594 0 2.825.46 3.692 1.378.867.901 1.3 1.976 1.3 3.224 0 1.179-.312 2.427-.936 3.744a16.45 16.45 0 01-2.418 3.718c-1.005 1.161-1.811 2.045-2.418 2.652-.59.59-1.213 1.17-1.872 1.742h8.398v1.95H68.8zm13.71 0v-1.69c2.462-2.427 4.196-4.264 5.2-5.512 1.96-2.444 2.939-4.507 2.939-6.188 0-.85-.26-1.551-.78-2.106-.503-.555-1.23-.832-2.184-.832-.78 0-1.474.251-2.08.754-.607.503-.997 1.222-1.17 2.158l-1.768-.728c.208-1.317.797-2.357 1.768-3.12.97-.763 2.114-1.144 3.432-1.144 1.595 0 2.825.46 3.692 1.378.867.901 1.3 1.976 1.3 3.224 0 1.179-.312 2.427-.936 3.744a16.45 16.45 0 01-2.418 3.718c-1.005 1.161-1.811 2.045-2.418 2.652-.59.59-1.213 1.17-1.872 1.742h8.398v1.95H82.512zm20.254 0V61.8h7.41v1.95h-5.33v9.75h-2.08zm7.832-1.404c0-.364.139-.685.416-.962.277-.277.633-.416 1.066-.416.381 0 .702.147.962.442.277.277.416.59.416.936 0 .399-.13.745-.39 1.04a1.26 1.26 0 01-.988.442c-.433 0-.789-.147-1.066-.442a1.47 1.47 0 01-.416-1.04z" fill="#F7F7EC"/></svg>