<svg width="77" height="54" fill="none" xmlns="http://www.w3.org/2000/svg"><path d="M12.835 42.39c.738-2.084 1.276-3.205 1.614-3.366.42-.2.735-.075.949.373.259.543.292 1.389.099 2.535-.193 1.147-.63 2.36-1.309 3.639-.773 1.423-1.658 2.678-2.654 3.766-.986 1.091-1.765 1.774-2.338 2.047-.125.06-.39.154-.797.285a9.96 9.96 0 00-1.079.432 4.314 4.314 0 00-.397.217 3.5 3.5 0 01-.204.138c-1.227.584-2.362.737-3.405.459-1.043-.278-1.78-.87-2.21-1.773-.48-1.007-.744-2.535-.792-4.585-.056-2.047.216-4.106.816-6.177a21.224 21.224 0 011.956-4.663c.86-1.527 1.714-2.8 2.563-3.817.846-1.025 1.47-1.634 1.875-1.826.661-.316 1.443-.377 2.346-.185.902.192 1.45.49 1.643.894.27.566.383 1.183.341 1.852-.034.665-.228 1.082-.58 1.25-.074.035-.286.091-.637.168a4.05 4.05 0 00-.868.279c-1.58.752-2.553 2.654-2.921 5.704-.17 1.515-.208 2.894-.112 4.137.093 1.236.273 2.133.539 2.691.273.573.678.732 1.214.477.272-.13.842-.654 1.711-1.573.866-.926 1.745-2.053 2.637-3.379zm10.782-20.255c-3.474-3.393-6.545-5.346-9.214-5.86a6.895 6.895 0 00-1.777-.153 19.1 19.1 0 00-1.779.184c-.635.086-1.07.118-1.306.096-.237-.023-.41-.152-.523-.387-.133-.28.002-.735.403-1.368.41-.637.925-1.266 1.549-1.887.627-.633 1.19-1.068 1.69-1.306.764-.364 1.866-.52 3.307-.466 1.437.045 2.926.372 4.47.98 3.931 1.498 6.919 4.393 8.963 8.683 1.62 3.402 2.23 7.285 1.831 11.649a7.219 7.219 0 01-.399 1.745c-.207.55-.6 1.53-1.18 2.942-.696 1.702-1.55 3.136-2.562 4.303-1.008 1.157-1.898 1.919-2.67 2.286-1.241.592-2.404.668-3.488.229-1.09-.436-1.946-1.304-2.565-2.605-.245-.514-.515-1.544-.81-3.089-.298-1.553-.428-2.753-.39-3.6.045-1.004.313-2.182.805-3.534.495-1.363 1.227-2.816 2.196-4.359a31.48 31.48 0 013.449-4.482zm1.507 2c-1.239 2.718-1.951 5.338-2.137 7.86-.19 2.516-.007 4.357.55 5.526.458.962 1.106 1.244 1.944.845.881-.42 1.552-1.236 2.012-2.446.464-1.222.63-2.65.502-4.282-.122-1.637-.557-3.242-1.306-4.814-.43-.904-.952-1.8-1.565-2.689zm23.045.096c-.873 3.237-2.18 5.726-3.92 7.465-1.11 1.115-2.084 2.012-2.924 2.691-.832.676-1.332 1.054-1.501 1.134-.654.312-1.346.25-2.077-.187a4.254 4.254 0 01-1.668-1.855c-.455-.955-.475-2.938-.061-5.947.454-3.606 1.916-7.35 4.385-11.23.942-1.486 1.912-2.732 2.91-3.74 1.003-1.018 1.883-1.707 2.64-2.068 1.182-.563 2.339-.812 3.47-.747 1.127.058 1.824.366 2.09.924.084.177.254.988.51 2.434.26 1.436.513 2.713.757 3.831 1.138 5.246 1.873 8.217 2.206 8.915.143.301.367.582.671.843.312.257.505.463.578.617.123.257.092.619-.091 1.085a1.822 1.822 0 01-.959 1.024c-.184.088-.449.146-.795.176-.336.034-.603.098-.8.192-.104.05-.24.142-.41.277-.17.135-.3.223-.388.265-1.08.515-2.286-.627-3.62-3.427-.315-.66-.65-1.552-1.003-2.672zm-5.417 5.23c.61-.29 1.317-1.244 2.123-2.863.807-1.62 1.474-3.663 2.001-6.132.39-1.791.624-3.326.7-4.606.082-1.284.036-2.109-.14-2.476-.083-.177-.276-.193-.577-.05-.477.228-1.143 1.149-1.996 2.763-.857 1.608-1.644 3.61-2.359 6.005-.952 3.338-1.113 5.669-.483 6.991.186.39.43.512.73.369zm21.006-16.7c.547-.82 1.207-1.413 1.978-1.78.367-.175.794-.32 1.28-.435.483-.121.79-.214.923-.277.301-.143.45-.417.447-.821a15.25 15.25 0 00-.293-2.092c-.152-.793-.281-1.488-.386-2.087-.101-.61-.138-1.084-.11-1.422a5.861 5.861 0 01.531-2.065c.3-.638.696-1.075 1.188-1.31 1.11-.528 2.13.185 3.06 2.14.414.866.737 1.762.97 2.688.238.914.47 2.016.697 3.305.23 1.279.41 2.216.541 2.812.135.585.335 1.156.6 1.715.228.477.542.833.941 1.066.404.223.637.4.7.532.126.265.02.788-.32 1.572a10.53 10.53 0 01-1.364 2.3c-.575.742-1.12 1.236-1.634 1.481-1.205.574-2.388-.358-3.55-2.797-.357-.75-.545-1.769-.564-3.058-.08-.846-.132-1.298-.16-1.357-.032-.066-.077-.085-.136-.057-.056-.118-.157-.142-.304-.072.015-.007-.256.05-.812.17-.559.114-1.07.28-1.532.501-.956.455-1.602 1.15-1.94 2.087-.094.315-.116.912-.067 1.79s.133 1.992.253 3.34c.116 1.342.159 2.057.128 2.143-.019.055-.399.506-1.14 1.355-.733.845-1.118 1.276-1.154 1.294-.162.077-.564-.03-1.206-.318-.654-.293-1.035-.553-1.143-.781-.053-.11-.23-.945-.531-2.505a112.682 112.682 0 01-.928-5.44c-.753-5.023-1.06-7.96-.924-8.808.043-.193.378-.672 1.004-1.44.634-.77 1.075-1.215 1.325-1.334a2.905 2.905 0 011.877-.231c.653.121 1.083.399 1.29.832.105.22.144.815.118 1.783a54.88 54.88 0 00.002 2.5c.02.703.134 1.73.345 3.081z" fill="#284A2E"/></svg>