<svg width="190" height="52" fill="none" xmlns="http://www.w3.org/2000/svg"><g clip-path="url(#clip0)"><path d="M70.86 35.49v4.694c0 1.389-.63 2.251-2.035 2.251-1.405 0-2.035-.91-2.035-2.251v-.958h.969v1.054c0 .814.34 1.293 1.066 1.293.727 0 1.066-.479 1.066-1.293v-2.108h-1.599v-.91h1.599v-1.82c0-.814-.34-1.293-1.066-1.293-.727 0-1.066.48-1.066 1.293v.719h-.92v-.67c0-1.39.63-2.252 2.034-2.252 1.308-.048 1.987.862 1.987 2.251zm2.519 2.922l-.533.91v3.017h-1.017v-9.052h1.017v4.358l2.422-4.358h1.018l-2.326 4.119 2.374 4.933h-1.066l-1.889-3.927zm3.682-2.922c0-1.389.678-2.251 2.083-2.251 1.405 0 2.084.91 2.084 2.25v4.695c0 1.389-.679 2.25-2.084 2.25s-2.083-.91-2.083-2.25V35.49zm1.017 4.694c0 .814.34 1.293 1.066 1.293.727 0 1.066-.48 1.066-1.293v-4.742c0-.814-.339-1.293-1.066-1.293-.726 0-1.066.479-1.066 1.293v4.742zm6.105-5.987l-.194 5.89c-.048 1.438-.436 2.252-1.84 2.252h-.194v-.91c.872 0 .969-.431 1.017-1.293l.242-6.85h3.73v9.053h-1.017v-8.142h-1.744zm3.779 1.293c0-1.389.679-2.251 2.084-2.251s2.083.91 2.083 2.25v4.695c0 1.389-.678 2.25-2.083 2.25-1.405 0-2.084-.91-2.084-2.25V35.49zm1.018 4.694c0 .814.339 1.293 1.066 1.293.726 0 1.066-.48 1.066-1.293v-4.742c0-.814-.34-1.293-1.066-1.293-.727 0-1.066.479-1.066 1.293v4.742zm5.184-5.987v8.142h-1.017v-9.052h3.633v.91h-2.616zm6.007 3.975l-1.356 4.167h-1.066v-9.052h.92v6.753l.824-2.49 1.454-4.263h1.114v9.052h-.921v-7.184l-.969 3.017zm6.105.144a1.708 1.708 0 01-1.405.718c-1.211 0-1.792-.91-1.792-2.155v-3.592h1.017v3.544c0 .766.388 1.293 1.114 1.293.63 0 .969-.383 1.115-1.053v-3.784h1.017v9.052h-1.017v-4.023h-.049zm3.101-.048v4.071h-1.018v-9.052h1.018v4.07h2.228v-4.07h1.018v9.052h-1.018v-4.071h-2.228zm4.215-2.778c0-1.389.678-2.251 2.083-2.251 1.405 0 2.083.91 2.083 2.25v4.695c0 1.389-.678 2.25-2.083 2.25-1.405 0-2.083-.91-2.083-2.25V35.49zm1.017 4.694c0 .814.339 1.293 1.066 1.293.727 0 1.066-.48 1.066-1.293v-4.742c0-.814-.339-1.293-1.066-1.293-.727 0-1.066.479-1.066 1.293v4.742zm7.413-2.874v.91h-2.229v3.209h2.762v.91h-3.779v-9.052h3.779v.91h-2.762v3.065h2.229v.048zm7.51-1.82v.814h-.969v-.862c0-.814-.339-1.293-1.066-1.293-.727 0-1.066.479-1.066 1.293v4.79c0 .814.339 1.293 1.066 1.293.727 0 1.066-.48 1.066-1.293v-1.198h.969v1.102c0 1.389-.63 2.25-2.084 2.25-1.405 0-2.034-.91-2.034-2.25v-4.694c0-1.389.629-2.251 2.034-2.251 1.405 0 2.084.91 2.084 2.299zm2.325 6.849v-8.142h-1.695v-.91h4.408v.91h-1.695v8.142h-1.018zm5.475-9.052c1.454 0 2.035.862 2.035 2.203v1.102c0 1.436-.678 2.203-2.132 2.203h-.92v3.544h-1.018v-9.052h2.035zm-.097 4.598c.776 0 1.115-.335 1.115-1.198v-1.245c0-.814-.291-1.245-1.066-1.245h-.969v3.64h.92v.048zm2.859-2.395c0-1.389.678-2.251 2.083-2.251 1.405 0 2.083.91 2.083 2.25v4.695c0 1.389-.678 2.25-2.083 2.25-1.405 0-2.083-.91-2.083-2.25V35.49zm.969 4.694c0 .814.339 1.293 1.066 1.293.726 0 1.066-.48 1.066-1.293v-4.742c0-.814-.34-1.293-1.066-1.293-.727 0-1.066.479-1.066 1.293v4.742zm6.588-2.012l-1.356 4.167h-1.066v-9.052h.921v6.753l.823-2.49 1.454-4.263h1.114v9.052h-.921v-7.184l-.969 3.017zm4.313 4.167v-8.142h-1.696v-.91h4.409v.91h-1.696v8.142h-1.017zm6.734-5.029v.91h-2.228v3.209h2.761v.91h-3.779v-9.052h3.779v.91h-2.761v3.065h2.228v.048zm3.391-3.113l-.193 5.89c-.049 1.438-.436 2.252-1.841 2.252h-.146v-.91c.872 0 .969-.431 1.018-1.293l.242-6.85h3.73v9.053h-1.017v-8.142h-1.793zm5.766 2.682c1.453 0 2.132.766 2.132 2.203v1.102c0 1.389-.63 2.203-2.035 2.203h-1.987v-9.1h1.018v3.592h.872zm.097 4.55c.726 0 1.066-.431 1.066-1.245v-1.198c0-.862-.388-1.197-1.115-1.197h-.92v3.64h.969zm7.025-5.939v.814h-.969v-.862c0-.814-.339-1.293-1.066-1.293-.727 0-1.066.479-1.066 1.293v4.79c0 .814.339 1.293 1.066 1.293.727 0 1.066-.48 1.066-1.293v-1.198h.969v1.102c0 1.389-.63 2.25-2.083 2.25-1.405 0-2.035-.91-2.035-2.25v-4.694c0-1.389.63-2.251 2.035-2.251 1.405 0 2.083.91 2.083 2.299zm2.326 6.849v-8.142h-1.696v-.91h4.409v.91h-1.696v8.142h-1.017zm5.474-9.052c1.405 0 1.986.67 1.986 2.011v.431c0 .958-.29 1.533-1.065 1.773.872.24 1.211.957 1.211 1.915v.815c0 1.34-.678 2.107-2.084 2.107h-2.083v-9.052h2.035zm-.242 3.831c.823 0 1.211-.239 1.211-1.197v-.527c0-.814-.291-1.197-1.017-1.197h-1.018v2.921h.824zm.29 4.311c.727 0 1.066-.383 1.066-1.245v-.814c0-1.006-.387-1.342-1.259-1.342h-.872v3.353h1.065v.048zm2.956-5.939c0-1.389.679-2.251 2.084-2.251s2.083.91 2.083 2.25v4.695c0 1.389-.678 2.25-2.083 2.25-1.405 0-2.084-.91-2.084-2.25V35.49zm1.018 4.694c0 .814.339 1.293 1.066 1.293.726 0 1.065-.48 1.065-1.293v-4.742c0-.814-.339-1.293-1.065-1.293-.727 0-1.066.479-1.066 1.293v4.742z" fill="#0B1A0D"/><path d="M66.741 25.72V11.446h9.35v1.772h-7.266v12.5H66.74zm11.143 0V11.446h6.977c3.15 0 4.07 2.155 4.07 4.79 0 2.346-1.115 4.501-3.973 4.501h-4.99v4.981h-2.084zm6.59-6.754c1.404 0 2.131-1.053 2.131-2.778 0-1.915-.727-2.97-2.035-2.97h-4.602v5.748h4.505zm18.749 6.754h-2.083V14.511c-2.083 3.784-4.409 7.711-6.783 11.207h-2.761V11.447h2.083V23.18a187.61 187.61 0 007.025-11.734h2.568v14.272h-.049zm6.008 0h-2.083V11.446h2.083v5.7h6.928v-5.7h2.084v14.272h-2.084v-6.657h-6.928v6.657z" fill="#04260E"/><path d="M129.58 11.112c1.308 0 3.004.239 4.07.526l-.533 1.868c-.824-.287-2.277-.479-3.295-.479-3.391 0-4.651.67-4.651 5.46s1.26 5.604 4.651 5.604c1.066 0 2.471-.192 3.295-.479l.533 1.868c-1.115.335-2.762.527-4.07.527-4.554 0-6.686-1.724-6.686-7.568 0-5.843 2.18-7.327 6.686-7.327zm10.126 14.608V13.219h-4.942v-1.772h12.016v1.772h-4.942v12.5h-2.132zm9.108 0V11.447h6.977c3.149 0 4.07 2.155 4.07 4.79 0 2.346-1.114 4.502-3.973 4.502h-4.942v4.98h-2.132zm6.59-6.754c1.405 0 2.131-1.053 2.131-2.777 0-1.916-.726-2.97-2.035-2.97h-4.554v5.747h4.458zm19.767-.479c0 5.891-2.132 7.52-6.686 7.52s-6.686-1.629-6.686-7.52c0-5.795 2.18-7.375 6.686-7.375s6.686 1.58 6.686 7.375zm-2.229.048c0-4.79-1.017-5.603-4.457-5.603s-4.409.814-4.409 5.603c0 4.646 1.017 5.604 4.409 5.604 3.44 0 4.457-1.006 4.457-5.604zm17.054 7.185h-2.083V14.511c-2.084 3.784-4.409 7.711-6.783 11.207h-2.81V11.447h2.083V23.18a187.81 187.81 0 007.025-11.734h2.568V25.72zm-7.267-17.865c0 1.053.484 1.293 1.502 1.293.969 0 1.502-.24 1.502-1.293h1.356c0 1.868-1.017 2.682-2.907 2.682-1.889 0-2.907-.862-2.907-2.682h1.454zM31.131 14.273c-.339-2.108-.581-4.024-.872-5.94h-.145c-.34 1.916-.678 3.832-1.018 5.796-3.1-.814-4.505-3.592-3.682-7.088.679-2.874 2.423-5.03 4.651-7.041 3.053 2.586 5.185 5.604 4.894 9.675-.097 2.155-1.357 3.736-3.828 4.598zM16.5 18.679a202 202 0 01-2.859-3.017c.63 1.436 1.066 2.538 1.55 3.735-1.55.527-2.761.144-3.682-.91-1.986-2.299-1.84-4.933-1.066-7.806 2.762.479 5.184 1.389 6.541 3.879.727 1.341.63 2.73-.484 4.119zm28.44.814c.58-1.34 1.114-2.538 1.744-3.975-1.115 1.197-1.987 2.107-2.956 3.16-1.017-1.1-1.308-2.25-.775-3.495 1.211-2.922 3.73-3.88 6.734-4.455.97 2.635.92 5.125-.678 7.424-.92 1.245-2.18 1.676-4.07 1.341zm4.457 9.962c1.114-3.592 6.105-3.544 9.835.623-1.696 2.012-3.682 3.448-6.54 3.353-1.55-.048-2.665-.815-3.343-2.491a115.33 115.33 0 013.973-.766c-1.357-.24-2.617-.431-3.925-.719zm-38.566 0c-1.356.24-2.616.48-4.021.719 1.356.24 2.616.479 3.924.718-.29 1.485-1.211 2.251-2.47 2.443-3.053.479-5.233-.958-7.22-3.21 1.793-2.059 3.876-3.448 6.686-3.256 1.405.096 2.568.862 3.101 2.586zM39.029 13.89v-3.305a97.214 97.214 0 00-1.357 2.921c-1.211-.479-1.696-1.437-1.647-2.49.048-2.778 1.89-4.359 4.166-5.796 1.55 1.964 2.374 4.072 1.6 6.562-.437 1.293-1.309 2.012-2.762 2.107zm-17.975-3.449c.097 1.341.194 2.395.242 3.496-1.453-.095-2.374-.766-2.81-1.915-.872-2.443-.145-4.598 1.405-6.706 2.18 1.15 3.876 2.634 4.264 5.125.193 1.293-.291 2.347-1.6 3.113-.435-.91-.871-1.868-1.501-3.113zM10.589 22.942a47.25 47.25 0 01-1.793-.719c.533.623.872 1.054 1.26 1.533-2.325 1.15-4.215-.527-4.506-3.784 3.295-.814 5.572.431 5.039 2.97zm43.943-3.018c.097 3.018-2.083 4.981-4.408 3.832.387-.48.775-.91 1.308-1.485-.727.24-1.308.431-1.89.67-.29-2.586 1.744-3.735 4.99-3.017zm-15.746-2.299c-.532.144-.872.24-1.26.335-.29-2.25 1.503-3.256 4.41-2.586-.194 2.874-1.793 4.31-3.828 3.353.146-.335.34-.623.678-1.102zm-16.085.335c-.484-.191-.92-.335-1.647-.622.485.527.775.91 1.114 1.245-1.89 1.15-3.73-.383-3.875-3.209 2.664-.766 4.699.335 4.408 2.586zm23.934 15.95c-.242-.384-.436-.671-.581-1.006 1.938-.91 3.537.526 3.634 3.16-2.374.815-4.167-.143-4.215-2.346.339.048.726.096 1.162.191zm-32.412-1.054c-.29.383-.485.718-.824 1.15.533-.144.872-.24 1.502-.432-.097.575-.097 1.006-.242 1.341-.63 1.293-2.471 1.772-4.215 1.102.387-2.73 1.647-3.88 3.779-3.161zm1.987-9.244h-1.067c.243.288.436.48.727.814-.34.144-.581.336-.872.336-1.502.047-2.083-.958-2.568-2.108 1.647-1.197 3.053-.91 3.78.958zM45.52 7.663c.534 1.341.776 2.49-.58 3.161-.291.144-1.309-.383-1.357-.718-.29-1.39.824-1.868 1.938-2.443zm-30.474.383c-.532 1.341-.775 2.49.533 3.161.291.144 1.308-.383 1.357-.718.34-1.341-.775-1.82-1.89-2.443z" fill="#257134"/><path d="M29.193 24.426c.63-.143 1.066-.047 1.502.192.872.479 1.114.431 1.599-.479 1.89-3.64 7.51-4.837 10.998-1.341 2.035 2.06 2.568 5.173 1.308 7.711-1.26 2.634-3.973 4.167-6.928 3.927-2.277-.191-4.118-1.197-5.281-3.209-.34-.574-.775-.814-1.454-.814-4.796.048-9.593.048-14.437.096-.388 0-.727-.096-.97-.383a14.212 14.212 0 00-1.21-1.198c-.243-.239-.243-.383 0-.622.726-.67 1.404-1.39 2.083-2.06.29-.287.533-.335.823 0 .243.24.485.24.727 0 .388-.287 1.066-.335 1.454-.047.387.287.678.287 1.017-.048.097-.096.34-.144.485-.144 1.065-.144 2.083.096 2.906.814.436.383.872.431 1.26 0 .097-.096.242-.144.34-.24.29-.239.532-.239.871-.047.872.43.679.335 1.308-.144.436-.383.97-.67 1.454-1.006a1.04 1.04 0 00.242-.383 2.84 2.84 0 00-.097-.575zm12.694 4.407c.678-.67.727-1.724.048-2.443a1.817 1.817 0 00-2.47-.048c-.679.67-.727 1.772-.049 2.443.727.718 1.793.718 2.47.048zM15.24 28.45c.097 0 .145.047.242.047 4.942 0 9.884-.047 14.826-.095.145 0 .29-.192.484-.288-.145-.096-.34-.24-.484-.24-4.7 0-9.448.049-14.148.049-.484 0-.726.143-.92.527z" fill="#04260E"/><path d="M40.87 40.423c-.824-.144-1.696-.335-2.616-.479 1.405-.527 2.664-1.245 4.118-1.389.533-.048 1.066-.048 1.453.527.388-.191.775-.43 1.163-.623l1.308-.574c.727-.24 1.405-.144 1.89.479.193.24.387.24.63.143.58-.24 1.162-.383 1.792-.191.727.24 1.114.814.969 1.58 0 .144-.048.288-.048.431.096.91-.34 1.58-1.066 2.06-.194.144-.388.287-.533.43-1.648 1.773-3.682 3.066-5.766 4.216-1.647.957-3.488 1.628-5.28 2.299-1.648.67-3.344 1.197-5.04 1.724-.871.287-1.792.43-2.713.527-.436.047-.872-.096-1.308-.144-1.308-.24-2.664-.431-3.924-.814a48.287 48.287 0 01-4.651-1.629c-3.343-1.34-6.54-1.15-9.593.91-.048.048-.097.048-.194.096a61.466 61.466 0 00-.872-1.772c-.775-1.772-1.55-3.496-1.89-5.412-.339-1.82.194-2.874 1.938-3.64a171.287 171.287 0 014.41-1.82c2.228-.91 4.457-.814 6.685-.096a49.888 49.888 0 015.281 2.012c2.617 1.197 5.233 1.389 8.043.958 2.083-.336 4.166 0 6.105.862.63.287 1.162.766 1.308 1.484.193 1.006-.243 1.677-1.212 1.868-1.114.192-2.277.192-3.294.527-2.229.719-4.554.814-6.88.91-1.211.048-2.325.24-3.488.67-.679.24-1.405.432-2.084.671.437-.048.921-.048 1.357-.191 2.035-.67 4.118-.67 6.201-.67 1.55 0 3.053-.097 4.555-.576 1.162-.383 2.422-.43 3.633-.622 1.55-.24 2.374-1.629 1.696-3.066-.339-.718-.92-1.197-1.599-1.532-.194.048-.339-.048-.484-.144.484-.191 1.017-.43 1.502-.623.387-.143.726-.335 1.114-.526-.727 0-2.18.67-2.616 1.15zm2.568 2.347c0 .048.048.096.048.144.533-.24 1.066-.383 1.55-.67a57.686 57.686 0 002.859-1.82c.872-.576 1.792-.91 2.858-.432 0 0 .049 0 .097-.048-.581-.527-1.695-.718-2.519-.191-1.018.67-2.229 1.101-3.1 2.011-.146.192-.437.288-.63.383-.34.24-.776.431-1.163.623zm-.533-1.389c0 .048.048.096.048.144.92-.383 1.793-.767 2.713-1.15.92-.383 2.084-1.15 2.423-1.628-1.745.91-3.489 1.772-5.184 2.634z" fill="#257134"/></g><defs><clipPath id="clip0"><path fill="#fff" transform="translate(.996)" d="M0 0h189v51.726H0z"/></clipPath></defs></svg>