<svg width="42" height="42" fill="none" xmlns="http://www.w3.org/2000/svg"><path fill-rule="evenodd" clip-rule="evenodd" d="M4.06 0h36.364c.29 0 .58.29.58.58 0 .291-.29.582-.58.582H4.06c-.29 0-.579-.29-.579-.581 0-.29.29-.581.58-.581zM.728 38.184c.29 0 .58-.29.58-.58V1.161c0-.29-.29-.581-.58-.581s-.58.29-.58.58v36.442c0 .29.29.581.58.581zm39.407-34.7c-.29 0-.58.29-.58.581v36.733c0 .29.29.58.58.58s.58-.29.58-.58V3.92c0-.29-.29-.435-.58-.435zm-24.05 36.442h21.152c.29 0 .58.29.58.581 0 .29-.29.58-.58.58H15.65c-.29 0-.58-.144-.58-.435v-1.016c-.144-.29.146-.58.435-.58.29-.146.58.144.58.435v.435zM7.248 30.2H6.234c-.29 0-.58.29-.58.58v9.147H.584c-.29 0-.58.29-.58.581 0 .29.29.58.58.58h5.505c.29 0 .58-.29.58-.58V31.36h.579c.29 0 .58-.145.58-.435-.146-.436-.29-.726-.58-.726zm8.692 7.84c0 .29-.145.58-.434.58-.435 0-.58-.145-.58-.29l-.435-1.306c-.144-.29 0-.581.29-.726.29-.145.58 0 .724.29.145.436.29.871.435 1.452zm-3.694-5.88a7.956 7.956 0 00-.652-.508c-.29-.145-.58-.145-.724.145-.145.29-.145.58.145.726.217.145.398.29.579.435.181.145.362.29.58.436.144.145.29.145.434.145.145 0 .29 0 .435-.145 0-.145 0-.58-.145-.726a7.972 7.972 0 01-.652-.508zm1.666 1.67l.87 1.306c.144.145 0 .58-.29.726h-.29c-.145 0-.29-.145-.435-.29a3.162 3.162 0 00-.724-1.162c-.145-.145-.145-.58.145-.726.145-.145.58-.145.724.145zm-3.622-2.904c-.217-.073-.47-.182-.724-.29a9.867 9.867 0 00-.724-.291c-.29-.145-.58.145-.725.436-.145.29.145.58.435.726l1.304.435h.29c.144 0 .434-.145.434-.29 0-.29-.145-.581-.29-.726zM23.33 2.323c-.29 0-.58.29-.58.58V15.39c0 .29.29.58.58.58h9.417v.581c0 .29.145.581.435.581.29 0 .58-.145.58-.436V15.68c0-.29-.29-.58-.58-.58h-9.417V3.193c.145-.58 0-.871-.435-.871zm2.608 22.068l1.304-.435c.145-.145.58 0 .724.29.145.29 0 .581-.29.726-.217.073-.47.145-.724.218-.253.073-.507.145-.724.218h-.145c-.29 0-.58-.145-.58-.436 0-.29.145-.58.435-.58zm3.622-1.887c-.29.29-.725.58-1.16.726-.289.145-.289.435-.144.726.145.145.29.29.434.29h.29l1.304-.87c.29-.146.29-.582.145-.727-.29-.29-.58-.29-.87-.145zm1.883-.145c-.145.145-.29.145-.435.145-.145 0-.29-.145-.29-.145-.144-.146-.144-.436 0-.726.145-.218.29-.4.435-.581a8.06 8.06 0 00.435-.58c.145-.291.434-.291.724-.146s.29.436.145.726a7.972 7.972 0 01-.507.653 7.958 7.958 0 00-.507.654zm1.594-2.759c.072-.218.18-.472.29-.726.108-.254.217-.508.29-.726.144-.29-.146-.58-.435-.726-.29-.145-.58.146-.725.436l-.434 1.307c-.145.29 0 .58.29.726h.29c.289.145.434 0 .434-.29zm-9.562 19.165c-.29 0-.58-.29-.58-.58V25.262c0-.29.29-.581.58-.581h1.014c.29-.145.58.145.58.435.145.29-.145.581-.435.581h-.58v12.486c0 .29-.29.58-.579.58z" fill="#D5C695"/></svg>