<svg height="32" viewBox="0 0 846.66 846.66" width="32" xmlns="http://www.w3.org/2000/svg" shape-rendering="geometricPrecision" text-rendering="geometricPrecision" image-rendering="optimizeQuality" fill-rule="evenodd" clip-rule="evenodd"><path d="M64.19 224.71H87.6l.07-94.62a20.73 20.73 0 0124.46-20.38l627.66 115h42.68c31.17 0 56.69 25.53 56.69 56.69v399.2c0 31.18-25.53 56.7-56.69 56.7H64.19c-31.18 0-56.69-25.54-56.69-56.7V281.4c0-31.18 25.54-56.69 56.69-56.69zm64.99 0h380.66l-380.66-69.75v69.75zm598.17 216.8c-27.34 0-27.34-41.58 0-41.58h70.24V281.4c0-8.34-6.79-15.11-15.12-15.11H64.19c-8.3 0-15.11 6.78-15.11 15.11v118.53h70.23c27.35 0 27.35 41.58 0 41.58H49.08v78.99h70.23c27.35 0 27.35 41.58 0 41.58H49.08V680.6c0 8.31 6.78 15.12 15.11 15.12h718.28c8.34 0 15.12-6.78 15.12-15.12V562.08h-70.24c-27.34 0-27.34-41.58 0-41.58h70.24v-78.99h-70.24zm-324.81-94.19c0-27.34 41.58-27.34 41.58 0v17.34h21.47c27.35 0 27.35 41.58 0 41.58h-21.47v53.97h21.47c40.01 0 68.19 29.62 68.19 68.57 0 38.95-28.18 68.56-68.19 68.56h-21.47v17.35c0 27.34-41.58 27.34-41.58 0v-17.35h-21.47c-27.35 0-27.35-41.57 0-41.57h21.47v-53.98h-21.47c-40.01 0-68.19-29.62-68.19-68.56 0-38.96 28.18-68.57 68.19-68.57h21.47v-17.34zm41.58 154.47v53.98h21.47c16.57 0 26.62-11.07 26.62-26.99 0-15.92-10.05-26.99-26.62-26.99h-21.47zm-41.58-41.58v-53.97h-21.47c-16.57 0-26.62 11.07-26.62 26.99 0 15.91 10.05 26.98 26.62 26.98h21.47z" fill-rule="nonzero"/></svg>