<svg width="32" height="33" fill="none" xmlns="http://www.w3.org/2000/svg"><path fill-rule="evenodd" clip-rule="evenodd" d="M19.2.72a12.63 12.63 0 0112.66 12.6c0 .35-.3.65-.66.65a.67.67 0 01-.65-.65 11 11 0 00-3.33-7.97 11.2 11.2 0 00-8.01-3.32.67.67 0 01-.66-.66c0-.35.3-.65.66-.65zm3.23 19.7l5.9 5.9c.75.75.75 2.01 0 2.72l-2.27 2.27c-.7.65-1.66 1-2.87 1-1.26 0-2.82-.35-4.59-1.15-3.22-1.41-6.75-3.98-10.03-7.26-3.22-3.28-5.84-6.8-7.25-10.03C-.2 10.5-.25 7.82 1.17 6.41L3.43 4.2a1.98 1.98 0 012.78 0l5.9 5.94a1.95 1.95 0 010 2.72l-1.47 1.46v.06c-.4.6.45 2.72 2.62 4.88 2.17 2.17 4.33 2.98 4.89 2.62l1.51-1.46a1.98 1.98 0 012.77 0zm3.93 8.87l1.11-1.1c.25-.26.25-.71 0-.91l-5.94-5.95a.7.7 0 00-.96 0l-2.22 1.86c-.15.05-.35.05-.55.05-1.57 0-3.78-1.46-5.4-3.07-1.86-1.81-3.42-4.33-3.02-5.95l1.86-2.21c.16-.15.2-.3.2-.5s-.04-.36-.2-.51l-6-5.9a.7.7 0 00-.95 0l-1.1 1.11 5.89 5.9-.43.45-.43.45-5.95-5.9-.2.21c-1 1-.85 3.23.4 6.05 1.37 3.07 3.89 6.5 7.01 9.67 6.96 6.9 13.7 9.43 15.72 7.41l.2-.25-5.9-5.9.92-.9 5.94 5.9zM19.21 6.26a7.08 7.08 0 017.05 7.06c0 .35.3.65.66.65.35 0 .65-.3.65-.65a8.38 8.38 0 00-8.36-8.37c-.36 0-.66.3-.66.66 0 .35.3.65.66.65zm2.82 7.06a2.82 2.82 0 00-2.82-2.83.58.58 0 01-.6-.6c0-.35.3-.65.65-.65a4.06 4.06 0 014.08 4.08c0 .35-.3.65-.66.65a.67.67 0 01-.65-.65z" fill="#fff"/></svg>