<svg width="35" height="35" fill="none" xmlns="http://www.w3.org/2000/svg"><path fill="#E89714" d="M0 0h35v35H0z"/><path fill-rule="evenodd" clip-rule="evenodd" d="M23.889 12.022a27.774 27.774 0 012.345 4.953l-3.055 1.698a.14.14 0 01-.124 0l-.586-1.358v11.327a.4.4 0 01-.293.293.139.139 0 01-.108 0h-10.17a.417.417 0 01-.386-.324.14.14 0 010-.108V17.376l-.586 1.358a.14.14 0 01-.124 0l-2.947-1.882a27.78 27.78 0 012.345-4.954 17.487 17.487 0 014.213-1.435l2.562-1.204V7.824a.123.123 0 010-.108.124.124 0 01.124 0 1.389 1.389 0 10-.973-1.698.123.123 0 01-.104.097.123.123 0 01-.05-.004.123.123 0 01-.093-.154 1.636 1.636 0 012.007-1.142 1.636 1.636 0 01-.433 3.21h-.277v1.234l2.5 1.327c1.46.297 2.875.78 4.213 1.436zm-.741 6.11l.139.31 2.608-1.575-.108-.278-2.64 1.544zm-3.812-7.561l-2.36-1.065-2.238 1.065c0 .37.431 1.543 2.299 1.543 1.867 0 2.3-1.126 2.3-1.543zM8.163 16.867l2.64 1.543.107-.277-2.639-1.544-.108.278zm3.812 11.713h10.093a.138.138 0 00.24.015.14.14 0 00.022-.092V16.605h.154l.571 1.312 2.655-1.544a21.702 21.702 0 00-2.007-4.197 17.482 17.482 0 00-4.104-1.374c-.108.726-.834 1.698-2.578 1.698-1.743 0-2.469-.972-2.577-1.698a17.506 17.506 0 00-4.105 1.312 21.606 21.606 0 00-1.882 4.198l2.654 1.543.57-1.312h.155v11.898a.139.139 0 00.14.14zm.279-.57h9.521a.147.147 0 110 .292h-9.521a.147.147 0 010-.293z" fill="#fff"/></svg>