<svg width="36" height="35" fill="none" xmlns="http://www.w3.org/2000/svg"><path fill="#3353A3" d="M.192 0h35v35h-35z"/><path fill-rule="evenodd" clip-rule="evenodd" d="M13.217 7.022h-.247a.248.248 0 01-.077.092.247.247 0 010-.354l.988-.988a.247.247 0 01.154 0h7.377a.247.247 0 01.17 0l.987.988a.232.232 0 010 .108.247.247 0 010 .154.247.247 0 01-.17 0h-.246v20.062a.247.247 0 11-.494 0V7.022H13.71v20.062a.247.247 0 01-.494 0V7.022zm8.102-.988h-7.253l-.494.494h8.241l-.494-.494zm-1.111 4.768a.247.247 0 00-.247-.247h-1.296V9.26a.247.247 0 00-.247-.247h-1.543a.247.247 0 00-.247.247v1.235h-1.25a.247.247 0 00-.14 0 .247.247 0 000 .139v1.543a.247.247 0 00.248.247h1.25v1.234a.247.247 0 00.247.247h1.543a.324.324 0 00.247-.247v-1.234h1.25a.23.23 0 00.185-.078v-1.543zm-1.744 1.25a.247.247 0 00-.247.247v1.25h-1.096V12.3a.247.247 0 00-.246-.247h-1.25v-.987h1.25a.247.247 0 00.246-.263V9.568h.988v1.234a.247.247 0 00.247.247h1.25v.988l-1.142.015zm-2.762 15.093a.247.247 0 00.494 0V23.41h1.25v3.735a.247.247 0 10.494 0V23.41h1.25v3.735a.247.247 0 10.494 0v-3.997a.247.247 0 00-.247-.247h-3.488a.247.247 0 00-.247.247v3.997zm-3.545-14.588a.247.247 0 01.072.174v1.543a.247.247 0 01-.246.247h-1.544a.247.247 0 01-.247-.247v-1.543a.247.247 0 01.247-.247h1.543c.066 0 .129.026.175.073zm-1.41 1.424h.989v-.987h-.988v.987zm1.482 2.238a.247.247 0 00-.246-.247h-1.544a.247.247 0 00-.247.247v1.543a.247.247 0 00.247.247h1.543a.247.247 0 00.247-.247V16.22zm-.493 1.25h-.988v-.988h.988v.988zm.421 2.048a.247.247 0 01.072.174v1.543a.247.247 0 01-.246.247h-1.544a.247.247 0 01-.247-.247v-1.543a.247.247 0 01.247-.247h1.543c.066 0 .129.026.175.073zm-1.41 1.424h.989v-1.003h-.988v1.003zm1.236 1.991h-1.544a.247.247 0 00-.247.247v1.543a.247.247 0 00.247.247h1.543a.247.247 0 00.247-.247V23.18a.247.247 0 00-.246-.247zm-.247 1.543h-.988v-.987h.988v.987zm13.338-11.918a.247.247 0 01.072.174v1.543a.247.247 0 01-.247.247h-1.543a.247.247 0 01-.247-.247v-1.543a.247.247 0 01.247-.247h1.543c.066 0 .128.026.175.073zm-1.41 1.424h.988v-.987h-.988v.987zm1.482 2.238a.247.247 0 00-.247-.247h-1.543a.247.247 0 00-.247.247v1.543a.247.247 0 00.247.247h1.543a.247.247 0 00.247-.247V16.22zm-.494 1.25h-.988v-.988h.988v.988zm.422 2.048a.247.247 0 01.072.174v1.543a.247.247 0 01-.247.247h-1.543a.247.247 0 01-.247-.247v-1.543a.247.247 0 01.247-.247h1.543c.066 0 .128.026.175.073zm-1.41 1.424h.988v-1.003h-.988v1.003zm1.173 1.991h-1.543a.247.247 0 00-.247.247v1.543a.247.247 0 00.247.247h1.543a.247.247 0 00.247-.247V23.18a.247.247 0 00-.247-.247zm-.246 1.543h-.988v-.987h.988v.987zm-9.31 3.848a.247.247 0 01.174-.422h4.475a.247.247 0 110 .494h-4.475a.247.247 0 01-.175-.072zm5.652.566h-6.466a.247.247 0 100 .494h6.466a.247.247 0 100-.494zm-6.219-.74c0 .138-.077.246-.154.246l-3.704-.061-.277.277a.17.17 0 01-.124 0 .185.185 0 01-.123 0 .168.168 0 01-.04-.19.168.168 0 01.04-.056h-3.38c-.154 0-.154-.108-.154-.247 0-.14.077-.247.154-.247h.57a.155.155 0 010-.14l.68-.678A.168.168 0 018.325 27a.169.169 0 01.124.053.17.17 0 010 .247l-.587.586h1.76a.154.154 0 010-.139l.679-.679a.171.171 0 01.19-.04.19.19 0 01.057.04.17.17 0 010 .247l-.587.586h.88l.139-.138a.17.17 0 01.247 0 .154.154 0 010 .138h3.333c.154 0 .154.109.154.247zm1.235-10.201h3.488a.247.247 0 00.247-.247v-1.543a.247.247 0 00-.247-.247h-3.488a.247.247 0 00-.247.247V17.7a.247.247 0 00.247.247zm3.225-.494H17.94v-.988h1.234v.988zm-2.978-.988h1.234v.988h-1.234v-.988zm-.422 4.897a.247.247 0 01-.072-.175v-1.543a.247.247 0 01.247-.247h3.488a.247.247 0 01.247.247v1.543a.247.247 0 01-.247.247h-3.488a.247.247 0 01-.175-.072zm2.181-.422h1.235v-1.003h-1.235v1.003zm-.509-1.003h-1.235v1.003h1.235v-1.003zm11.033 7.963h-7.716c-.077 0-.154.108-.154.247 0 .14 0 .247.154.247h7.716c.077 0 .154-.108.154-.247s-.077-.247-.154-.247zM8.325 10.926c.055.02.115.02.17 0h.247v16.157a.247.247 0 10.494 0v-16.08h3.256a.247.247 0 100-.494H9.097l.494-.494h2.901a.247.247 0 100-.494H9.498a.247.247 0 00-.17 0l-.987.988a.247.247 0 000 .17.247.247 0 00-.016.247zM25.795 10h-2.887v.093a.247.247 0 110-.494h3.056a.247.247 0 01.17 0l.988.988c.02.055.02.115 0 .17a.247.247 0 01-.247.246h-.247v16.142a.247.247 0 11-.494 0V10.988h-3.226a.247.247 0 110-.494h3.38L25.794 10z" fill="#fff"/></svg>