<svg width="35" height="35" fill="none" xmlns="http://www.w3.org/2000/svg"><path fill="#3DA684" d="M0 0h35v35H0z"/><path fill-rule="evenodd" clip-rule="evenodd" d="M14.244 11.821a.17.17 0 00.17-.17v-1.018a.17.17 0 00-.17-.17h.622a.17.17 0 00-.098.154v1.018a.17.17 0 00.29.12.17.17 0 00.05-.12v-1.018a.17.17 0 00-.099-.154h4.302a.17.17 0 00-.098.154v1.018a.17.17 0 00.29.12.17.17 0 00.05-.12v-1.018a.17.17 0 00-.098-.154h.607a.17.17 0 00-.17.17v1.018a.17.17 0 00.34 0v-1.018a.17.17 0 00-.116-.161.17.17 0 00.054-.009.154.154 0 000-.123 1.204 1.204 0 00-1.188-1.189h-3.704a1.204 1.204 0 00-1.204 1.189.154.154 0 000 .092.17.17 0 00.054.01.168.168 0 00-.115.16v1.018a.17.17 0 00.231.201zm1.034-2.392h3.75a.849.849 0 01.818.68H14.46a.849.849 0 01.818-.68zm12.3 1.374H20.74a.17.17 0 000 .34h6.837a.51.51 0 01.509.508v11.62a1.867 1.867 0 01-.942 1.915.17.17 0 00.093.308h.093a2.222 2.222 0 001.095-2.191v-11.62a.847.847 0 00-.848-.88zm-1.344 1.357h-4.336l.679-.679a.176.176 0 00.038-.19.176.176 0 00-.162-.108.174.174 0 00-.123.051l-.68.68a.171.171 0 00-.038.19.17.17 0 00.039.056h-9.66l.678-.679a.171.171 0 00.04-.19.171.171 0 00-.04-.057.178.178 0 00-.016-.015h.912a.17.17 0 00.12-.29.17.17 0 00-.12-.05H9.12a2.223 2.223 0 00-2.19 1.097.17.17 0 000 .231l.138-.046a.17.17 0 00.139 0 1.867 1.867 0 011.913-.942h.573a.184.184 0 00-.017.015l-.68.68a.17.17 0 000 .246H7.423a.865.865 0 00-.848.85v11.959a.864.864 0 00.849.849h18.811a.864.864 0 00.849-.849v-11.96a.864.864 0 00-.849-.849zm-16.329-.94a.184.184 0 01.055.071.175.175 0 01-.038.19l-.679.68h2.5a.17.17 0 010-.248l.68-.679a.178.178 0 01.016-.015H9.905zm16.839 13.749a.51.51 0 01-.51.51H7.422a.51.51 0 01-.509-.51v-11.96a.51.51 0 01.51-.51h18.811a.51.51 0 01.51.51v11.96zm-3.95-13.149h1.373a.17.17 0 100-.339h-1.373a.17.17 0 100 .34zm-12.76-.29a.17.17 0 01.12-.049h1.374a.17.17 0 110 .34h-1.373a.17.17 0 01-.12-.29zm4.507 4.053a4.106 4.106 0 114.561 6.828 4.106 4.106 0 01-4.561-6.828zm.188 6.529c.62.414 1.348.635 2.093.635v.015a3.765 3.765 0 003.765-3.78 3.765 3.765 0 10-5.857 3.13zm2.092-7.9a4.784 4.784 0 100 9.569 4.784 4.784 0 000-9.569zm0 9.26a4.444 4.444 0 114.444-4.445 4.445 4.445 0 01-4.444 4.414v.03zM7.303 12.889a.17.17 0 01.12-.05.17.17 0 01.17.232v11.62a.17.17 0 01-.34 0V13.01a.17.17 0 01.05-.12zm18.932-.05a.17.17 0 00-.17.17v11.682a.17.17 0 00.34 0v-11.62a.17.17 0 00-.17-.232zm-8.519 5.279h1.142a.231.231 0 01.231.231v1.373a.232.232 0 01-.231.232h-1.142v1.142a.232.232 0 01-.232.232h-1.373a.231.231 0 01-.231-.232v-1.142h-1.142a.232.232 0 01-.232-.232V18.35a.232.232 0 01.232-.231h1.142v-1.142a.231.231 0 01.231-.232h1.373a.232.232 0 01.232.232v1.142zm-.32 1.39a.23.23 0 01.088-.017l1.065-.154v-.91h-1.142a.23.23 0 01-.154 0 .232.232 0 010-.14v-1.142h-.91v1.142a.232.232 0 01-.232.232h-1.142v.972h1.142a.23.23 0 01.232.232v1.142h.91v-1.142a.232.232 0 01.143-.214z" fill="#fff"/></svg>