<svg width="35" height="35" fill="none" xmlns="http://www.w3.org/2000/svg"><path fill="#481183" d="M0 0h35v35H0z"/><path fill-rule="evenodd" clip-rule="evenodd" d="M24.985 10.973l-1.327-2.917V6.173a.292.292 0 00-.309-.308H11.636a.293.293 0 00-.309.308v1.79L9.97 10.942a3.842 3.842 0 00-.34 1.543V28.69a.293.293 0 00.31.308h15.09a.291.291 0 00.29-.188.293.293 0 00.019-.12V12.485a3.905 3.905 0 00-.355-1.512zm-13.04-4.46H23.04v1.234H11.945V6.513zM24.692 28.41h-14.43V12.516c-.002-.447.093-.89.278-1.296l1.297-2.855h11.311l1.297 2.855c.185.406.28.849.277 1.296l-.03 15.895zm-6.174-12.33a1.913 1.913 0 00-1.543-.217 1.804 1.804 0 00-1.173.895 1.883 1.883 0 00-.216 1.543 1.93 1.93 0 00.895 1.204c.298.181.64.277.988.278.154.015.31.015.463 0a1.947 1.947 0 001.204-.895 1.883 1.883 0 00.216-1.543 1.93 1.93 0 00-.834-1.266zm.155 2.36a1.343 1.343 0 11-1.543-1.99h.34a1.343 1.343 0 011.141 2.037l.062-.047zm-3.858-1.357a.679.679 0 01-.247 0 1.025 1.025 0 01-.494-.123.927.927 0 01-.432-.586 1.034 1.034 0 01.123-.741.926.926 0 01.587-.432 1.03 1.03 0 01.74.123.927.927 0 01.433.587 1.03 1.03 0 01-.124.74.941.941 0 01-.586.432zm-.34-1.327c-.092 0-.216.062-.216.155v.015a.51.51 0 000 .262c0 .093.062.216.154.216.09.03.188.03.278 0 .093 0 .216-.061.216-.154a.433.433 0 000-.278c0-.092-.062-.216-.154-.216a.432.432 0 00-.185 0h-.093zm1.343-.479c.148.093.318.146.493.154a.679.679 0 00.247 0 .925.925 0 00.587-.432c.132-.222.176-.487.123-.74a.927.927 0 00-.432-.587 1.034 1.034 0 00-.74-.123.925.925 0 00-.587.432.879.879 0 00-.123.74.92.92 0 00.432.556zm.185-1.018c0-.093.123-.155.216-.155h.092a.462.462 0 01.186 0c.092 0 .154.124.154.216a.44.44 0 010 .278c0 .093-.123.155-.216.155a.34.34 0 01-.432-.247.51.51 0 010-.247zm2.778 1.172a1.019 1.019 0 01-.494-.154.926.926 0 01-.453-.94.88.88 0 01.144-.356.927.927 0 01.587-.432 1.03 1.03 0 01.74.123.926.926 0 01.433.587 1.03 1.03 0 01-.124.74.925.925 0 01-.586.432.679.679 0 01-.247 0zm-.062-1.327c-.093 0-.216.062-.216.155h.015a.355.355 0 00-.015.247.34.34 0 00.432.247c.093 0 .216-.062.216-.155a.432.432 0 000-.278c0-.092-.062-.216-.154-.216a.462.462 0 00-.185 0h-.093zm2.361 1.141a1.034 1.034 0 00-.74-.123.927.927 0 00-.587.432 1.034 1.034 0 00-.124.74.925.925 0 00.432.587c.15.093.32.147.494.155a.683.683 0 00.247 0 .928.928 0 00.587-.432c.132-.223.176-.488.123-.741a1.018 1.018 0 00-.432-.618zm-.185 1.019c0 .093-.124.154-.216.154a.433.433 0 01-.278 0c-.093 0-.154-.123-.154-.216a.432.432 0 010-.277c0-.093.123-.155.216-.155h.092a.432.432 0 01.186 0c.092 0 .154.124.154.216a.324.324 0 010 .278zm-6.698 5.926h6.76a.309.309 0 010 .618h-6.76a.309.309 0 010-.618z" fill="#fff"/></svg>