<svg width="36" height="35" fill="none" xmlns="http://www.w3.org/2000/svg"><path fill="#79C785" d="M.192 0h35v35h-35z"/><path d="M24.961 14.275v-1.543a1.343 1.343 0 00-1.342-1.342H10.625a1.342 1.342 0 00-1.343 1.342v.386a.185.185 0 00-.185-.185h-.386a.185.185 0 00-.185.185v.756a.185.185 0 00.185.185h.386a.185.185 0 00.185-.185v.386a1.343 1.343 0 001.343 1.342h12.994a1.343 1.343 0 001.342-1.327zm-15.864-.57h-.185v-.386h.185a.185.185 0 00.185-.186v.757a.185.185 0 00-.185-.186zm.571.57v-1.543a.957.957 0 01.957-.957h12.994a.957.957 0 01.957.957v1.543a.957.957 0 01-.957.957H10.625a.957.957 0 01-.957-.957z" fill="#fff"/><path d="M26.86 13.118a.185.185 0 00-.186-.185h-1.142a.193.193 0 000 .386h.957v3.888l-9.367 4.152v1.543a.193.193 0 00.385 0v-1.404l9.43-4.152v-4.228h-.078z" fill="#fff"/><path d="M26.103 13.89a.186.186 0 00-.185-.186h-.386a.193.193 0 100 .386h.185v2.747l-9.429 4.151v2.068a.193.193 0 00.386 0v-1.852l9.429-4.15V13.89zm-8.596 9.737h-1.543a.185.185 0 00-.185.185v4.97a.957.957 0 001.913 0v-4.955a.184.184 0 00-.11-.185.185.185 0 00-.075-.015zm-.185 5.154a.57.57 0 01-1.142 0v-4.768h1.142v4.768zM12.26 11.019a.185.185 0 00.186-.185v-2.1a.386.386 0 01.756 0 .186.186 0 00.108.155h.17a.17.17 0 00.092-.123v-2.7a.386.386 0 01.757 0v4.197a.184.184 0 000 .139.185.185 0 00.138 0c.04.014.084.014.124 0a.185.185 0 000-.14.386.386 0 01.756 0 .185.185 0 00.185.186.185.185 0 00.14-.17V9.136a.386.386 0 01.755 0 .185.185 0 00.155.17.185.185 0 00.17-.185V7.979a.386.386 0 11.771 0v2.67a.216.216 0 00.185.185h.093a.186.186 0 00.108-.155.386.386 0 01.756 0 .185.185 0 00.185.185.2.2 0 00.185-.185V8.35a.386.386 0 01.772 0v1.543a.193.193 0 10.386 0V8.35a.772.772 0 00-1.544 0V10a.68.68 0 00-.756 0V7.963a.772.772 0 00-1.543 0v.494a.741.741 0 00-.386-.123.772.772 0 00-.771.756v.494a.68.68 0 00-.756 0v-3.55a.772.772 0 00-1.544 0v2.053a.741.741 0 00-.385-.124.772.772 0 00-.757.756v2.1a.274.274 0 10.51.2zm11.544 1.342a.185.185 0 00-.185-.185H10.625a.193.193 0 000 .386h12.994a.184.184 0 00.175-.125.186.186 0 00.01-.076z" fill="#fff"/></svg>