<svg width="35" height="36" fill="none" xmlns="http://www.w3.org/2000/svg"><path fill="#80C41C" d="M0 .883h35v35H0z"/><path fill-rule="evenodd" clip-rule="evenodd" d="M6.475 14.71a.261.261 0 01-.132.03l-.17-.123a.262.262 0 01.015-.309c2.686-4.305 4.784-5.277 4.877-5.277a.617.617 0 01.51 0c.292.154.416.555.555 1.049a3.333 3.333 0 001.867 2.485c1.477.563 3.05.83 4.63.787a.278.278 0 01.262.367.265.265 0 01-.247.173 12.609 12.609 0 01-4.923-.818 3.828 3.828 0 01-2.207-2.793l-.048-.158c-.08-.269-.17-.568-.26-.568 0 0-2.053.926-4.63 5.062a.262.262 0 01-.099.093zm23.016 10.494h.092c.016.015-.092.293-.092.293v1.142a.233.233 0 010 .093 20.186 20.186 0 01-6.281 1.08 14.793 14.793 0 01-2.408-.185c-4.305-.695-12.731-7.963-15.293-11.328a.324.324 0 010-.2l.525-1.111h.478c1.636 2.592 10.37 10.463 14.599 11.157 2.783.349 5.608.026 8.24-.941h.14zM5.957 15.96c2.623 3.287 10.71 10.324 14.86 11.003 2.779.367 5.605.088 8.257-.818v-.555c-1.915.649-3.92.992-5.942 1.018a13.622 13.622 0 01-2.222-.17c-4.166-.678-12.515-8.07-14.69-11.018l-.262.54zm7.67-2.608a4.059 4.059 0 01-2.346-3.01v-.138a.268.268 0 00-.228-.188.267.267 0 00-.291.239c-.004.035 0 .07.01.103v.14a4.63 4.63 0 002.654 3.348c1.32.517 2.719.81 4.136.864a.27.27 0 000-.54 12.145 12.145 0 01-3.935-.818zm5.663.74a13.32 13.32 0 01-.37-1.744l.123.062v-.077a.244.244 0 010-.092h1.759a.262.262 0 01.263.262 17.53 17.53 0 001.543 6.836.263.263 0 01-.108.34l.448.54a7.886 7.886 0 004.027 1.96c.732.132 1.43.41 2.053.818a2.345 2.345 0 01.555 1.836.263.263 0 01-.262.232.278.278 0 01-.231-.31 1.821 1.821 0 00-.402-1.372 6.17 6.17 0 00-1.805-.68 8.241 8.241 0 01-4.29-2.145c-.366-.41-.706-.843-1.019-1.296l-.833.432h-.124a.263.263 0 01-.123-.509l.787-.401-.37-.602-.85.432h-.123a.262.262 0 01-.123-.51l.833-.431-.308-.633-.895.447h-.124a.263.263 0 01-.123-.509l.91-.463-.262-.648-.895.463h-.124a.262.262 0 01-.123-.51l.957-.493a3.207 3.207 0 00-.086-.22c-.066-.157-.13-.312-.13-.46l-.942.48h-.123a.263.263 0 01-.124-.51l1.034-.525zm.155-1.497a16.683 16.683 0 002.16 5.664 18.518 18.518 0 01-1.127-5.664h-1.034z" fill="#fff"/></svg>