<svg width="55" height="66" fill="none" xmlns="http://www.w3.org/2000/svg"><path fill-rule="evenodd" clip-rule="evenodd" d="M54.548 0H.004v54.544h20.658L27.276 66l6.614-11.456h20.658V0z" fill="#467637"/><path fill-rule="evenodd" clip-rule="evenodd" d="M8.5 29.482c.459-.418 1.001-.793 1.586-1.002.835-.293 1.711-.418 2.588-.543.543-.042 1.086 0 1.587.125.626.167.71.752.167 1.128-.334.25-.752.375-1.128.5-1.21.376-2.463.71-3.715 1.044l-.668.167c-.167-.125-.585-.25-.668-.5-.042-.293.042-.752.25-.92zm4.049-14.656c.084-.209.376-.334.626-.543.835.334 1.628.585 2.296 1.002.752.418 1.42.96 2.088 1.504.375.292.5.668.167 1.085-.334.418-.668.25-1.086.042-1.043-.543-2.087-1.044-3.13-1.628-.335-.168-.669-.46-.92-.752-.124-.125-.124-.46-.041-.71zm4.509-6.18c-.835 0-1.17.418-1.002 1.086.041.084.041.25.083.334.919 1.42 1.837 2.881 2.797 4.26.126.166.668.25.919.124.376-.125.5-.542.376-.918-.585-1.712-1.378-3.34-2.756-4.635-.083-.125-.334-.209-.417-.25zM15.68 33.282c-.918 1.002-1.879 2.004-3.173 2.505-.543.209-1.002-.167-1.002-.877.084-.125.167-.418.334-.543a53.27 53.27 0 013.006-1.962c.167-.084.585.041.752.208.125.126.167.585.083.669zm13.234 10.271c-.292-1.17-.584-2.338-.793-3.507-.042-.21.25-.543.46-.668.166-.084.584.041.667.167.584 1.21 1.21 2.463 1.21 3.841 0 .585-.5.919-1.168.626-.084-.083-.334-.25-.376-.459zm-5.845.25c.126-.71.334-1.42.585-2.087.292-.835.626-1.67 1.044-2.464.083-.208.459-.459.668-.417.25.042.417.376.542.5-.209 1.755-.417 3.3-1.169 4.72-.083.166-.208.417-.375.458-.334.084-.71.21-1.002.084-.21-.042-.334-.543-.293-.793zm-.208-24.259c-.293.501-.585 1.002-1.17 1.128-.75.167-1.544.25-2.337.417-1.253.293-2.505.543-3.674.919-.835.25-.918.835-.376 1.503.627.71 1.253 1.42 1.92 2.046.877.835 1.796 1.545 2.673 2.38.208.167.375.543.334.752-.084.835-.293 1.628-.418 2.463-.209 1.294-.417 2.589-.584 3.55-.042 1.544.334 1.878 1.377 1.46a129.264 129.264 0 005.47-2.505c.5-.25.876-.292 1.335-.041.334.166.626.334.96.5l5.511 2.631a.848.848 0 001.21-.877 160.548 160.548 0 00-1.001-6.221c-.084-.418-.042-.668.209-1.002.793-.96 1.586-1.92 2.337-2.923a41.72 41.72 0 001.88-2.84c.333-.542.208-.96-.251-1.085-1.837-.501-3.633-1.085-5.511-1.42-.919-.167-1.587-.375-2.004-1.252a.874.874 0 00-.167-.25c-1.127-1.546-2.213-3.09-3.382-4.594-.459-.626-.96-.542-1.377.126a227.682 227.682 0 00-2.964 5.135zm10.395-4.718c.46-1.253.835-2.547 1.336-3.8.167-.417.626-.793 1.002-1.085.125-.125.459-.125.626-.042.209.125.334.418.5.626-.25.543-.458 1.044-.667 1.504-.501 1.127-.96 2.254-1.461 3.34-.167.376-.418.793-.877.585-.5-.21-.626-.585-.46-1.128zm3.966 1.712c.25-.418.584-.835.96-1.17a9.906 9.906 0 011.628-1.335c.25-.167.71-.209.96-.042.376.209.334.626.042.919-.751.835-1.544 1.628-2.296 2.421-.125.126-.376.167-.543.25-.668 0-1.043-.542-.751-1.043zm5.886 19.541c-.292.334-.626.501-1.043.209-.668-.418-1.336-.793-2.004-1.253-.25-.167-.501-.417-.627-.71-.125-.208-.125-.584-.041-.793.083-.209.417-.334.626-.46.292.126.543.168.751.335.752.543 1.503 1.085 2.213 1.67.334.25.46.626.125 1.002zm3.131-5.345c-.208.46-.626.501-1.085.334-1.545-.542-3.131-1.043-4.676-1.544-.334-.126-.71-.334-.543-.752.126-.292.502-.501.627-.626 1.962.292 3.632.71 5.176 1.503.46.25.71.584.501 1.085z" fill="#fff"/></svg>