<svg width="38" height="35" viewBox="0 0 38 35" fill="none" xmlns="http://www.w3.org/2000/svg">
<path d="M15.0687 4.08933C11.82 0.842331 5.46278 0.46582 0.962933 0.46582C0.496905 0.46582 0.118652 0.843993 0.118652 1.31002C0.118652 5.80987 0.493501 12.1671 3.74216 15.4158C5.11326 16.7869 7.21545 17.3999 9.29904 17.3999C11.5633 17.3999 13.8074 16.6755 15.0687 15.4142C17.4883 12.9945 17.9324 6.95135 15.0687 4.08933ZM13.875 14.222C12.0682 16.027 7.05169 16.336 4.93771 14.222C2.31543 11.5998 1.86119 6.27257 1.8122 2.15937C5.92541 2.20836 11.2527 2.66252 13.8749 5.2848C15.9889 7.39878 15.6799 12.4171 13.875 14.222Z" fill="black"/>
<path d="M36.4602 3.80566C31.9603 3.80566 25.6031 4.18051 22.3544 7.42918C19.4907 10.2912 19.9347 16.3344 22.3544 18.754C23.6157 20.0137 25.858 20.738 28.1223 20.738C30.2059 20.738 32.3065 20.1268 33.6809 18.7558C36.9279 15.5071 37.3044 9.14987 37.3044 4.64994C37.3045 4.18392 36.9262 3.80566 36.4602 3.80566ZM32.4838 17.5602C30.3698 19.6742 25.3515 19.3652 23.5465 17.5602C21.7415 15.7552 21.4325 10.737 23.5465 8.62298C26.1688 6.0007 31.496 5.54654 35.6092 5.49755C35.5603 9.61242 35.106 14.9397 32.4838 17.5602Z" fill="black"/>
<path d="M30.363 11.1137C30.1638 10.6898 29.5931 10.5447 29.1726 10.7405C22.6972 13.7848 19.5161 19.0935 18.0707 24.5507C16.2825 12.9473 11.1106 9.40989 8.91728 7.90884C8.64374 7.72141 8.43099 7.58464 8.31282 7.46814C7.98356 7.13888 7.44827 7.13888 7.11901 7.46814C6.78976 7.79739 6.78976 8.33268 7.11901 8.66194C7.28618 8.82744 7.57491 9.03512 7.96496 9.30186C10.4369 10.9921 17.0035 15.4852 17.0035 33.3918C17.0035 33.8579 17.3818 34.2361 17.8478 34.2361C18.3138 34.2361 18.6921 33.8579 18.6921 33.3936C18.6921 26.1583 20.6356 16.62 29.8919 12.2703C29.8919 12.2687 30.0287 12.2045 30.0287 12.2045C30.4492 12.0052 30.5623 11.5358 30.363 11.1137Z" fill="black"/>
</svg>
