<svg width="45" height="45" viewBox="0 0 45 45" fill="none" xmlns="http://www.w3.org/2000/svg">
<path d="M16.3128 15.1755C16.3128 12.7362 14.3354 10.7588 11.8962 10.7588C9.45691 10.7588 7.47949 12.7362 7.47949 15.1755C7.47949 17.6147 9.45691 19.5921 11.8962 19.5921C14.3344 19.5897 16.3104 17.6137 16.3128 15.1755ZM8.95172 15.1755C8.95172 13.5493 10.27 12.231 11.8962 12.231C13.5223 12.231 14.8406 13.5493 14.8406 15.1755C14.8406 16.8016 13.5223 18.1199 11.8962 18.1199C11.1153 18.1199 10.3663 17.8097 9.81413 17.2575C9.26194 16.7053 8.95172 15.9564 8.95172 15.1755Z" fill="black"/>
<path d="M1.1246 43.9986C1.40075 44.3885 1.84891 44.6201 2.32668 44.6199H3.88724C4.51496 44.62 5.07428 44.2236 5.28217 43.6313L9.6878 30.909V39.4671C9.6878 40.2802 10.3469 40.9393 11.16 40.9393H12.6323C13.4453 40.9393 14.1045 40.2802 14.1045 39.4671V30.909L18.5108 43.6342C18.7195 44.2246 19.2774 44.6195 19.9036 44.6199H21.4656C21.9417 44.6189 22.3879 44.3878 22.6634 43.9995C22.9389 43.6112 23.0096 43.1137 22.8532 42.664L16.9017 25.481H17.785C19.0047 25.481 19.9934 24.4922 19.9934 23.2726V9.28648C19.9895 8.35398 19.4003 7.52441 18.5212 7.21358V4.8698C18.5187 2.43155 16.5427 0.45556 14.1045 0.453125H9.6878C7.24955 0.45556 5.27356 2.43155 5.27113 4.8698V7.21358C4.39195 7.52441 3.80277 8.35398 3.7989 9.28648V23.2726C3.7989 24.4922 4.78761 25.481 6.00724 25.481H6.89057L0.939104 42.6589C0.78001 43.1091 0.849161 43.6085 1.1246 43.9986ZM11.16 39.4671V25.481H12.6323V39.4671H11.16ZM21.4656 43.1477H19.9014L14.1045 26.4099V25.481H15.3478L21.4656 43.1477ZM9.6878 1.92535H14.1045C15.7307 1.92535 17.0489 3.24363 17.0489 4.8698V7.07814H15.5767V4.8698C15.5767 4.05671 14.9176 3.39758 14.1045 3.39758H9.6878C8.87471 3.39758 8.21558 4.05671 8.21558 4.8698V7.07814H6.74335V4.8698C6.74335 3.24363 8.06163 1.92535 9.6878 1.92535ZM14.1045 7.07814H9.6878V4.8698H14.1045V7.07814ZM5.27113 23.2726V22.5365H8.95169C9.35823 22.5365 9.6878 22.2069 9.6878 21.8004C9.6878 21.3938 9.35823 21.0643 8.95169 21.0643H5.27113V9.28648C5.27113 8.87993 5.6007 8.55036 6.00724 8.55036H17.785C18.1916 8.55036 18.5212 8.87993 18.5212 9.28648V21.0643H14.8406C14.434 21.0643 14.1045 21.3938 14.1045 21.8004C14.1045 22.2069 14.434 22.5365 14.8406 22.5365H18.5212V23.2726C18.5212 23.6792 18.1916 24.0087 17.785 24.0087H6.00724C5.6007 24.0087 5.27113 23.6792 5.27113 23.2726ZM8.44524 25.481H9.6878V26.4099L3.88576 43.1477H2.32668L8.44524 25.481Z" fill="black"/>
<path d="M21.4651 18.8558C21.4651 19.2623 21.7947 19.5919 22.2012 19.5919H30.6827C30.9229 19.8827 31.0231 20.2644 30.9566 20.6357C30.813 21.0776 30.451 21.4138 29.9996 21.5242C29.4842 21.6852 28.9577 21.8082 28.4243 21.8922C27.6304 22.0055 26.8534 22.2159 26.1107 22.5187C25.1638 22.89 24.4924 23.7454 24.3566 24.7535C24.2775 25.8121 24.7763 26.8308 25.661 27.4175C27.2215 28.5747 29.0773 28.5592 30.8874 28.5548C31.8238 28.5095 32.7624 28.572 33.6846 28.741C35.6478 29.2004 37.533 30.6336 37.6692 32.8419H22.0467C21.6401 32.8419 21.3105 33.1715 21.3105 33.578C21.3105 33.9846 21.6401 34.3141 22.0467 34.3141H41.2533L43.0936 37.9947H23.8281C23.4215 37.9947 23.0919 38.3243 23.0919 38.7308C23.0919 39.1374 23.4215 39.4669 23.8281 39.4669H41.2533L43.0936 43.1475H25.0647C24.6582 43.1475 24.3286 43.4771 24.3286 43.8836C24.3286 44.2901 24.6582 44.6197 25.0647 44.6197H43.0936C43.605 44.6205 44.0802 44.3557 44.3487 43.9204C44.6173 43.4852 44.6406 42.9417 44.4105 42.485L42.8993 39.4669H43.0936C43.605 39.4677 44.0802 39.2029 44.3487 38.7677C44.6173 38.3324 44.6406 37.7889 44.4105 37.3322L42.8993 34.3141H43.0936C43.605 34.3149 44.0802 34.0502 44.3487 33.6149C44.6173 33.1796 44.6406 32.6361 44.4105 32.1794L37.7855 18.9294C37.5367 18.4306 37.026 18.1166 36.4686 18.1197H22.2012C21.7947 18.1197 21.4651 18.4492 21.4651 18.8558ZM43.0936 32.8419H39.1392C39.006 30.2213 37.0045 28.0056 34.0166 27.3071C32.9829 27.1118 31.9301 27.0377 30.8793 27.0862C29.2481 27.0929 27.7066 27.1039 26.5362 26.2382C26.077 25.9566 25.8024 25.4518 25.8156 24.9132C25.9037 24.427 26.246 24.0254 26.7121 23.8613C27.3476 23.6093 28.0109 23.4341 28.6879 23.3394C29.2919 23.244 29.8881 23.104 30.4715 22.9206C31.401 22.6523 32.1252 21.9216 32.3854 20.9898C32.4967 20.5272 32.4761 20.0426 32.3257 19.5911H36.4678L43.0936 32.8419Z" fill="black"/>
</svg>
