<svg width="50" height="38" viewBox="0 0 50 38" fill="none" xmlns="http://www.w3.org/2000/svg">
<path d="M28.3246 17.3998C28.3813 17.7972 28.7216 18.0926 29.1233 18.0926C29.1619 18.0926 29.2005 18.0898 29.2387 18.0847C29.6799 18.0213 29.9859 17.6124 29.9229 17.1717C29.0493 11.0591 22.3455 9.3151 22.0607 9.24421C21.6299 9.13945 21.1954 9.40215 21.0879 9.83184C20.98 10.2619 21.2395 10.6983 21.6685 10.809C21.7275 10.8236 27.6038 12.3498 28.3246 17.3998Z" fill="black"/>
<path d="M48.4823 18.8985C46.9707 18.8934 45.4788 19.2427 44.1267 19.919C43.6683 20.1316 43.1972 20.3168 42.7167 20.4731C42.4316 16.1821 40.4245 12.1884 37.1511 9.39911C30.074 3.43024 18.6955 3.79888 15.4112 4.04071V2.50822C15.4112 1.17187 14.3277 0.0883789 12.9913 0.0883789H9.76485C8.4285 0.0883789 7.34501 1.17187 7.34501 2.50822H0.89209V13.8008H7.34501C7.34501 15.1372 8.4285 16.2207 9.76485 16.2207H12.9913C14.3277 16.2207 15.4112 15.1372 15.4112 13.8008V12.236C19.0078 12.661 20.1224 15.956 20.3379 19.1502C19.2827 18.429 18.0271 18.0588 16.7495 18.0919C15.2032 18.071 13.7006 18.6059 12.5155 19.5988C11.6038 20.3916 10.4316 20.8205 9.22369 20.8024C8.03268 20.8355 6.85584 20.5357 5.82551 19.9375C4.56833 19.2266 3.14258 18.8674 1.6987 18.8985C1.25325 18.8985 0.89209 19.2597 0.89209 19.7051V24.5448C0.896816 24.5885 0.905481 24.6318 0.918084 24.674C0.905481 24.7161 0.896816 24.7594 0.89209 24.8032C0.89209 25.2486 1.25325 25.6098 1.6987 25.6098C2.90626 25.5917 4.07798 26.0198 4.98976 26.8122C6.17486 27.8059 7.67742 28.3408 9.22369 28.3199C10.77 28.3404 12.2725 27.8055 13.4584 26.8122C15.3603 25.2084 18.1414 25.2084 20.0437 26.8122C21.2296 27.8055 22.7325 28.3404 24.2792 28.3199C25.8857 28.3089 27.4481 27.7917 28.7435 26.8414C30.866 25.1982 33.831 25.1982 35.953 26.8414C38.6017 28.8138 42.2307 28.8138 44.8794 26.8414C45.9156 26.0521 47.1799 25.62 48.4823 25.6098C48.9278 25.6098 49.289 25.2486 49.289 24.8032C49.2842 24.7594 49.2756 24.7161 49.263 24.674C49.2756 24.6318 49.2842 24.5885 49.289 24.5448V19.7051C49.289 19.2597 48.9278 18.8985 48.4823 18.8985ZM2.50532 12.1876V4.12145H7.34501V12.1876H2.50532ZM13.7979 13.8008C13.7979 14.2463 13.4368 14.6074 12.9913 14.6074H9.76485C9.3194 14.6074 8.95824 14.2463 8.95824 13.8008V2.50822C8.95824 2.06277 9.3194 1.70161 9.76485 1.70161H12.9913C13.4368 1.70161 13.7979 2.06277 13.7979 2.50822V13.8008ZM15.4112 10.6114V5.66615C18.3253 5.44992 29.4824 5.04189 36.1106 10.6323C39.0929 13.1888 40.903 16.8512 41.1228 20.7732C40.9003 20.791 40.6687 20.8024 40.4162 20.8024C40.0432 20.8044 39.6706 20.7713 39.304 20.7031C37.6576 12.3822 31.2642 10.1581 30.9956 10.0671C30.5726 9.92608 30.1153 10.1553 29.9747 10.5783C29.8337 11.0017 30.0629 11.459 30.4859 11.5996C30.5407 11.6173 35.7081 13.4243 37.4769 19.9761C37.2575 19.8489 37.0405 19.7134 36.8172 19.5728C34.1677 17.6007 30.5379 17.6007 27.8889 19.5728C27.3371 19.9477 26.7447 20.2593 26.1228 20.5015C26.1165 18.7134 25.7372 16.9465 25.0098 15.3132C24.8113 14.9143 24.3268 14.752 23.9279 14.9505C23.5289 15.1494 23.3666 15.6338 23.5651 16.0328C24.2154 17.5338 24.5379 19.1561 24.5116 20.7917C24.4308 20.7917 24.3631 20.8016 24.2831 20.8016C23.4864 20.8268 22.6967 20.6405 21.9956 20.2608C21.9448 14.4704 19.5659 11.0017 15.4112 10.6114ZM44.0192 25.4759C41.8975 27.1171 38.9349 27.1171 36.8132 25.4759C34.1638 23.5034 30.534 23.5034 27.8845 25.4759C26.8471 26.2644 25.5821 26.696 24.2792 26.7067C23.0708 26.7248 21.8979 26.2967 20.9858 25.5038C18.5198 23.4948 14.9819 23.4948 12.5163 25.5038C11.6045 26.2971 10.4316 26.7252 9.22369 26.7067C8.01574 26.7248 6.84402 26.2967 5.93264 25.5038C4.95549 24.6952 3.76526 24.1868 2.50532 24.0399V20.5515C3.41788 20.6393 4.3009 20.9205 5.0961 21.3766C6.35367 22.0875 7.77943 22.4463 9.22369 22.4156C10.77 22.4361 12.2725 21.9016 13.4584 20.9087C15.36 19.3042 18.1414 19.3042 20.0429 20.9087C21.2292 21.9016 22.7321 22.4361 24.2792 22.4156C25.8857 22.4046 27.4485 21.8871 28.7435 20.9363C30.8668 19.2951 33.8302 19.2951 35.953 20.9363C37.2476 21.8878 38.8097 22.4054 40.4162 22.4156C41.9294 22.4215 43.4225 22.0718 44.7758 21.3951C45.6832 20.9391 46.6659 20.6515 47.6757 20.5464V24.0391C46.3559 24.2041 45.0987 24.6984 44.0192 25.4759Z" fill="black"/>
<path d="M48.4819 28.5783C46.8438 28.5972 45.2605 29.1707 43.9907 30.2053C42.99 31.0525 41.7265 31.5267 40.4157 31.5468C39.1132 31.537 37.849 31.1049 36.8127 30.316C34.1633 28.3436 30.5335 28.3436 27.884 30.316C26.8466 31.1045 25.5816 31.5362 24.2787 31.5468C23.0704 31.5649 21.8975 31.1368 20.9853 30.344C18.5194 28.3349 14.9814 28.3349 12.5158 30.344C11.6041 31.1372 10.4312 31.5653 9.22321 31.5468C8.00541 31.5555 6.83369 31.0848 5.96051 30.2361C4.80415 29.1585 3.27876 28.5653 1.69822 28.5783C1.25277 28.5783 0.891602 28.9395 0.891602 29.3849V34.2246C0.891602 34.6701 1.25277 35.0313 1.69822 35.0313C2.91562 35.023 4.08734 35.4936 4.96012 36.342C6.11687 37.4196 7.64227 38.0131 9.22321 37.9997C10.7695 38.0202 12.272 37.4854 13.4579 36.4921C15.3599 34.8883 18.1409 34.8883 20.0432 36.4921C21.2291 37.4854 22.732 38.0202 24.2787 37.9997C25.8852 37.9887 27.4477 37.4716 28.743 36.5212C30.8655 34.878 33.8305 34.878 35.9526 36.5212C37.2472 37.4724 38.8092 37.9899 40.4157 37.9997C42.0538 37.9808 43.6371 37.4074 44.9068 36.3727C45.9072 35.5251 47.1707 35.0513 48.4819 35.0313C48.9273 35.0313 49.2885 34.6701 49.2885 34.2246V29.3849C49.2885 28.9395 48.9273 28.5783 48.4819 28.5783ZM47.6752 33.4617C46.3271 33.6492 45.0545 34.1963 43.9907 35.045C42.99 35.8922 41.7265 36.3664 40.4157 36.3865C39.1132 36.3767 37.849 35.9446 36.8127 35.1557C34.1633 33.1833 30.5335 33.1833 27.884 35.1557C26.8466 35.9442 25.5816 36.3759 24.2787 36.3865C23.0704 36.4046 21.8975 35.9765 20.9853 35.1837C18.5194 33.1746 14.9814 33.1746 12.5158 35.1837C11.6041 35.9769 10.4312 36.405 9.22321 36.3865C8.00541 36.3952 6.83369 35.9245 5.96051 35.0758C5.00148 34.1959 3.7951 33.6327 2.50483 33.4625V30.2562C3.42448 30.431 4.2756 30.8627 4.96012 31.5007C6.11648 32.5791 7.64227 33.1727 9.22321 33.16C10.7695 33.1805 12.272 32.6457 13.4579 31.6524C15.3599 30.0486 18.1409 30.0486 20.0432 31.6524C21.2291 32.6457 22.732 33.1805 24.2787 33.16C25.8852 33.149 27.4477 32.6319 28.743 31.6815C30.8655 30.0384 33.8305 30.0384 35.9526 31.6815C37.2472 32.6327 38.8092 33.1502 40.4157 33.16C42.0538 33.1411 43.6371 32.5677 44.9068 31.533C45.7087 30.8812 46.6599 30.4393 47.6752 30.2475V33.4617Z" fill="black"/>
<path d="M4.92429 5.99316C4.47884 5.99316 4.11768 6.35433 4.11768 6.79978V10.0262C4.11768 10.4717 4.47884 10.8329 4.92429 10.8329C5.36974 10.8329 5.7309 10.4717 5.7309 10.0262V6.79978C5.7309 6.35433 5.36974 5.99316 4.92429 5.99316Z" fill="black"/>
</svg>
