<svg width="42" height="42" fill="none" xmlns="http://www.w3.org/2000/svg"><path fill-rule="evenodd" clip-rule="evenodd" d="M40.424 0H4.06c-.29 0-.579.29-.579.58 0 .291.29.582.58.582h36.363c.29 0 .58-.29.58-.581 0-.29-.29-.581-.58-.581zM1.308 37.603c0 .29-.29.436-.58.436s-.58-.145-.58-.436V1.016c0-.29.29-.58.58-.58s.58.29.58.58v36.587zM39.555 3.92c0-.29.29-.58.58-.58s.58.29.58.58v36.732c0 .29-.29.581-.58.581s-.58-.29-.58-.58V3.92zm-2.318 35.861H16.085v-.435c0-.29-.29-.581-.58-.436-.29 0-.58.29-.434.58v1.017c0 .29.29.436.58.436h21.586c.29 0 .58-.29.58-.581 0-.29-.29-.58-.58-.58zM6.523 30.054h.725c.29 0 .434.29.58.726 0 .29-.29.435-.58.435h-.58v9.147c0 .29-.29.58-.58.58H.584c-.29 0-.58-.29-.58-.58s.29-.58.58-.58h5.071v-9.148c0-.29.29-.58.58-.58h.289zm3.767.87a9.407 9.407 0 01-.724-.29c-.254-.108-.507-.217-.724-.29-.29-.145-.58.145-.725.436-.145.29.145.58.435.726l1.304.435h.29c.144 0 .434-.145.434-.29 0-.29-.145-.726-.29-.726zm1.956 1.09c.217.181.434.363.652.508.145.29.145.58.145.726-.145.145-.29.145-.435.145-.145 0-.29 0-.434-.145a7.617 7.617 0 01-.58-.436 7.889 7.889 0 00-.58-.435c-.29-.146-.29-.436-.144-.726.145-.29.434-.29.724-.145.217.145.435.326.652.508zm3.26 6.606c.29 0 .434-.29.434-.581-.145-.58-.29-1.016-.434-1.452-.145-.29-.435-.436-.725-.29-.29.145-.434.435-.29.726l.435 1.306s.145.29.58.29zm-1.594-4.937l.87 1.307c.144.29 0 .58-.29.871h-.29c-.145 0-.29-.145-.435-.29a3.163 3.163 0 00-.724-1.162c-.145-.29-.145-.58.145-.87.145-.146.58-.146.724.144zm6.085-23.375c0-.29.29-.58.58-.58s.58.145.58.435v9.873h15.936c.29 0 .579.29.579.58s-.29.581-.58.581H21.157v10.018c0 .29-.29.58-.58.58s-.579-.29-.579-.58V10.308z" fill="#D5C695"/></svg>