<svg width="41" height="42" fill="none" xmlns="http://www.w3.org/2000/svg"><path fill-rule="evenodd" clip-rule="evenodd" d="M3.912 1.452h36.364c.434 0 .724-.29.724-.726S40.71 0 40.276 0H3.912c-.435 0-.725.29-.725.726 0 .435.29.726.725.726zm36.364 1.597c-.435 0-.725.29-.725.726v36.732c0 .436.29.726.725.726.434 0 .724-.29.724-.726V3.775c0-.436-.29-.726-.724-.726zM1.595 37.314c0 .435-.29.726-.725.726-.434 0-.724-.29-.724-.726V.872c0-.436.29-.726.724-.726.435 0 .725.29.725.726v36.442zm35.783 2.177H16.516v-.145c0-.436-.435-.726-.724-.726-.435 0-.725.435-.725.726v1.016c0 .29.29.58.724.58h21.587c.435 0 .724-.29.724-.725 0-.436-.29-.726-.724-.726zM6.664 29.763h.725c.29 0 .724.29.58.871 0 .436-.29.726-.725.726h-.29v8.857c0 .435-.29.726-.724.726H.724c-.434 0-.724-.29-.724-.726s.29-.726.724-.726H5.65v-9.002c0-.435.29-.726.725-.726h.289zm6.375 2.468a7.957 7.957 0 01-.652-.508c-.217-.181-.435-.363-.652-.508-.21-.21-.494-.192-.746-.056-.054-.262-.216-.556-.558-.67a10.03 10.03 0 01-.724-.29 9.419 9.419 0 00-.725-.29c-.434-.146-.724.145-.87.58-.144.436.146.726.58.871l1.304.436h.29a.857.857 0 00.277-.046c.003.219.126.45.303.627.434.29.724.58 1.014.87.145.146.29.146.435.146.144 0 .434-.145.58-.29.579-.146.434-.581.144-.872zm2.607 6.389h-.144c-.29 0-.58-.29-.58-.581l-.435-1.307c-.144-.435 0-.87.435-.87.29-.146.724 0 .87.435.144.435.29.87.434 1.452 0 .435-.145.725-.58.87zm-.869-2.904c.29-.145.435-.58.29-1.016l-.869-1.307c-.29-.29-.724-.29-1.014-.145-.29.29-.29.726-.145 1.016.29.29.58.726.724 1.162.145.29.435.435.58.435.17 0 .24-.05.298-.09.041-.03.076-.055.136-.055z" fill="#D5C695"/></svg>