<svg width="111" height="111" viewBox="0 0 111 111" fill="none" xmlns="http://www.w3.org/2000/svg">
<circle cx="55.4941" cy="55.6687" r="34.4326" fill="white"/>
<path d="M55.4941 0.668457C25.1189 0.668457 0.494141 25.2928 0.494141 55.6685C0.494141 86.0441 25.1189 110.668 55.4941 110.668C85.8694 110.668 110.494 86.0441 110.494 55.6685C110.494 25.2928 85.8694 0.668457 55.4941 0.668457ZM74.5035 58.5839L47.0035 75.7714C46.4471 76.1188 45.8144 76.2935 45.1816 76.2935C44.6084 76.2935 44.0344 76.1508 43.5149 75.8621C42.4222 75.2562 41.7441 74.1063 41.7441 72.856V38.481C41.7441 37.2306 42.4222 36.0807 43.5149 35.4749C44.6076 34.8656 45.9437 34.9025 47.0035 35.5655L74.5035 52.753C75.5081 53.3825 76.1191 54.4836 76.1191 55.6685C76.1191 56.8533 75.5081 57.9546 74.5035 58.5839Z" fill="#284A2E"/>
</svg>
