<svg width="21" height="21" fill="none" xmlns="http://www.w3.org/2000/svg"><path fill-rule="evenodd" clip-rule="evenodd" d="M14.995.5H6.911A5.965 5.965 0 00.953 6.458v8.084A5.965 5.965 0 006.911 20.5h8.084a5.965 5.965 0 005.958-5.958V6.458A5.965 5.965 0 0014.995.5zm3.946 14.042a3.946 3.946 0 01-3.946 3.946H6.911a3.946 3.946 0 01-3.946-3.946V6.458a3.946 3.946 0 013.946-3.946h8.084a3.946 3.946 0 013.946 3.946v8.084zm-7.988-9.215A5.179 5.179 0 005.78 10.5a5.179 5.179 0 005.173 5.173 5.179 5.179 0 005.173-5.173 5.179 5.179 0 00-5.173-5.173zm0 8.334a3.16 3.16 0 110-6.322 3.16 3.16 0 010 6.322zm6.422-8.295a1.24 1.24 0 11-2.479 0 1.24 1.24 0 012.48 0z" fill="#CC289E"/></svg>