<svg width="21" height="23" fill="none" xmlns="http://www.w3.org/2000/svg"><path fill-rule="evenodd" clip-rule="evenodd" d="M20.684 13.236c.656-5.52-.315-9.005-2.066-10.58l.001-.002C15.793-.037 6.248-.436 2.866 2.775 1.348 4.345.813 6.651.754 9.505.696 12.36.626 17.707 5.61 19.158h.005l-.005 2.215s-.034.898.54 1.078c.617.2.916-.157 2.652-2.234l.34-.406c3.41.296 6.03-.382 6.327-.48.062-.021.149-.044.257-.073 1.102-.29 4.385-1.152 4.96-6.022zM9.477 18.252s-2.159 2.692-2.83 3.39c-.22.228-.46.207-.457-.244 0-.296.016-3.678.016-3.678-4.08-1.169-3.987-5.455-3.935-7.893l.005-.253c.046-2.383.482-4.335 1.768-5.65 2.966-2.78 11.335-2.159 13.467-.155 2.372 2.103 1.817 7.7 1.702 8.857-.011.114-.018.184-.018.204-.482 4.02-3.09 4.65-4.03 4.876-.103.025-.186.045-.244.064-.248.083-2.552.675-5.444.482zM10.67 4.448c-.352 0-.352.55 0 .554 2.736.02 4.989 1.928 5.014 5.425 0 .37.54.365.535-.004-.03-3.77-2.49-5.954-5.549-5.975zm4.134 5.412c-.004.37-.544.352-.535-.013.042-1.82-1.058-3.244-3.146-3.403-.352-.026-.316-.58.037-.554 2.408.18 3.69 1.892 3.644 3.97zm-1.112 2.351c-.453-.262-.913-.099-1.104.159l-.398.515c-.203.262-.581.228-.581.228-2.76-.73-3.499-3.62-3.499-3.62s-.033-.39.22-.6l.498-.412c.249-.198.406-.674.152-1.142a10.098 10.098 0 00-1.153-1.703 5.24 5.24 0 01-.211-.268c-.244-.305-.61-.374-.991-.168h-.008c-.793.464-1.66 1.331-1.382 2.224.082.163.176.389.29.661.542 1.3 1.534 3.675 3.826 5.55 1.304 1.072 3.366 2.171 4.242 2.425l.008.013c.863.287 1.702-.614 2.15-1.43v-.007c.198-.394.132-.768-.158-1.012-.515-.502-1.291-1.056-1.901-1.413zM12.89 9.39c-.046-.945-.472-1.404-1.353-1.456-.356-.02-.323-.575.03-.554 1.157.064 1.8.751 1.859 1.984.016.369-.52.395-.536.026z" fill="#8E24AA"/></svg>