<svg width="21" height="23" viewBox="0 0 21 23" fill="none" xmlns="http://www.w3.org/2000/svg">
<path fill-rule="evenodd" clip-rule="evenodd" d="M20.0836 13.5667C20.7394 8.04681 19.7686 4.56197 18.0175 2.98577L18.0184 2.98486C15.192 0.293148 5.64695 -0.105251 2.2656 3.10575C0.747104 4.67645 0.212242 6.98167 0.153627 9.83548C0.0950121 12.6902 0.0254068 18.0379 5.00859 19.4886H5.01317L5.00859 21.7041C5.00859 21.7041 4.97471 22.6016 5.54804 22.7821C6.16556 22.9822 6.46471 22.6243 8.20076 20.5474L8.54015 20.1416C11.9508 20.4375 14.5702 19.7597 14.8678 19.6608C14.9293 19.6402 15.0164 19.6173 15.1245 19.5889C16.2266 19.2994 19.5098 18.4368 20.0836 13.5667ZM8.87627 18.5829C8.87627 18.5829 6.71759 21.2746 6.04626 21.9734C5.82646 22.2005 5.58559 22.1794 5.58925 21.7288C5.58925 21.433 5.60573 18.0507 5.60573 18.0507C1.52607 16.8816 1.61815 12.5954 1.67053 10.1572C1.6724 10.0705 1.67421 9.98604 1.67578 9.90417C1.72158 7.52111 2.15753 5.56941 3.44339 4.25515C6.40986 1.47369 14.7781 2.09556 16.9102 4.09946C19.2827 6.20272 18.727 11.8002 18.6123 12.9562C18.601 13.0702 18.594 13.141 18.5944 13.161C18.112 17.1802 15.5038 17.81 14.5652 18.0366L14.5652 18.0367L14.565 18.0367C14.4613 18.0617 14.3779 18.0819 14.3201 18.1011C14.0719 18.1835 11.7685 18.7761 8.87627 18.5829ZM10.0705 4.77811C9.71794 4.77811 9.71794 5.32763 10.0705 5.33221C12.8062 5.35327 15.0592 7.26009 15.084 10.7578C15.084 11.1268 15.6243 11.1223 15.6197 10.7532H15.6188C15.5895 6.98442 13.1295 4.79918 10.0705 4.77811ZM14.2047 10.1908C14.2001 10.5599 13.6607 10.5425 13.6689 10.178C13.711 8.3582 12.6111 6.93313 10.5229 6.77468C10.1712 6.74904 10.2079 6.19495 10.5605 6.22059C12.9683 6.40101 14.2496 8.11275 14.2047 10.1908ZM13.0921 12.5418C12.6396 12.2799 12.179 12.4429 11.9885 12.7003L11.5901 13.2159C11.3877 13.4779 11.0094 13.4431 11.0094 13.4431C8.24901 12.7131 7.51082 9.8245 7.51082 9.8245C7.51082 9.8245 7.47694 9.43342 7.72971 9.22369L8.22794 8.81155C8.47706 8.61373 8.63458 8.13748 8.38089 7.66948C7.86987 6.74618 7.48537 6.27902 7.22781 5.96608C7.14378 5.86398 7.07326 5.7783 7.01626 5.69855C6.77264 5.39357 6.4063 5.32488 6.0253 5.53095H6.01706C5.22484 5.99437 4.35752 6.86169 4.63503 7.75465C4.71713 7.91791 4.81116 8.1431 4.92497 8.41566C5.46749 9.71495 6.45947 12.0906 8.75181 13.9651C10.0551 15.0376 12.1176 16.1366 12.9932 16.3903L13.0014 16.4031C13.8641 16.6907 14.7031 15.7895 15.1509 14.9735V14.967C15.3497 14.5723 15.2837 14.1986 14.9934 13.9541C14.4787 13.4522 13.702 12.8981 13.0921 12.5418ZM12.2906 9.72009C12.2448 8.77584 11.818 8.31608 10.9378 8.26479C10.5816 8.24373 10.6145 7.68963 10.9671 7.7107C12.1248 7.77481 12.7677 8.4617 12.8263 9.69445C12.8428 10.0635 12.307 10.0892 12.2906 9.72009Z" fill="#8E24AA"/>
</svg>
