<svg width="37" height="29" fill="none" xmlns="http://www.w3.org/2000/svg"><path fill-rule="evenodd" clip-rule="evenodd" d="M8.219 21.169a2.48 2.48 0 00-2.477 2.476 2.48 2.48 0 002.477 2.477 2.48 2.48 0 002.476-2.477A2.48 2.48 0 008.22 21.17zm0 3.854a1.38 1.38 0 01-1.378-1.378 1.378 1.378 0 012.755 0 1.38 1.38 0 01-1.377 1.378zm21.621-3.854a2.48 2.48 0 00-2.477 2.476 2.48 2.48 0 002.476 2.477 2.48 2.48 0 002.477-2.477 2.48 2.48 0 00-2.477-2.476zm0 3.854a1.38 1.38 0 01-1.378-1.378c0-.76.618-1.378 1.377-1.378.76 0 1.378.618 1.378 1.378a1.38 1.38 0 01-1.378 1.378zM32.9 4.47H11.948c-1.131 0-2.052.92-2.052 2.051V10.7c0 1.131.92 2.052 2.052 2.052H32.9c1.132 0 2.053-.92 2.053-2.052V6.52A2.055 2.055 0 0032.9 4.468zm-18.443 7.182h-2.509a.954.954 0 01-.953-.953V6.522c0-.526.428-.954.953-.954h2.509v6.084zm4.945 0h-3.846V5.568h3.846v6.084zm4.946 0H20.5V5.568h3.847v6.084zm9.505-.953a.953.953 0 01-.953.953h-2.508v-.719a.55.55 0 00-1.1 0v.72h-3.845V5.567h3.846v2.8a.55.55 0 001.099 0v-2.8H32.9c.527 0 .953.427.953.954v4.177z" fill="#467637"/><path d="M12.808 14.506H32.04a.55.55 0 010 1.1H12.808a.55.55 0 010-1.1zm19.232 2.308H18.793a.55.55 0 100 1.1H32.04a.55.55 0 000-1.1zm-19.232 0h3.787a.55.55 0 110 1.1h-3.787a.55.55 0 010-1.1zm-8.187.879H2.533a.55.55 0 100 1.1h2.088a.55.55 0 000-1.1zm29.397-1.227a.55.55 0 011.1 0v2.088a.55.55 0 01-1.1 0v-2.088z" fill="#467637"/><path fill-rule="evenodd" clip-rule="evenodd" d="M4.263 0h28.474A4.268 4.268 0 0137 4.263v19.382a.55.55 0 01-.55.55h-1.794a4.856 4.856 0 01-4.817 4.3 4.856 4.856 0 01-4.817-4.3H13.036a4.856 4.856 0 01-4.817 4.3 4.856 4.856 0 01-4.817-4.3H.55a.55.55 0 01-.55-.55V4.263A4.268 4.268 0 014.263 0zm0 1.099A3.168 3.168 0 001.1 4.263v.902h6.6V1.1H4.262zm3.435 5.165H1.1v8.908h4.725a1.877 1.877 0 001.874-1.874V6.264zM1.1 23.095h2.303a4.811 4.811 0 01.505-1.665H1.1v1.665zm3.37.55a3.754 3.754 0 003.75 3.75 3.755 3.755 0 003.75-3.75 3.754 3.754 0 00-3.75-3.75 3.754 3.754 0 00-3.75 3.75zm8.567-.55h11.986a4.81 4.81 0 01.506-1.665H12.53c.263.51.439 1.071.506 1.665zm13.053.55a3.754 3.754 0 003.75 3.75 3.755 3.755 0 003.75-3.75 3.755 3.755 0 00-3.75-3.75 3.754 3.754 0 00-3.75 3.75zm8.568-.55H35.9V21.43h-1.75a4.81 4.81 0 01.505 1.665zm-1.282-2.764H35.9V4.263A3.168 3.168 0 0032.736 1.1H8.797v12.199a2.976 2.976 0 01-2.973 2.973H1.1v4.06h3.585a4.836 4.836 0 017.07 0h14.55a4.836 4.836 0 017.07 0z" fill="#467637"/></svg>