<svg width="38" height="37" fill="none" xmlns="http://www.w3.org/2000/svg"><path d="M3.277 24.802a.55.55 0 00-.55.55v1.428a.55.55 0 001.1 0v-1.428a.55.55 0 00-.55-.55zm-.55 4.341a.55.55 0 111.1 0v1.429a.55.55 0 01-1.1 0v-1.429zm.55 3.242a.55.55 0 00-.55.55v1.428a.55.55 0 001.1 0v-1.428a.55.55 0 00-.55-.55zm18.907-20.479a.55.55 0 00-.549.55v1.648a.55.55 0 001.099 0v-1.649a.55.55 0 00-.55-.55zm-3.791.549a.55.55 0 111.1 0v1.649a.55.55 0 11-1.1 0v-1.649zm3.791-5.334a.55.55 0 00-.549.55v1.648a.55.55 0 001.099 0V7.671a.55.55 0 00-.55-.55zm-3.791.549a.55.55 0 011.1 0v1.65a.55.55 0 01-1.1 0V7.67zM15.7 2.337a.55.55 0 00-.549.55v1.648a.55.55 0 001.1 0V2.886a.55.55 0 00-.55-.55zm5.935.549a.55.55 0 011.099 0v1.649a.55.55 0 01-1.099 0V2.886zm-2.692-.549a.55.55 0 00-.55.55v1.648a.55.55 0 001.1 0V2.886a.55.55 0 00-.55-.55zm2.734 15.136a.553.553 0 01.214-.674c.425-.268.975.156.815.636a.553.553 0 01-.508.377.554.554 0 01-.52-.339zm-2.734-.76a.55.55 0 00-.55.55v1.648a.55.55 0 101.1 0v-1.648a.55.55 0 00-.55-.55zm-.55 14.974a.55.55 0 011.1 0v1.648a.55.55 0 01-1.1 0v-1.648zm.55-5.357a.55.55 0 00-.55.549v1.648a.55.55 0 001.1 0V26.88a.55.55 0 00-.55-.55zm-.55-4.259a.55.55 0 111.1 0v1.648a.55.55 0 11-1.1 0v-1.648zm15.857 8.736a.55.55 0 011.099 0v1.555a.55.55 0 01-1.099 0v-1.555z" fill="#467637"/><path fill-rule="evenodd" clip-rule="evenodd" d="M36.884 27.84h-3.62v-4.49a.55.55 0 00-1.1 0v12.436h-9.43V19.461h9.43v1.325a.55.55 0 001.1 0V18.91a.55.55 0 00-.55-.549h-7.508V.55a.55.55 0 00-.55-.55H13.229a.55.55 0 00-.55.55v8.22H5.57a.55.55 0 00-.55.55v13.51H.984a.55.55 0 00-.55.55v12.955c0 .304.247.55.55.55h35.9a.55.55 0 00.55-.55V28.39a.55.55 0 00-.55-.55zM5.021 35.786H1.533V23.929H5.02v11.857zm11.429 0H6.12v-3.039h10.33v3.039zm0-7.838h-4.953a.55.55 0 000 1.1h4.953v2.6H6.12v-2.6h2.813a.55.55 0 000-1.1H6.12v-2.6h10.33v2.6zm0-3.7H6.12v-2.6h10.33v2.6zm0-3.7H6.12v-2.6h10.33v2.6zm0-3.699H6.12v-2.6h10.33v2.6zm0-3.7H6.12V9.87h10.33v3.28zm5.185 5.763v16.874h-4.086V9.32a.55.55 0 00-.55-.55h-.749V7.672a.55.55 0 00-1.099 0V8.77h-1.374V1.099h10.33v17.263h-1.923a.55.55 0 00-.55.55zm14.7 16.874h-3.071v-6.847h3.07v6.847z" fill="#467637"/><path d="M30.489 30.97h-6.08a.55.55 0 000 1.1h6.08a.55.55 0 100-1.1zm-6.079 2.597h6.079a.55.55 0 110 1.1h-6.08a.55.55 0 010-1.1zm6.079-5.194h-6.08a.55.55 0 100 1.099h6.08a.55.55 0 000-1.1zM24.41 20.58h6.079a.55.55 0 110 1.1h-6.08a.55.55 0 010-1.1zm6.079 5.195h-6.08a.55.55 0 000 1.1h6.08a.55.55 0 000-1.1zm-6.079-2.597h6.079a.55.55 0 110 1.099h-6.08a.55.55 0 110-1.1zm8.778-12.591h-6.703a.55.55 0 000 1.099h6.703a.55.55 0 100-1.1zm-2.748 2.308h4.836a.55.55 0 010 1.098h-4.835a.55.55 0 110-1.098zM10.33 4.103H5.494a.55.55 0 000 1.099h4.836a.55.55 0 000-1.099zM2.747 5.935h4.835a.55.55 0 110 1.099H2.747a.55.55 0 010-1.1z" fill="#467637"/></svg>