<svg width="35" height="35" fill="none" xmlns="http://www.w3.org/2000/svg"><path fill="#12234C" d="M0 0h35v35H0z"/><path d="M28.426 14.922v-.138l-3.503-2.732V9.228a1.096 1.096 0 00-1.096-1.096h-4.09l-1.543-1.234a1.08 1.08 0 00-1.327 0l-1.543 1.234h-4.028A1.095 1.095 0 0010.2 9.228v2.824l-3.503 2.732v12.484c0 .234.076.461.216.648a1.08 1.08 0 00.803.54h19.63a1.096 1.096 0 00.864-.432 1.08 1.08 0 00.216-.648V14.923zM17.268 7.361a.355.355 0 01.432 0l.85.648h-2.115l.833-.648zM7.716 27.7l9.537-7.408a.355.355 0 01.432 0l9.537 7.407H7.716zm20.061-.572l-9.537-7.407a1.08 1.08 0 00-1.327 0l-9.537 7.407V15.493l5.972 4.63a.37.37 0 10.448-.57l-6.08-4.708 2.561-1.99v2.824a.37.37 0 00.363.445.37.37 0 00.363-.445V9.12a.37.37 0 01.37-.37H23.72a.37.37 0 01.37.37v6.559a.37.37 0 10.726 0v-2.824l2.561 1.99-6.08 4.722a.37.37 0 10.448.572l5.987-4.63.046 11.62z" fill="#fff"/></svg>