<svg width="36" height="35" fill="none" xmlns="http://www.w3.org/2000/svg"><path fill="#0C2670" d="M.192 0h35v35h-35z"/><path fill-rule="evenodd" clip-rule="evenodd" d="M26.89 14.384h-.185V9.152a1.543 1.543 0 00-1.543-1.543h-.664v-.185a.309.309 0 00-.308-.309h-.895a.787.787 0 100 1.543h.818a.308.308 0 00.308-.308v-.186h.664a1.003 1.003 0 011.003 1.004v5.231h-.185a.308.308 0 00-.309.309v.493a2.47 2.47 0 01-2.454 2.454h-3.904a2.47 2.47 0 01-2.454-2.454v-.493a.307.307 0 00-.308-.309h-.186V9.168a1.003 1.003 0 011.004-1.004h.663v.186a.309.309 0 00.309.308h.818a.787.787 0 000-1.543h-.818a.309.309 0 00-.309.309v.185h-.663a1.543 1.543 0 00-1.544 1.543v5.232h-.185a.309.309 0 00-.308.308v.494a4.043 4.043 0 004.043 4.043h1.157v1.543a.309.309 0 00.309.31h.185v1.65a4.63 4.63 0 01-4.63 4.63h-.648a4.63 4.63 0 01-4.63-4.63V20.31a.308.308 0 10-.617 0v2.422a5.185 5.185 0 005.232 5.047h.648a5.185 5.185 0 005.185-5.186v-1.65h.262a.309.309 0 00.31-.31V19.09h1.157a4.058 4.058 0 004.043-4.043v-.494a.309.309 0 00-.37-.17zM23.804 8.04h-.51a.185.185 0 010-.37h.51v.37zm-5.247-.37h.51a.185.185 0 010 .37h-.51v-.37zm8.01 7.5a3.44 3.44 0 01-3.442 3.441h-1.373a.309.309 0 00-.31.309v1.543h-.37V18.92a.309.309 0 00-.308-.309h-1.466a3.44 3.44 0 01-3.442-3.441v-.186h.37v.186a3.087 3.087 0 003.087 3.086h3.827a3.087 3.087 0 003.087-3.086v-.186h.37l-.03.186zM10.56 18.983a.309.309 0 01-.09-.218v-1.99a2.577 2.577 0 11.617 0v1.99a.309.309 0 01-.527.218zm-1.424-5.945a1.976 1.976 0 00-.333 1.098v.077a1.975 1.975 0 10.333-1.175zm2.707.464a1.281 1.281 0 11-2.13 1.423 1.281 1.281 0 012.13-1.423zm-1.632.343a.664.664 0 00-.112.368h.016a.678.678 0 00.648.664.664.664 0 10-.552-1.032zm10.953 2.606c-1.56 0-2.5-.74-2.5-2.006a2.5 2.5 0 115 0c0 1.25-.942 2.006-2.5 2.006zm1.332-3.342a1.898 1.898 0 00-1.332-.562l.03.016a1.9 1.9 0 00-1.929 1.882c0 1.22 1.204 1.405 1.899 1.405.694 0 1.882-.186 1.882-1.405 0-.5-.198-.98-.55-1.336zm-3.554-2.306a1.034 1.034 0 102.068 0c0-.51-.417-1.281-1.034-1.281s-1.034.756-1.034 1.28zm1.034-.664c.185 0 .432.386.432.664a.432.432 0 01-.849 0c-.015-.293.232-.68.417-.68v.016zm2.833 1.604a1.035 1.035 0 01-1.43-.955c0-.51.417-1.281 1.034-1.281.618 0 1.034.771 1.034 1.28a1.035 1.035 0 01-.638.956zm.036-.97c0-.278-.247-.664-.432-.664v.015c-.185 0-.432.386-.416.648a.432.432 0 00.848 0zm1.513 2.514a1.035 1.035 0 001.034-1.034c0-.509-.417-1.28-1.034-1.28s-1.034.771-1.034 1.28a1.033 1.033 0 001.034 1.034zm0-1.713c.185 0 .432.386.432.664a.431.431 0 11-.849 0c0-.278.232-.648.417-.648v-.015zm-7.376.68c0-.51.417-1.281 1.034-1.281.648 0 1.05.771 1.034 1.28a1.034 1.034 0 01-2.068 0zm.729.305a.432.432 0 00.737-.305c0-.278-.247-.664-.432-.664s-.432.37-.432.664c0 .114.046.224.127.305z" fill="#fff"/></svg>