<svg width="35" height="35" fill="none" xmlns="http://www.w3.org/2000/svg"><path fill="#1C191B" d="M0 0h35v35H0z"/><path fill-rule="evenodd" clip-rule="evenodd" d="M19.059 9.537a5.34 5.34 0 014.166-2.623l-1.62 2.9-.586.417a.17.17 0 00.108.31h.092l.587-.418.941.896a.17.17 0 00.123 0 .17.17 0 00.164-.104.17.17 0 00-.04-.19l-.988-.941 1.713-3.086a.17.17 0 000-.17.17.17 0 00-.139-.093 5.401 5.401 0 00-4.753 2.778.17.17 0 00.278.185l-.046.139zm-1.49 4.906a.17.17 0 01-.069-.015v-.123a.168.168 0 01-.04-.19.169.169 0 01.04-.057c.09-.11.167-.229.232-.355a9.383 9.383 0 00.339-3.38 2.41 2.41 0 010-.818h.123l3.874 1.837h2.5l2.315-3.488a.17.17 0 01.139 0 .185.185 0 01.139 0 5.771 5.771 0 010 7.068 5.725 5.725 0 01-4.213 1.914 3.38 3.38 0 00-2.038.663l-1.358 1.39a.17.17 0 01-.123 0 .17.17 0 01-.123 0 .17.17 0 010-.248l1.358-1.404a3.611 3.611 0 012.237-.772 5.37 5.37 0 003.982-1.65 5.292 5.292 0 00.987-4.63 5.848 5.848 0 00-.833-1.822L24.8 11.728a.17.17 0 01-.139 0h-2.7l-3.688-1.744v.494a9.645 9.645 0 01-.37 3.534 2.372 2.372 0 01-.263.416.17.17 0 01-.07.015zm-.115 6.19l-3.658 3.811-2.855 2.979a2.286 2.286 0 11-3.225-3.241l1.127-1.065c1.049-.988 2.654-2.5 4.213-4.012a.167.167 0 00.053-.124.17.17 0 00-.053-.123.168.168 0 00-.191-.04.169.169 0 00-.056.04c-1.544 1.543-3.087 3.086-4.213 4.012l-1.127 1.08a2.623 2.623 0 003.704 3.704l2.87-2.994 3.658-3.811a.17.17 0 000-.247.17.17 0 00-.247.03zm-9.09 4.213a1.373 1.373 0 001.93 1.928 1.373 1.373 0 000-1.928 1.404 1.404 0 00-1.93 0zm1.698 1.697a1.05 1.05 0 01-1.45 0 1.019 1.019 0 111.45 0zm1.373-.818a.17.17 0 01-.123 0 .222.222 0 01-.232-.336.22.22 0 01.14-.096 1.359 1.359 0 00-.448-1.296 1.296 1.296 0 00-1.266-.432h-.092l3.92-4.028a.174.174 0 11.247.247l-3.766 3.688a1.79 1.79 0 011.111.556c.318.296.52.695.571 1.126l3.704-3.858a.169.169 0 01.249-.018.172.172 0 01.053.126.17.17 0 01-.055.124l-4.013 4.197zm2.932-6.666a.17.17 0 00.124 0l1.203-.247a.169.169 0 00.14-.2.17.17 0 00-.201-.14l-1.111.232-7.439-7.716a.51.51 0 01-.154-.37.51.51 0 01.154-.356L9.26 8.086a.51.51 0 01.725 0l7.439 7.716-.216 1.127a.17.17 0 10.34 0l.246-1.204a.17.17 0 000-.154l-7.5-7.855a.849.849 0 00-1.204 0L6.913 9.892a.864.864 0 000 1.204l7.454 7.963zm.983-2.194a.679.679 0 01-.381.11.68.68 0 01-.478-.201l-5.818-6.173a.679.679 0 01.486-1.155c.182 0 .356.071.486.198l5.818 6.173a.68.68 0 01-.113 1.049zM8.896 9.899a.34.34 0 00-.1.24h.016a.355.355 0 00.077.232l5.818 6.173a.355.355 0 00.478 0 .34.34 0 000-.479L9.367 9.891a.34.34 0 00-.471.007zm5.1 8.11c.04.015.084.015.124 0a.17.17 0 00.124 0 .68.68 0 00.149-.737.662.662 0 00-.15-.219L8.426 10.88a.694.694 0 00-.972 0 .174.174 0 00.123.298.174.174 0 00.124-.05.355.355 0 01.478 0l5.818 6.172a.34.34 0 010 .478.17.17 0 000 .232zm2.655-2.438a.679.679 0 01-.748.144.68.68 0 01-.224-.159L9.86 9.382a.679.679 0 010-.957.17.17 0 01.247 0 .169.169 0 010 .247.34.34 0 000 .479l5.818 6.172a.34.34 0 00.478 0 .174.174 0 11.247.247zm-.478 5.231c.04.014.084.014.123 0l3.087-3.086a.17.17 0 000-.247l-.864-1.003a.17.17 0 00-.247 0l-3.087 3.086a.17.17 0 000 .247l.972.973a.17.17 0 00.016.03zm2.176-4.043l.725.725-2.901 2.902-.725-.726 2.9-2.9zm7.654 8.319l1.45 2.423a.162.162 0 11-.03.324l-.725.725a.17.17 0 01-.124 0h-.092l-2.423-1.45a.17.17 0 010-.078l-.463-1.404-5.772-5.432a.17.17 0 11.232-.247l5.802 5.463.463 1.389 2.253 1.342.54-.54-1.342-2.253-1.39-.463-5.802-5.463a.17.17 0 11.232-.247l5.771 5.432 1.42.479z" fill="#fff"/></svg>