<svg width="36" height="35" fill="none" xmlns="http://www.w3.org/2000/svg"><path fill="#78736F" d="M.193 0h35v35h-35z"/><path fill-rule="evenodd" clip-rule="evenodd" d="M33.511 19.599l.232.926a.216.216 0 01-.154.139H31.15a.232.232 0 010-.463h2.13l-.17-.648v-.17h-.957a.239.239 0 110-.478h1.12v.007a.24.24 0 00.238.24v.447zm-.238-.705a.23.23 0 00.069.01h-.07v-.01zm0 0a.23.23 0 01-.163-.22v-.896l-.216-.432-.231-.34c-2.346-.015-2.963-.416-3.087-.524a.227.227 0 010-.077.462.462 0 010-.17l1.543-.309a20.279 20.279 0 00-5.771-1.095.247.247 0 01-.14 0l-.007-.006c-.059-.04-.407-.28-.952-.613a.24.24 0 01-.229.31H12.107c-1.555 0-3.556-1.015-3.565-2.139l-.293.071H6.706l.308.602a.232.232 0 010 .185.246.246 0 01-.138.139l-1.5.604a.233.233 0 01.11.198v1.435a.231.231 0 010 .154.23.23 0 01-.17.077H3.881a.231.231 0 01.232.232v1.435a.24.24 0 01-.479 0V16.08a.231.231 0 01.232-.232h-.077a.216.216 0 010-.077 3.853 3.853 0 01-.031-.386l.231-1.435h.25a.24.24 0 01.09-.061l2.145-.864-.355-.725a.231.231 0 010-.232.231.231 0 01.201-.108h2.052a33.783 33.783 0 019.09-.957c3.534.278 7.593 2.963 8.163 3.365 2.288.127 4.541.606 6.683 1.42l.956 1.42.247.508v.957a.24.24 0 00-.238.221zm-2.796.08a2.624 2.624 0 11-4.363 2.916 2.624 2.624 0 014.363-2.915zm-13.247-7.46c2.389.146 5.172 1.596 6.74 2.53H12.09c-1.373-.015-3.07-.926-3.086-1.682a.232.232 0 00-.014-.08 33.293 33.293 0 016.165-.77l.47 2.332a.232.232 0 00.277.185.231.231 0 00.185-.278l-.453-2.25a33.272 33.272 0 011.595.013zm9.874 10.765a2.145 2.145 0 102.383-3.567 2.145 2.145 0 00-2.383 3.567zm3.583-6.012a9.732 9.732 0 001.605.185L32 16.003l-1.312.263zM3.758 19.784l2.655.447-.016-.077a.24.24 0 01.22.147 2.621 2.621 0 012.107-2.41 2.623 2.623 0 11-2.111 2.605.239.239 0 01-.216.137l-2.855-.479a.247.247 0 01-.2-.231v-1.435a.231.231 0 010-.17l.478-.479a.231.231 0 01.17 0h1.435a.239.239 0 110 .479H4.098l-.34.34v1.126zm8.102.68a.232.232 0 01.231-.232H25.44l-.016-.016a.24.24 0 010 .479H12.091a.232.232 0 01-.231-.232zm-7.423-5.958h.756v.957h-.91l.154-.957zm3.608 7.772a2.145 2.145 0 102.383-3.567 2.145 2.145 0 00-2.383 3.567zm20.266-2.046a.232.232 0 00-.232.231.247.247 0 00.247.232.24.24 0 000-.479l-.015.016zm.076-.498a.23.23 0 01-.092.019.232.232 0 01-.247-.201v-.525a.24.24 0 11.479 0v.479a.232.232 0 01-.14.228zm-.092 1.439a.232.232 0 00-.232.231v.479a.24.24 0 00.479 0v-.479a.232.232 0 00-.247-.231zm-.793-.874a.231.231 0 01.067.163.232.232 0 01-.231.247h-.478a.24.24 0 010-.478h.478c.061 0 .12.024.164.068zm1.734-.068a.24.24 0 000 .478h.479a.24.24 0 000-.478h-.479zm-1.96-1.012a.24.24 0 01.17.07l.34.278a.232.232 0 01-.17.402.232.232 0 01-.17 0l-.34-.34a.24.24 0 01.17-.41zm1.853 1.753a.24.24 0 10-.34.34l.34.34a.241.241 0 00.34 0 .24.24 0 000-.34l-.34-.34zm-2.022.34l.34-.34a.232.232 0 01.339 0 .231.231 0 010 .34l-.34.339a.24.24 0 11-.34-.34zm1.852-1.281c.055.02.115.02.17 0l.34-.479a.24.24 0 10-.34-.34l-.34.34a.247.247 0 000 .34.246.246 0 00.17.139zm-19.87.269a.232.232 0 01.163-.068l.015-.016a.24.24 0 110 .479.247.247 0 01-.246-.232.23.23 0 01.067-.163zm.147-.547a.232.232 0 00.17-.2v-.479a.24.24 0 10-.478 0v.478a.231.231 0 00.308.201zm-.163 1.488a.232.232 0 01.164-.068.231.231 0 01.247.231v.479a.24.24 0 01-.479 0v-.479c0-.061.025-.12.068-.163zm-.546-.779a.231.231 0 00-.231-.231h-.433a.24.24 0 000 .478h.479a.231.231 0 00.185-.247zm1.497-.161a.24.24 0 01.17-.07h.478a.24.24 0 010 .478h-.479a.24.24 0 01-.169-.408zM8.387 19.29a.24.24 0 10-.34.34l.34.339a.231.231 0 00.17 0 .232.232 0 00.17-.402l-.34-.277zm1.529 1.612a.24.24 0 01.17.07l.339.34a.23.23 0 010 .34.232.232 0 01-.17 0 .231.231 0 01-.17 0l-.34-.34a.24.24 0 01.17-.41zm-1.529.07l-.34.34a.24.24 0 10.34.34l.34-.34a.24.24 0 00-.34-.34zm1.699-.942a.247.247 0 01-.17 0 .246.246 0 01-.17 0 .247.247 0 010-.34l.34-.339a.23.23 0 01.34 0 .233.233 0 010 .34l-.34.34zm6.357-4.567a.24.24 0 000 .478h.895a.24.24 0 100-.478h-.895zm-6.866.07a.24.24 0 01.169-.07h.895a.24.24 0 010 .478h-.895a.24.24 0 01-.17-.408z" fill="#fff"/></svg>