<svg width="36" height="36" fill="none" xmlns="http://www.w3.org/2000/svg"><path fill="#763900" d="M.192.622h35v35h-35z"/><path fill-rule="evenodd" clip-rule="evenodd" d="M15.3 12.301a.35.35 0 01-.341-.36 1.676 1.676 0 01.416-1.123.975.975 0 00.267-.675.975.975 0 00-.267-.674 1.676 1.676 0 01-.416-1.124.35.35 0 01.341-.36.35.35 0 01.342.36.955.955 0 00.267.675 1.724 1.724 0 010 2.247.955.955 0 00-.267.675.35.35 0 01-.342.36zm9.534 11.148h2.304a.718.718 0 01.544.184.8.8 0 01.259.536v.719c0 .806-.758 1.438-1.725 1.438H10.535c-.968 0-1.726-.632-1.726-1.438v-.72a.795.795 0 01.26-.535.718.718 0 01.543-.184h2.84a3.919 3.919 0 01-1.394-1.973 4.117 4.117 0 01-1.166.175c-1.488 0-2.45-1.345-2.45-3.427 0-.931 0-3.765 2.45-3.765.327 0 .652.044.967.13v-.49c0-.397.306-.72.684-.72h8.199c.377 0 .683.323.683.72v4.119c.087.04.177.076.269.106.064-.165.137-.325.219-.481a.647.647 0 01.325-.297l1.754-.706a.595.595 0 01.438-.001c.148.061.294.132.435.21.118-.183.213-.382.281-.591a.99.99 0 01.7-.672 8.53 8.53 0 00.015-.51c.003-.702.006-1.498.852-1.837a.724.724 0 01.657.049c.158.092.624.372.97 2.122a.87.87 0 01.557.733c.087.797.05 1.603-.106 2.388a6.73 6.73 0 01-.894 2.025c.032.07.06.136.082.19a.715.715 0 01-.037.628 4.82 4.82 0 01-2.108 1.875zm1.202-9.336a.075.075 0 00-.08-.005c-.374.15-.409.423-.41 1.168 0 .122-.002.253-.006.387a12 12 0 011.093-.098c-.258-1.191-.538-1.418-.597-1.452zm-1.01 2.36a.296.296 0 00-.228.203 3.253 3.253 0 01-.35.75 8.14 8.14 0 012.087 2.589c.264-.452.464-.942.593-1.456a7.05 7.05 0 00.09-2.145.162.162 0 00-.168-.144h-.023a10.785 10.785 0 00-2 .202zm-1.812 1.046l-1.713.689H21.5c-.85 1.625-.567 3.863-.404 4.754.026.145.053.266.072.354.227.077.463.122.702.133h.45a5.454 5.454 0 001.677-.4c1.563-.629 2.17-1.496 2.36-1.84-.205-.463-1.314-2.933-3.143-3.69zm-2.747 5.797a6.35 6.35 0 01-1.047-.422 3.836 3.836 0 01-.6.555h1.676l-.01-.042-.019-.091zm-1.415-1.501c.389.303.822.54 1.282.7A9.38 9.38 0 0120.47 19a2.669 2.669 0 01-.688-.33.24.24 0 00-.264.007 3.322 3.322 0 00-.126.082l-.048.032a12.196 12.196 0 00-1.513 1.175.223.223 0 00-.061.263c.339.6.772 1.137 1.282 1.586zm-1.601-4.298a.118.118 0 00-.075.08c-.072.195-.008.694.347 1.527.232-.196.539-.44.91-.703-.082-.105-.16-.209-.232-.306-.422-.57-.588-.741-.95-.598zm-7.559 1.976c.334-.005.663-.081.967-.225v-2.319a1.41 1.41 0 00-.967-.333c-.168 0-.4 0-.4 1.608 0 .615.14 1.27.4 1.27zm0-4.315c-1.565 0-1.766 1.627-1.766 3.046 0 1.696.66 2.708 1.766 2.708a3.496 3.496 0 001.01-.158 4.102 4.102 0 01-.043-.561v-.18a2.88 2.88 0 01-.967.18c-.678 0-1.083-.744-1.083-1.989 0-1.226.083-2.327 1.083-2.327.334-.004.664.068.967.212v-.772a2.938 2.938 0 00-.967-.159zm1.65 5.035c0 .245.027.489.08.727.316 1.472 1.561 2.515 2.995 2.51h2.05a2.973 2.973 0 002.15-.93l-.011-.007c-.058-.042-.117-.084-.173-.13a6.836 6.836 0 01-1.445-1.776.946.946 0 01.016-.959c-.487-1.068-.643-1.83-.465-2.312a.815.815 0 01.469-.491c.862-.346 1.342.302 1.73.824l.001.003c.09.122.186.244.285.363a.89.89 0 01.518-.108V14.1h-8.2v6.114zm14.674 5.394c.563 0 1.042-.33 1.042-.72v-.686a.21.21 0 00-.12-.032H9.612a.21.21 0 00-.12.032v.687c0 .39.479.719 1.043.719h15.68zM12.909 11.942c0 .198.153.36.341.36a.35.35 0 00.342-.36.955.955 0 01.267-.675 1.724 1.724 0 000-2.247.955.955 0 01-.267-.675.35.35 0 00-.341-.36.35.35 0 00-.342.36c-.003.417.146.82.416 1.124a.976.976 0 01.267.675.975.975 0 01-.267.674c-.27.305-.42.707-.416 1.124zm4.441.36a.35.35 0 01-.341-.36c-.003-.417.146-.82.416-1.124a.975.975 0 00.267-.675.975.975 0 00-.267-.674 1.676 1.676 0 01-.416-1.124.35.35 0 01.341-.36c.189 0 .342.162.342.36a.954.954 0 00.267.675 1.724 1.724 0 010 2.247.954.954 0 00-.267.675c0 .198-.153.36-.342.36z" fill="#fff"/></svg>