<svg width="36" height="35" fill="none" xmlns="http://www.w3.org/2000/svg"><path fill="#BC0923" d="M.193 0h35v35h-35z"/><path fill-rule="evenodd" clip-rule="evenodd" d="M28.465 12.083a.17.17 0 01.123 0 .17.17 0 01-.03.139l-1.374 8.55a.17.17 0 01-.154.138l-12.902.972-.941 1.96c.03.247.447.494.849.494h12.36a.517.517 0 010 1.034h-1.295a.172.172 0 01.116.15.17.17 0 01-.008.066c-.262.756-.633 1.651-1.019 1.651-.385 0-.771-.895-1.018-1.65a.17.17 0 01.108-.217h-7.069a.168.168 0 01.118.15.169.169 0 01-.009.066c-.262.757-.633 1.652-1.018 1.652-.386 0-.757-.895-1.02-1.652a.17.17 0 01.109-.216h.001-.34a1.743 1.743 0 01-1.883-1.543l.987-2.037L9.452 8.009H7.184a.463.463 0 110-.926h3.133l1.342 5h16.806zM23.388 25.37a.171.171 0 01.108.108 3.8 3.8 0 00.71 1.42c.31-.428.54-.91.679-1.42a.171.171 0 01.108-.108h-1.605zm-8.89 0a.173.173 0 01.109.108 3.8 3.8 0 00.71 1.42c.31-.428.54-.909.679-1.42a.169.169 0 01.108-.108h-1.606zm11.883-.679H14.036c-.463 0-1.034-.355-1.111-.71v-.108l.987-2.037-3.889-14.46H7.277a.17.17 0 100 .34h2.546l3.61 14.027a.154.154 0 010 .17l-.94 1.96a1.404 1.404 0 001.543 1.157H26.38a.17.17 0 100-.339zm-12.16-3.086l12.654-1.003 1.39-8.257H11.751l2.469 9.26zm1.08-7.191h-2.098a.17.17 0 110-.34h2.037v-.51a.17.17 0 01.34 0v.51h2.114v-.51a.17.17 0 11.339 0v.51h2.052v-.51a.17.17 0 01.29-.12.17.17 0 01.05.12v.51h2.052v-.51a.17.17 0 01.29-.12.17.17 0 01.05.12v.51h2.052v-.51a.17.17 0 01.29-.12.17.17 0 01.05.12v.51h1.852a.17.17 0 110 .34h-1.883v2.052h1.204a.17.17 0 01.12.29.17.17 0 01-.12.05h-1.204v2.052h.51a.17.17 0 010 .34h-.51v.509a.17.17 0 01-.17.17.17.17 0 01-.17-.17v-.51h-2.021v.51a.17.17 0 01-.34 0v-.51h-2.052v.51a.17.17 0 01-.34 0v-.51h-2.052v.51a.17.17 0 11-.34 0v-.51h-2.052v.51a.17.17 0 01-.17.17.17.17 0 01-.17-.17v-.51h-.4a.17.17 0 010-.339h.4v-2.053h-1.08a.17.17 0 010-.339h1.08v-2.053zm.278 2.391v2.053h2.053v-2.053h-2.053zm2.392 0v2.053h2.053v-2.053H17.97zm2.392 0v2.053h2.053v-2.053h-2.053zm2.454 2.053h1.99l.032-2.053h-2.022v2.053zm1.99-2.392v-2.053h-1.99v2.053h1.99zm-2.391 0v-2.053h-1.991v2.053h1.99zm-2.392 0v-2.053h-1.991v2.053h1.99zm-2.392 0v-2.053h-2.053v2.053h2.053zm-1.235 9.768a.171.171 0 00-.117.15.171.171 0 00.009.067c.014.097.014.195 0 .293a1.027 1.027 0 01-2.053 0 1.043 1.043 0 010-.293.171.171 0 00-.05-.184.171.171 0 00-.124-.041.17.17 0 00-.15.117 1.385 1.385 0 000 .385 1.373 1.373 0 002.732 0 1.393 1.393 0 000-.385.17.17 0 00-.247-.108zm8.889 0a.17.17 0 00-.108.216c.014.097.014.196 0 .293a1.026 1.026 0 11-2.053 0 1.044 1.044 0 010-.293.17.17 0 00-.11-.23.17.17 0 00-.188.071.17.17 0 00-.026.067 1.34 1.34 0 000 .385 1.374 1.374 0 002.732 0 1.393 1.393 0 000-.385.17.17 0 00-.247-.124z" fill="#fff"/></svg>