<svg width="35" height="35" fill="none" xmlns="http://www.w3.org/2000/svg"><path fill="#0E2380" d="M0 0h35v35H0z"/><path fill-rule="evenodd" clip-rule="evenodd" d="M9.985 13.457a.183.183 0 00.14-.048.185.185 0 00.06-.137V11.73a3.657 3.657 0 013.704-3.673h6.945a3.657 3.657 0 013.657 3.658v1.543a.201.201 0 00.386 0v-1.543a4.043 4.043 0 00-4.043-4.044h-6.945a4.043 4.043 0 00-4.043 4.044v1.543a.185.185 0 00.139.2zm3.086 4.229h8.858l-.185.03a.201.201 0 010 .386h-8.858a.185.185 0 01-.185-.185l-1.158 1.929a.186.186 0 01-.17.093h-.092a.182.182 0 01-.03-.041v7.355a.17.17 0 01-.093.093H8.07a.2.2 0 01-.2-.2v-5.402a.201.201 0 01.385 0v5.17h2.716v-8.472a2.7 2.7 0 00-2.7-2.701 2.67 2.67 0 00-1.343.37l-.355.247a2.685 2.685 0 001.698 4.769.193.193 0 110 .386 3.085 3.085 0 01-2.1-5.325l.155-.107.37-.263 2.84-1.944c.365-.273.81-.42 1.266-.417a2.114 2.114 0 012.083 2.099v2.315a.185.185 0 01.185-.185zm-1.82 2.03a.182.182 0 01.03-.04l1.127-1.882V15.54a1.728 1.728 0 00-2.778-1.388L7.87 15.37h.294a3.086 3.086 0 013.086 3.086v1.26zm15.356 1.499a.193.193 0 01.132-.057 2.685 2.685 0 001.702-4.768l-.37-.263a2.67 2.67 0 00-1.328-.37 2.7 2.7 0 00-2.7 2.7v8.457h2.654v-5.2a.2.2 0 01.386 0v5.4a.2.2 0 01-.2.186h-3.087a.185.185 0 01-.139-.17v-1.543a.185.185 0 01-.185.185H11.527a.2.2 0 010-.386h11.945a.185.185 0 01.185.186v-1.93a.185.185 0 01-.185.186H11.527a.2.2 0 010-.386H23.41a.185.185 0 01.185.185v-3.729a.185.185 0 01-.03.04h-.093a.184.184 0 01-.17-.092l-1.157-1.929v-2.315a2.114 2.114 0 012.114-2.114c.456-.002.9.144 1.265.417l2.793 1.944.37.263.155.108a3.086 3.086 0 01-2.099 5.324.193.193 0 01-.136-.33zm.132-.057h.004-.015.01zm-3.144-1.44a.185.185 0 00-.03-.041l-1.127-1.883v-2.222a1.729 1.729 0 012.778-1.39l1.759 1.22h-.293a3.087 3.087 0 00-3.087 3.086v1.23zm-.79.21a.2.2 0 01-.104.072H12.346a.2.2 0 01-.105-.313.2.2 0 01.105-.072H22.7a.2.2 0 01.105.314z" fill="#fff"/></svg>