<svg width="36" height="36" fill="none" xmlns="http://www.w3.org/2000/svg"><path fill="#2E3623" d="M.193.883h35v35h-35z"/><path fill-rule="evenodd" clip-rule="evenodd" d="M9.7 14.755a.17.17 0 000-.23 9.723 9.723 0 01-1.266-3.844c0-2.561 3.457-2.9 6.837-2.9s6.836.339 6.836 2.9a9.724 9.724 0 01-1.28 3.843.17.17 0 000 .232h.076a.17.17 0 00.155-.093 9.752 9.752 0 001.311-3.997c0-2.855-3.626-3.24-7.175-3.24-3.55 0-7.176.385-7.176 3.24a9.784 9.784 0 001.388 3.95.17.17 0 00.294.14zm3.519 11.483h.848a.17.17 0 010 .34H13.05a7.176 7.176 0 118.148-2.794l-.247.355a.17.17 0 01-.3-.092.17.17 0 01.038-.124l.247-.34a6.836 6.836 0 10-7.716 2.655zm5.37-4.43a.849.849 0 00-.85.849v5.848a.857.857 0 001.713 0v-5.802a.85.85 0 00-.864-.895zm0 7.176a.51.51 0 01-.51-.51v-5.802a.51.51 0 011.018 0v5.833a.509.509 0 01-.509.479zm-2.053-6.157a.85.85 0 00-.85.848v3.75a.857.857 0 001.714 0v-3.75a.847.847 0 00-.864-.848zm0 5.123a.51.51 0 01-.51-.51v-3.765a.51.51 0 011.019 0v3.766a.51.51 0 01-.51.51zm11.02-4.875a.849.849 0 01.6-.248.865.865 0 01.865.848v3.766a.857.857 0 01-1.713 0v-3.766c0-.225.09-.44.248-.6zm.24 4.726a.51.51 0 00.87-.345v-3.765a.51.51 0 10-1.019 0v3.75a.51.51 0 00.15.36zm-1.692-5.993a.849.849 0 00-.85.849v5.848a.857.857 0 001.714 0v-5.802a.848.848 0 00-.864-.895zm0 7.176a.51.51 0 01-.51-.51v-5.817a.51.51 0 111.019 0v5.848a.51.51 0 01-.51.479zm-6.157-4.444h4.784a.17.17 0 110 .34h-4.784a.17.17 0 110-.34zm4.784 1.697h-4.784a.17.17 0 000 .34h4.784a.17.17 0 000-.34zm-9.433-1.407a.17.17 0 01-.12.05l-.2-.063v1.374h.17a.17.17 0 110 .34h-.34a.154.154 0 01-.139-.109V24.71a.17.17 0 01.17-.17h.34a.17.17 0 01.12.29zm14.741-.12a.17.17 0 00-.17-.17h-.4a.17.17 0 100 .34h.169v1.373h-.17a.17.17 0 000 .34h.34a.17.17 0 00.17-.17l.061-1.713zm-11.57-1.154a.17.17 0 01.289.12v3.765a.17.17 0 01-.34 0v-3.765a.17.17 0 01.05-.12zm-1.934.644a.17.17 0 00-.17.17v2.392a.17.17 0 00.34 0V24.37a.17.17 0 00-.17-.17zm9.449-.644a.17.17 0 01.29.12v3.765a.17.17 0 01-.34 0v-3.765a.17.17 0 01.05-.12zm2.172.644a.17.17 0 00-.17.17v2.392a.17.17 0 10.34 0V24.37a.17.17 0 00-.17-.17zm-8.11-10.355a.17.17 0 01-.115-.045.17.17 0 01-.262-.14c.51-.882.835-1.858.956-2.87 0-1.034-1.836-1.543-5.463-1.543-3.626 0-5.463.525-5.463 1.543a7.485 7.485 0 00.957 2.87.17.17 0 010 .232.17.17 0 01-.154-.092 8.071 8.071 0 01-.988-3.087c0-.802.602-1.883 5.818-1.883 5.216 0 5.818 1.08 5.818 1.883a8.072 8.072 0 01-.988 3.087.17.17 0 01-.115.045zm-8.386 1.173a.17.17 0 00-.247 0 6.173 6.173 0 000 9.491h.108a.17.17 0 00.139 0 .17.17 0 000-.247 5.802 5.802 0 010-8.966.17.17 0 00.053-.217.17.17 0 00-.053-.06zm8.286 8.658a.17.17 0 01-.108 0 .17.17 0 01-.015-.216 5.803 5.803 0 00-.787-8.18.168.168 0 01-.055-.18.17.17 0 01.27-.081 6.173 6.173 0 01.834 8.657.17.17 0 01-.139 0z" fill="#fff"/></svg>