<svg width="35" height="35" fill="none" xmlns="http://www.w3.org/2000/svg"><path fill="#EA5316" d="M0 0h35v35H0z"/><path fill-rule="evenodd" clip-rule="evenodd" d="M17.5 17.948l12.238-3.303.046.016a.232.232 0 11.124.447l-12.346 3.318h-.123l-14.63-3.95a.231.231 0 010-.448l14.63-3.95h.092l12.346 3.317a.233.233 0 01.162.286.233.233 0 01-.286.162L17.5 10.54 3.766 14.244 17.5 17.948zm7.566-1.403a.23.23 0 01.088-.018.231.231 0 01-.123.278v6.019a.216.216 0 010 .092 31.87 31.87 0 00-7.593 1.837h-.17a31.962 31.962 0 00-7.592-1.837H9.6a.216.216 0 010-.077v-6.034a.232.232 0 01.463 0V22.7c2.543.31 5.04.92 7.438 1.821 2.393-.9 4.885-1.51 7.423-1.82v-5.942a.232.232 0 01.143-.214zm-14.079 5.368v-4.63a.231.231 0 00-.463 0v4.63a.232.232 0 00.463 0zm13.472-4.63v4.63a.231.231 0 11-.462 0v-4.63a.231.231 0 01.462 0zm-6.728 6.482v-2.314a.232.232 0 00-.463 0v2.33a.232.232 0 00.463 0v-.015zm-6.096-8.178l3.72-1.003a.232.232 0 01.246.108.231.231 0 01-.17.293l-3.734 1.05a.232.232 0 01-.231-.17.232.232 0 01.17-.278zm8.01-1.683l3.72-1.003a.232.232 0 00-.124-.447l-3.72.987a.232.232 0 000 .463h.124zm3.596 2.083l-3.72-1.003-.123-.015a.232.232 0 01.124-.448l3.719 1.003a.232.232 0 010 .463zm-7.81-2.546l-3.718-1.003a.232.232 0 00-.124.448l3.72 1.003a.232.232 0 00.231-.17.232.232 0 00-.108-.278zm2.053 1.729c-.926 0-1.851-.309-1.851-.926 0-1.22 3.719-1.22 3.703 0 0 .602-.926.926-1.852.926zm.016-.463c.864 0 1.389-.293 1.389-.463 0-.154-.525-.463-1.39-.463-.863 0-1.388.293-1.388.463 0 .17.525.463 1.389.463zm2.778-.464a.232.232 0 00.231.232h10.448v2.13a.695.695 0 00-.463.648.232.232 0 010 .462v.926a.232.232 0 00.231.232h.926a.23.23 0 00.232-.232v-.926a.231.231 0 01-.231-.215h.015-.015v-.016a.232.232 0 01.23-.232.695.695 0 00-.462-.648v-2.36a.232.232 0 00-.232-.232H20.525a.233.233 0 00-.228.139.233.233 0 00-.02.092zm11.295 3.243c.02.008.042.012.063.013h-.91a.231.231 0 00.23-.231.232.232 0 01.464 0 .23.23 0 00.153.218zm-.153.94h-.463v-.464h.463v.463zm.524.756l.463 3.256a.217.217 0 01-.386.077h-1.929a.217.217 0 010-.077l.463-3.256a.232.232 0 01.463 0l-.432 2.994h.432v-1.158a.232.232 0 01.463 0v1.157h.432l-.432-2.993a.232.232 0 01.463 0z" fill="#fff"/></svg>