<svg width="36" height="35" fill="none" xmlns="http://www.w3.org/2000/svg"><path fill="#35288F" d="M.193 0h35v35h-35z"/><path fill-rule="evenodd" clip-rule="evenodd" d="M28.129 9.01c.137.11.252.248.336.403a1.326 1.326 0 01.077 1.019l-.632 2.16a.37.37 0 01-.34.263.37.37 0 01-.34-.263 1.45 1.45 0 10-.447 1.543.37.37 0 01.586.386l-.725 2.454a1.342 1.342 0 01-1.666.91l-1.636-.478a2.192 2.192 0 11-3.565-1.05l-1.358-.4a1.342 1.342 0 01-.91-1.667l.478-1.636a2.191 2.191 0 01-2.67-2.716 2.192 2.192 0 013.72-.849l.4-1.342a1.343 1.343 0 011.667-.91l6.559 1.928c.17.05.328.133.466.244zm-.652 2.58l.402-1.359.077.093a.616.616 0 00-.417-.772l-6.558-1.929a.617.617 0 00-.772.417l-.633 2.16a.37.37 0 01-.34.263.37.37 0 01-.339-.263 1.452 1.452 0 10-1.805 1.821 1.451 1.451 0 001.342-.278.37.37 0 01.232-.092.357.357 0 01.2 0 .37.37 0 01.155.401l-.726 2.454a.618.618 0 000 .478c.08.143.213.249.37.293l2.13.68a.37.37 0 010 .694 1.449 1.449 0 00-.508 2.408 1.451 1.451 0 001.635.262 1.45 1.45 0 00.417-2.207.371.371 0 01.385-.587l2.408.664a.616.616 0 00.771-.417l.479-1.635a2.192 2.192 0 111.095-3.55zm-12.793 5.308h1.836a1.542 1.542 0 011.544 1.559v2.577a.37.37 0 01-.602.278 1.82 1.82 0 100 2.716.355.355 0 01.386 0 .37.37 0 01.216.34v2.283a1.544 1.544 0 01-1.544 1.544H8.31a1.543 1.543 0 01-1.543-1.544v-2.716a.37.37 0 01.664-.2 1.821 1.821 0 100-2.006.37.37 0 01-.664-.201v-3.086a1.543 1.543 0 011.544-1.544h2.175a2.547 2.547 0 114.198 0zm1.414 3.309c.426-.03.852.047 1.24.225v-1.975a.818.818 0 00-.818-.818h-2.716a.37.37 0 01-.2-.664 1.821 1.821 0 10-2.006 0 .37.37 0 01-.201.664H8.311a.818.818 0 00-.818.818v2.191a2.546 2.546 0 110 4.182v1.775a.817.817 0 00.818.818h8.21a.818.818 0 00.817-.818v-1.543a2.546 2.546 0 11-1.24-4.855z" fill="#fff"/></svg>