<svg width="36" height="35" fill="none" xmlns="http://www.w3.org/2000/svg"><path fill="#C54203" d="M.193 0h35v35h-35z"/><path fill-rule="evenodd" clip-rule="evenodd" d="M9.684 7.021h16.034a.17.17 0 01.139.17v20.664a.155.155 0 01-.108.123H9.684a.17.17 0 01-.17-.17V7.191a.17.17 0 01.17-.17zm4.751.325H9.854l-.016 20.231h15.756V7.284h-4.737a.17.17 0 01.108.278l-.988.987a.17.17 0 01-.108 0h-4.63a.17.17 0 01-.138 0l-.649-.987a.172.172 0 01-.047-.137.17.17 0 01.03-.08zm.278 0a.17.17 0 01.017.03l.602.91h4.444l.926-.94h-5.989zm4.138.664h-2.623a.17.17 0 110-.325h2.623a.17.17 0 110 .325zm3.8 16.731a.17.17 0 01.12-.05l-.016.016h1.312a.169.169 0 01.202.085.17.17 0 01-.124.244.169.169 0 01-.078-.005h-1.142v1.142a.17.17 0 01-.162.119.17.17 0 01-.162-.12v-1.31a.17.17 0 01.05-.12zm2.188.475V8.163a.17.17 0 00-.17-.17H20.81a.17.17 0 100 .325h3.765v16.79l-1.543 1.543H10.826V8.395h3.442a.17.17 0 000-.324h-3.611a.154.154 0 00-.108.139v18.657a.17.17 0 00.17.17h12.438a.17.17 0 00.123 0l1.559-1.667a.17.17 0 000-.154zM12.74 12.639a.17.17 0 10-.231.231l.648.649 1.312-1.312a.17.17 0 000-.232.17.17 0 00-.232 0l-1.188 1.189-.309-.525zm10.03-.71h-6.542a.169.169 0 01-.202-.085.17.17 0 01.202-.24h6.543a.17.17 0 010 .325zm-6.542.987h6.543a.17.17 0 000-.324h-6.543a.17.17 0 00-.152.299.168.168 0 00.152.025zm-.087.71a.17.17 0 01.086-.06H19.5a.17.17 0 010 .323h-3.272a.17.17 0 01-.086-.262zm-3.648 4.8a.154.154 0 00.124 0 .153.153 0 00.108 0l.71-.71.71.71a.17.17 0 00.23 0 .17.17 0 000-.232l-.709-.71.71-.71a.17.17 0 000-.23.17.17 0 00-.232 0l-.71.709-.71-.71a.17.17 0 00-.23.232l.709.71-.71.71a.152.152 0 00-.052.115.155.155 0 00.052.116zm10.278-1.914h-6.543a.169.169 0 01-.202-.085.17.17 0 01.202-.239h6.543a.17.17 0 010 .324zm-6.543.988h6.543a.17.17 0 000-.324h-6.543a.169.169 0 00-.202.086.17.17 0 00.202.238zm-.087.709a.17.17 0 01.086-.061H19.5a.17.17 0 010 .323h-3.272a.17.17 0 01-.086-.262zm-3.648 3.812l.648.649a.17.17 0 00.123 0 .17.17 0 00.124 0l1.312-1.312a.17.17 0 10-.232-.232l-1.188 1.189-.54-.54a.17.17 0 00-.232 0 .17.17 0 00-.051.188.17.17 0 00.036.058zm10.277-.925h-6.543a.17.17 0 010-.324h6.543a.17.17 0 010 .324zm-6.542.987h6.543a.17.17 0 000-.324h-6.543a.17.17 0 00-.152.299.168.168 0 00.152.025zm-.087.71a.17.17 0 01.086-.062H19.5a.17.17 0 01.086.263.17.17 0 01-.086.061h-3.272a.17.17 0 01-.086-.262z" fill="#fff"/></svg>