<svg version="1.1" id="Layer_1" xmlns="http://www.w3.org/2000/svg" x="0" y="0" viewBox="0 0 35 35" xml:space="preserve"><style>.st1{fill:#fff}</style><path fill="#3da684" d="M0 0h35v35H0z"/><path class="st1" d="M25.9 13.2h-4.2V9.1c0-1-.8-1.8-1.8-1.8h-5c-1 0-1.8.8-1.8 1.8v4.2h-4c-1 0-1.8.8-1.8 1.8v5c0 1 .8 1.8 1.8 1.8h4.2v4.2c0 1 .8 1.8 1.8 1.8h5c1 0 1.8-.8 1.8-1.8v-4.2h4.2c1 0 1.8-.8 1.8-1.8v-5c-.2-1.1-1-1.9-2-1.9zm1 6.8c0 .5-.4 1-1 1h-4.6c-.2 0-.4.2-.4.4V26c0 .5-.4 1-1 1h-5a1 1 0 01-1-1v-4.6c0-.2-.2-.4-.4-.4H9.1a1 1 0 01-1-1v-5c0-.5.4-1 1-1h4.6c.2 0 .4-.2.4-.4V9.1c0-.5.4-1 1-1h5c.5 0 1 .4 1 1v4.6c0 .2.2.4.4.4h4.6c.5 0 1 .4 1 1V20z"/><path class="st1" d="M25.5 15.1H20V9.5c0-.2-.2-.4-.4-.4h-4.1c-.2 0-.4.2-.4.4V15H9.5c-.2 0-.4.2-.4.4v4.1c0 .2.2.4.4.4H15v5.5c0 .2.2.4.4.4h4.1c.2 0 .4-.2.4-.4v-5.5h5.5c.2 0 .4-.2.4-.4v-4.1c.1-.2-.1-.3-.3-.3zm-.4 4h-5.5c-.2 0-.4.2-.4.4V25h-3.3v-5.5c0-.2-.2-.4-.4-.4H9.9v-3.3h5.5c.2 0 .4-.2.4-.4V9.9h3.3v5.5c0 .2.2.4.4.4H25v3.3z"/></svg>