<svg data-name="1" xmlns="http://www.w3.org/2000/svg" viewBox="0 0 99.21 99.21"><path fill="#008f33" d="M0 0h99.21v99.21H0z"/><path d="M47.79 9.14A40.51 40.51 0 1135.84 87.7a40.72 40.72 0 01-20.46-16.45A40.21 40.21 0 0110 58a40.87 40.87 0 01-.37-14.87 40.57 40.57 0 0138.18-34z" fill-rule="evenodd" fill="#fefffe"/><path d="M48.25 14.12a17.47 17.47 0 012.81 0 34.42 34.42 0 017.44 1.08 29.75 29.75 0 014.64 1.58c-1.56.07-3.12 0-4.68.11-4.39.16-8.89.72-12.86 2.72a16.34 16.34 0 00-4.72 3.56 19 19 0 00-4 7.07c-.64 2.07-1.11 4.19-1.64 6.3-1.06 4.34-2.19 8.67-3.22 13 2.31 1 4.6 1.95 6.9 2.93a1 1 0 00.38.1 17.16 17.16 0 011.31-2A10.53 10.53 0 0145.49 47a9 9 0 017.11.53 8.18 8.18 0 013.78 4.11 8.49 8.49 0 01.51 4.28 11.3 11.3 0 01-2.64 6 9.83 9.83 0 01-6.14 3.45 8.15 8.15 0 01-5.11-.93 10.31 10.31 0 01-4-4 10.16 10.16 0 01-.47-1c-2.69.67-5.37 1.37-8.06 2.06A22.52 22.52 0 0033 66.77a16.38 16.38 0 0010.06 6.92 19 19 0 0012-1.24 19.73 19.73 0 008.72-7.71 19.51 19.51 0 002.45-6.19 17.22 17.22 0 00.09-7.85A15.25 15.25 0 0060 41.35a14.33 14.33 0 00-12.5-1.73 16.49 16.49 0 00-4.21 2.1c-.38.27-.75.56-1.15.8.71-2.85 1.46-5.69 2.17-8.53a19 19 0 012.09 0 71.45 71.45 0 0011.83-.52 23.63 23.63 0 008-2.62 16.74 16.74 0 007-7.73 1.73 1.73 0 01.29.15A35.51 35.51 0 0153 85c-.85.09-1.7.09-2.55.16a36.05 36.05 0 01-13.6-2.38 35.58 35.58 0 01-22.62-29.91 34.41 34.41 0 01-.12-4.66 35.49 35.49 0 0134.14-34.09z" fill="#eb2316" fill-rule="evenodd"/><path d="M60.43 20.76c3.21-.1 6.42 0 9.63-.21a13.78 13.78 0 01-3.93 5.65 17.53 17.53 0 01-8.79 3.47c-5.38.78-10.82.3-16.23.43a13.5 13.5 0 013-4.71 14.25 14.25 0 016-3.39 38.32 38.32 0 0110.32-1.24z" fill-rule="evenodd" fill="#008f33"/></svg>