<svg id="_1" data-name="1" xmlns="http://www.w3.org/2000/svg" viewBox="0 0 99.21 99.21"><defs><style>.cls-2{fill:#fff;fill-rule:evenodd}</style></defs><path fill="#e30613" d="M0 0h99.21v99.21H0z"/><path class="cls-2" d="M14.67 35.63a21.68 21.68 0 016.2-15.16 21 21 0 0114.92-6.29h48.74v10.9H35.8a10.34 10.34 0 00-7.33 3.1 10.68 10.68 0 00-3.06 7.45l-.06 18.31a10.73 10.73 0 01-2.79 6.27 10.44 10.44 0 01-6 3.23l-1.92.3zM14.67 85V74.13h48.75A10.36 10.36 0 0070.75 71a10.69 10.69 0 003.06-7.45V46.2a10.73 10.73 0 012.52-6.87 10.41 10.41 0 016.3-3.57l1.91-.29v28.1a21.68 21.68 0 01-6.2 15.16A21 21 0 0163.43 85z"/><path class="cls-2" d="M55.97 63.78v-14.1l-6.36 7.71-6.35-7.71v14.1h-8.42V36.04h7.97l6.8 8.92 6.8-8.92h7.97v27.74h-8.41z"/></svg>