<svg width="35" height="31" fill="none" xmlns="http://www.w3.org/2000/svg"><path d="M11.566 27.75a.578.578 0 100-1.156.578.578 0 000 1.156zm16.766-.578a.578.578 0 11-1.156 0 .578.578 0 011.156 0z" fill="#467637"/><path fill-rule="evenodd" clip-rule="evenodd" d="M9.254 20.813h21.969a.578.578 0 00.566-.46l2.89-13.876a.577.577 0 00-.566-.696H6.447L5.192.446A.578.578 0 004.629 0H.582a.578.578 0 100 1.156h3.589l4.379 18.61a2.316 2.316 0 00-1.61 2.204v1.156a2.315 2.315 0 002.313 2.313h.001a2.89 2.89 0 104.622 0h11.566a2.89 2.89 0 104.622 0h2.314a.578.578 0 100-1.157H9.254a1.158 1.158 0 01-1.156-1.156V21.97a1.157 1.157 0 011.156-1.157zm.458-1.157l-.544-2.312h3.189l.289 2.312H9.712zm12.525-5.781l-.096 2.313h-3.805l-.097-2.313h3.998zm-4.046-1.156l-.096-2.313h4.287l-.097 2.313h-4.094zm-1.012 3.469h-3.802l-.289-2.313h3.994l.096 2.313zm.048 1.156l.096 2.312h-3.512l-.29-2.312h3.706zm1.157 0h3.709l-.097 2.312H18.48l-.096-2.312zm4.866 0h3.704l-.289 2.312h-3.512l.097-2.312zm.048-1.157l.096-2.312h3.994l-.289 2.313h-3.801zm5.255-2.312h3.404l-.481 2.313h-3.212l.29-2.313zm.145-1.156l.289-2.313h3.693l-.482 2.313h-3.5zm-1.165 0h-4.09l.096-2.313h4.282l-.288 2.313zM23.587 9.25l.096-2.313h4.572l-.289 2.313h-4.38zm-1.157 0h-4.383l-.097-2.313h4.576L22.43 9.25zm-5.54 0h-4.38l-.289-2.313h4.572l.096 2.313zm.047 1.156l.097 2.313h-4.09l-.29-2.313h4.284zM11.78 12.72h-3.7l-.544-2.313h3.954l.29 2.313zm.144 1.156l.29 2.313h-3.32l-.544-2.313h3.572zm18.83 5.781H27.83l.289-2.312h3.114l-.481 2.312zM32.92 9.25h-3.79l.29-2.313h3.981L32.92 9.25zM11.056 6.937l.29 2.313H7.262L6.72 6.937h4.337zm2.245 20.235a1.734 1.734 0 11-3.468 0 1.734 1.734 0 013.468 0zm16.187 0a1.735 1.735 0 11-3.47 0 1.735 1.735 0 013.47 0z" fill="#467637"/></svg>