<svg width="30" height="37" fill="none" xmlns="http://www.w3.org/2000/svg"><path d="M25.323 24.173l-2.172-.638-4.724-3.086v-.707a6.288 6.288 0 002.482-4.416 1.444 1.444 0 001.211-1.423v-4.43c.272-.196.446-.514.446-.872V6.347l3.26-.555c.536-.092.921-.517.96-1.06a1.139 1.139 0 00-.803-1.181L14.99.055a1.15 1.15 0 00-.7 0L3.298 3.55a1.14 1.14 0 00-.803 1.182c.024.344.189.641.443.836v2.947h-.027c-.619 0-1.122.504-1.122 1.123v1.463l-.725 4.253a1.207 1.207 0 001.19 1.409h2.453c.746 0 1.314-.672 1.189-1.41l-.725-4.252V9.639c0-.62-.503-1.123-1.122-1.123h-.027V5.888l2.695.46V8.6c0 .356.173.674.445.87v4.432c0 .716.526 1.312 1.212 1.423a6.289 6.289 0 002.48 4.415v.71L6.13 23.536l-2.17.637A5.511 5.511 0 000 29.464v1.615a.542.542 0 101.083 0v-1.615a4.454 4.454 0 013.183-4.25l2.021-.594 8.077 4.8a.548.548 0 00.554 0l8.077-4.8 2.022.593a4.455 4.455 0 013.182 4.25V34.7a1.22 1.22 0 01-1.218 1.217h-2.389V33.58a.542.542 0 10-1.084 0v2.336H5.773V33.58a.542.542 0 10-1.084 0v2.336H2.302A1.22 1.22 0 011.084 34.7v-1.086a.542.542 0 10-1.084 0v1.085A2.304 2.304 0 002.302 37h24.68a2.304 2.304 0 002.302-2.302v-5.234a5.511 5.511 0 00-3.961-5.291zM4.707 15.68H2.254a.122.122 0 01-.12-.143l.655-3.848h1.384l.655 3.848a.122.122 0 01-.12.143zm-.619-6.041v.967H2.873v-.967c0-.022.018-.039.039-.039H4.05c.02 0 .038.017.038.039zm8.616 17.328l.215.332-5.533-3.288 3.512-2.294a11.38 11.38 0 001.806 5.25zm-.004-2.34c1.276.182 2.608.182 3.884 0-.247.608-.55 1.193-.912 1.75l-1.03 1.582-1.03-1.583a10.355 10.355 0 01-.912-1.748zm3.88 2.34a11.383 11.383 0 001.806-5.25l3.512 2.294-5.533 3.288.215-.332zm3.17-17.292h1.285v1.741h-.637a.648.648 0 01-.647-.647V9.675zM3.628 4.584L14.62 1.088a.071.071 0 01.044 0l10.991 3.496c.023.007.054.017.05.073-.004.057-.036.062-.06.066l-3.634.619-1.364-.169a.542.542 0 00-.133 1.076l.97.12V8.59H7.801V6.368l5.608-.694a10.04 10.04 0 012.461 0l2.123.262a.542.542 0 00.133-1.075l-2.122-.263a11.12 11.12 0 00-2.728 0l-6.005.743-3.635-.619c-.023-.004-.056-.01-.06-.066-.003-.056.028-.066.05-.073zm4.62 6.832V9.675h1.286v1.094c0 .357-.29.647-.647.647h-.639zm1.193 3.631a.84.84 0 00-.835-.787.358.358 0 01-.358-.357V12.5h.64c.954 0 1.73-.776 1.73-1.73V9.674h8.05v1.094c0 .955.776 1.731 1.73 1.731h.64v1.403a.358.358 0 01-.358.357.84.84 0 00-.835.787 5.22 5.22 0 01-5.202 4.88 5.22 5.22 0 01-5.202-4.88zm5.202 5.965c.964 0 1.88-.22 2.701-.613v.344c0 .926-.125 1.84-.366 2.722a12.8 12.8 0 01-4.67 0 10.33 10.33 0 01-.366-2.722c0-.012-.002-.023-.003-.034v-.311a6.256 6.256 0 002.704.614z" fill="#467637"/></svg>