<svg width="154" height="112" fill="none" xmlns="http://www.w3.org/2000/svg"><path fill-rule="evenodd" clip-rule="evenodd" d="M154 0H0v98h64.46L77 112l12.54-14H154V0z" fill="#000" fill-opacity=".6"/><path d="M37.076 40.5V26.2h-4.004l-.39 3.432c-.278 2.375-.624 4.325-1.04 5.85-.416 1.508-.954 2.66-1.612 3.458-.642.78-1.352 1.283-2.132 1.508-.78.225-1.734.243-2.86.052l.078-4.16c.346.07.65.07.91 0s.546-.286.858-.65c.312-.381.58-.927.806-1.638.242-.728.468-1.777.676-3.146.225-1.37.407-3.025.546-4.966l.26-3.64h12.064v18.2h-4.16zm12.49 0h-3.64V22.3h4.16v11.31l8.06-11.31h3.64v18.2h-4.16V29.19l-8.06 11.31zm14.821-14.3v-3.9h15.08v3.9h-5.46v14.3h-4.16V26.2h-5.46zm17.67 14.3V22.3h10.79v3.9h-6.63v3.198h5.85v3.9h-5.85V36.6h6.89v3.9h-11.05zm19.115 0h-4.16V22.3c.312 0 1.187-.009 2.626-.026 1.456-.017 2.435-.026 2.938-.026 2.583 0 4.455.572 5.616 1.716 1.161 1.127 1.742 2.565 1.742 4.316 0 1.699-.615 3.146-1.846 4.342-1.231 1.179-2.86 1.768-4.888 1.768-.919 0-1.595-.026-2.028-.078V40.5zm1.82-14.352c-.069 0-.676.017-1.82.052v4.16c.659.087 1.291.13 1.898.13.659 0 1.231-.173 1.716-.52.485-.347.728-.919.728-1.716 0-1.404-.841-2.106-2.522-2.106zm14.824 6.344l1.248-10.192h8.996v3.9h-5.564l-.364 2.314h.624c1.629 0 2.981.537 4.056 1.612 1.092 1.075 1.638 2.513 1.638 4.316 0 1.976-.624 3.536-1.872 4.68-1.248 1.127-2.834 1.69-4.758 1.69-1.006 0-2.028-.217-3.068-.65-1.023-.45-1.794-1.049-2.314-1.794l2.184-2.99c.364.433.858.797 1.482 1.092.624.295 1.23.442 1.82.442.693 0 1.256-.208 1.69-.624.45-.433.676-.988.676-1.664 0-.763-.295-1.387-.884-1.872-.59-.485-1.413-.728-2.47-.728-1.422 0-2.462.156-3.12.468zM42.344 73.5v-1.69c2.461-2.427 4.194-4.264 5.2-5.512 1.959-2.444 2.938-4.507 2.938-6.188 0-.85-.26-1.551-.78-2.106-.503-.555-1.23-.832-2.184-.832-.78 0-1.474.251-2.08.754-.607.503-.997 1.222-1.17 2.158l-1.768-.728c.208-1.317.797-2.357 1.768-3.12.97-.763 2.114-1.144 3.432-1.144 1.594 0 2.825.46 3.692 1.378.866.901 1.3 1.976 1.3 3.224 0 1.179-.312 2.427-.936 3.744a16.442 16.442 0 01-2.418 3.718c-1.005 1.161-1.812 2.045-2.418 2.652-.59.59-1.214 1.17-1.872 1.742h8.398v1.95H42.344zm15.453-2.288c-.988-1.681-1.482-3.952-1.482-6.812 0-2.86.485-5.122 1.456-6.786.988-1.681 2.47-2.522 4.446-2.522 1.976 0 3.45.84 4.42 2.522.988 1.664 1.482 3.926 1.482 6.786 0 2.877-.486 5.148-1.456 6.812-.954 1.664-2.418 2.496-4.394 2.496s-3.467-.832-4.472-2.496zm4.42-14.17c-2.462 0-3.692 2.453-3.692 7.358 0 4.905 1.248 7.358 3.744 7.358 1.282 0 2.21-.615 2.782-1.846.572-1.23.858-3.068.858-5.512 0-2.427-.295-4.255-.884-5.486-.59-1.248-1.526-1.872-2.808-1.872zM70.73 73.5v-1.69c2.46-2.427 4.194-4.264 5.2-5.512 1.958-2.444 2.938-4.507 2.938-6.188 0-.85-.26-1.551-.78-2.106-.503-.555-1.231-.832-2.184-.832-.78 0-1.474.251-2.08.754-.607.503-.997 1.222-1.17 2.158l-1.769-.728c.209-1.317.798-2.357 1.769-3.12.97-.763 2.114-1.144 3.431-1.144 1.595 0 2.826.46 3.692 1.378.867.901 1.3 1.976 1.3 3.224 0 1.179-.312 2.427-.936 3.744a16.442 16.442 0 01-2.417 3.718c-1.006 1.161-1.812 2.045-2.418 2.652-.59.59-1.214 1.17-1.873 1.742h8.398v1.95h-11.1zm13.45-14.924l4.368-3.38h1.456V73.5h-2.08V58.186l-2.651 2.08-1.093-1.69zM100.835 73.5V61.8h7.41v1.95h-5.33v9.75h-2.08zm7.832-1.404c0-.364.139-.685.416-.962.278-.277.633-.416 1.066-.416.382 0 .702.147.962.442.278.277.416.59.416.936 0 .399-.13.745-.39 1.04a1.26 1.26 0 01-.988.442c-.433 0-.788-.147-1.066-.442a1.47 1.47 0 01-.416-1.04z" fill="#F7F7EC"/></svg>