<svg width="44" height="43" viewBox="0 0 44 43" fill="none" xmlns="http://www.w3.org/2000/svg">
<path d="M5.52848 11.0501H9.66912C10.0501 11.0501 10.3592 10.741 10.3592 10.36V6.2194C10.3592 5.83846 10.0501 5.5293 9.66912 5.5293H5.52848C5.14755 5.5293 4.83838 5.83846 4.83838 6.2194V10.36C4.83838 10.741 5.14755 11.0501 5.52848 11.0501ZM6.21859 6.90951H8.97901V9.66993H6.21859V6.90951Z" fill="black"/>
<path d="M12.4299 11.0501H16.5705C16.9514 11.0501 17.2606 10.741 17.2606 10.36V6.2194C17.2606 5.83846 16.9514 5.5293 16.5705 5.5293H12.4299C12.0489 5.5293 11.7397 5.83846 11.7397 6.2194V10.36C11.7397 10.741 12.0489 11.0501 12.4299 11.0501ZM13.12 6.90951H15.8804V9.66993H13.12V6.90951Z" fill="black"/>
<path d="M5.52848 17.9515H9.66912C10.0501 17.9515 10.3592 17.6423 10.3592 17.2614V13.1208C10.3592 12.7398 10.0501 12.4307 9.66912 12.4307H5.52848C5.14755 12.4307 4.83838 12.7398 4.83838 13.1208V17.2614C4.83838 17.6423 5.14755 17.9515 5.52848 17.9515ZM6.21859 13.8109H8.97901V16.5713H6.21859V13.8109Z" fill="black"/>
<path d="M12.4299 17.9515H16.5705C16.9514 17.9515 17.2606 17.6423 17.2606 17.2614V13.1208C17.2606 12.7398 16.9514 12.4307 16.5705 12.4307H12.4299C12.0489 12.4307 11.7397 12.7398 11.7397 13.1208V17.2614C11.7397 17.6423 12.0489 17.9515 12.4299 17.9515ZM13.12 13.8109H15.8804V16.5713H13.12V13.8109Z" fill="black"/>
<path d="M5.52848 24.8524H9.66912C10.0501 24.8524 10.3592 24.5439 10.3592 24.1623V20.0216C10.3592 19.6407 10.0501 19.3315 9.66912 19.3315H5.52848C5.14755 19.3315 4.83838 19.6407 4.83838 20.0216V24.1623C4.83838 24.5439 5.14755 24.8524 5.52848 24.8524ZM6.21859 20.7118H8.97901V23.4722H6.21859V20.7118Z" fill="black"/>
<path d="M12.4299 24.8524H16.5705C16.9514 24.8524 17.2606 24.5439 17.2606 24.1623V20.0216C17.2606 19.6407 16.9514 19.3315 16.5705 19.3315H12.4299C12.0489 19.3315 11.7397 19.6407 11.7397 20.0216V24.1623C11.7397 24.5439 12.0489 24.8524 12.4299 24.8524ZM13.12 20.7118H15.8804V23.4722H13.12V20.7118Z" fill="black"/>
<path d="M9.66912 31.7533C10.0501 31.7533 10.3592 31.4448 10.3592 31.0632V26.9225C10.3592 26.5409 10.0501 26.2324 9.66912 26.2324H5.52848C5.14755 26.2324 4.83838 26.5409 4.83838 26.9225V31.0632C4.83838 31.4448 5.14755 31.7533 5.52848 31.7533H9.66912ZM6.21859 27.6126H8.97901V30.3731H6.21859V27.6126Z" fill="black"/>
<path d="M12.4299 31.7533H16.5705C16.9514 31.7533 17.2606 31.4448 17.2606 31.0632V26.9225C17.2606 26.5409 16.9514 26.2324 16.5705 26.2324H12.4299C12.0489 26.2324 11.7397 26.5409 11.7397 26.9225V31.0632C11.7397 31.4448 12.0489 31.7533 12.4299 31.7533ZM13.12 27.6126H15.8804V30.3731H13.12V27.6126Z" fill="black"/>
<path d="M27.6115 11.0501H31.7521C32.1331 11.0501 32.4422 10.741 32.4422 10.36V6.2194C32.4422 5.83846 32.1331 5.5293 31.7521 5.5293H27.6115C27.2306 5.5293 26.9214 5.83846 26.9214 6.2194V10.36C26.9214 10.741 27.2306 11.0501 27.6115 11.0501ZM28.3016 6.90951H31.062V9.66993H28.3016V6.90951Z" fill="black"/>
<path d="M34.5124 11.0501H38.653C39.0339 11.0501 39.3431 10.741 39.3431 10.36V6.2194C39.3431 5.83846 39.0339 5.5293 38.653 5.5293H34.5124C34.1314 5.5293 33.8223 5.83846 33.8223 6.2194V10.36C33.8223 10.741 34.1314 11.0501 34.5124 11.0501ZM35.2025 6.90951H37.9629V9.66993H35.2025V6.90951Z" fill="black"/>
<path d="M27.6115 17.9515H31.7521C32.1331 17.9515 32.4422 17.6423 32.4422 17.2614V13.1208C32.4422 12.7398 32.1331 12.4307 31.7521 12.4307H27.6115C27.2306 12.4307 26.9214 12.7398 26.9214 13.1208V17.2614C26.9214 17.6423 27.2306 17.9515 27.6115 17.9515ZM28.3016 13.8109H31.062V16.5713H28.3016V13.8109Z" fill="black"/>
<path d="M34.5124 17.9515H38.653C39.0339 17.9515 39.3431 17.6423 39.3431 17.2614V13.1208C39.3431 12.7398 39.0339 12.4307 38.653 12.4307H34.5124C34.1314 12.4307 33.8223 12.7398 33.8223 13.1208V17.2614C33.8223 17.6423 34.1314 17.9515 34.5124 17.9515ZM35.2025 13.8109H37.9629V16.5713H35.2025V13.8109Z" fill="black"/>
<path d="M27.6115 24.8524H31.7521C32.1331 24.8524 32.4422 24.5439 32.4422 24.1623V20.0216C32.4422 19.6407 32.1331 19.3315 31.7521 19.3315H27.6115C27.2306 19.3315 26.9214 19.6407 26.9214 20.0216V24.1623C26.9214 24.5439 27.2306 24.8524 27.6115 24.8524ZM28.3016 20.7118H31.062V23.4722H28.3016V20.7118Z" fill="black"/>
<path d="M34.5124 24.8524H38.653C39.0339 24.8524 39.3431 24.5439 39.3431 24.1623V20.0216C39.3431 19.6407 39.0339 19.3315 38.653 19.3315H34.5124C34.1314 19.3315 33.8223 19.6407 33.8223 20.0216V24.1623C33.8223 24.5439 34.1314 24.8524 34.5124 24.8524ZM35.2025 20.7118H37.9629V23.4722H35.2025V20.7118Z" fill="black"/>
<path d="M27.6115 31.7533H31.7521C32.1331 31.7533 32.4422 31.4448 32.4422 31.0632V26.9225C32.4422 26.5409 32.1331 26.2324 31.7521 26.2324H27.6115C27.2306 26.2324 26.9214 26.5409 26.9214 26.9225V31.0632C26.9214 31.4448 27.2306 31.7533 27.6115 31.7533ZM28.3016 27.6126H31.062V30.3731H28.3016V27.6126Z" fill="black"/>
<path d="M34.5124 31.7533H38.653C39.0339 31.7533 39.3431 31.4448 39.3431 31.0632V26.9225C39.3431 26.5409 39.0339 26.2324 38.653 26.2324H34.5124C34.1314 26.2324 33.8223 26.5409 33.8223 26.9225V31.0632C33.8223 31.4448 34.1314 31.7533 34.5124 31.7533ZM35.2025 27.6126H37.9629V30.3731H35.2025V27.6126Z" fill="black"/>
<path d="M42.7937 4.14893C43.1746 4.14893 43.4838 3.83977 43.4838 3.45883V0.698406C43.4838 0.317468 43.1746 0.00830078 42.7937 0.00830078H23.4707C23.0898 0.00830078 22.7806 0.317468 22.7806 0.698406V3.45883C22.7806 3.83977 23.0898 4.14893 23.4707 4.14893H24.1609V6.90936H20.0202V4.14893H20.7103C21.0913 4.14893 21.4004 3.83977 21.4004 3.45883V0.698406C21.4004 0.317468 21.0913 0.00830078 20.7103 0.00830078H1.38737C1.00643 0.00830078 0.697266 0.317468 0.697266 0.698406V3.45883C0.697266 3.83977 1.00643 4.14893 1.38737 4.14893H2.07748V38.6542H1.38737C1.00643 38.6542 0.697266 38.9627 0.697266 39.3443V42.1047C0.697266 42.4864 1.00643 42.7948 1.38737 42.7948H42.7937C43.1746 42.7948 43.4838 42.4864 43.4838 42.1047V39.3443C43.4838 38.9627 43.1746 38.6542 42.7937 38.6542H42.1036V4.14893H42.7937ZM24.1609 1.38851H42.1036V2.76872H24.1609V1.38851ZM20.0202 38.6542V31.7532H24.1609V38.6542H20.0202ZM20.0202 11.05H24.1609V13.8104H20.0202V11.05ZM20.0202 15.1906H24.1609V16.5708H20.0202V15.1906ZM20.0202 17.951H24.1609V20.7115H20.0202V17.951ZM20.0202 22.0917H24.1609V23.4719H20.0202V22.0917ZM20.0202 24.8521H24.1609V27.6125H20.0202V24.8521ZM20.0202 28.9927H24.1609V30.3729H20.0202V28.9927ZM24.1609 8.28957V9.66978H20.0202V8.28957H24.1609ZM2.07748 1.38851H20.0202V2.76872H2.07748V1.38851ZM3.45769 4.14893H18.64V38.6542H14.4994V36.5839C14.4994 34.6813 12.9515 33.1334 11.0488 33.1334C9.14623 33.1334 7.59832 34.6813 7.59832 36.5839V38.6542H3.45769V4.14893ZM13.1192 38.6542H8.97853V36.5839C8.97853 35.4425 9.90741 34.5136 11.0488 34.5136C12.1903 34.5136 13.1192 35.4425 13.1192 36.5839V38.6542ZM42.1036 41.4146H2.07748V40.0344H42.1036V41.4146ZM35.2025 38.6542H31.0619V36.5839C31.0619 35.4425 31.9908 34.5136 33.1322 34.5136C34.2737 34.5136 35.2025 35.4425 35.2025 36.5839V38.6542ZM40.7234 38.6542H36.5828V36.5839C36.5828 34.6813 35.0348 33.1334 33.1322 33.1334C31.2296 33.1334 29.6817 34.6813 29.6817 36.5839V38.6542H25.5411V4.14893H40.7234V38.6542Z" fill="black"/>
</svg>
