<svg width="45" height="45" viewBox="0 0 45 45" fill="none" xmlns="http://www.w3.org/2000/svg">
<path d="M22.6873 33.9456C18.6424 33.9456 15.3501 30.6441 15.3501 26.5844C15.3501 23.6363 17.3523 22.3923 19.119 21.2936C21.2905 19.9429 23.1658 18.7761 22.7167 14.7257C22.6744 14.3337 22.8842 13.9583 23.2412 13.7908C23.5964 13.6252 24.0215 13.7025 24.2939 13.9859C30.9594 20.9164 30.0503 26.5127 30.0079 26.7482C30.0245 30.6441 26.7322 33.9456 22.6873 33.9456ZM24.5478 17.0573C24.1172 20.3514 21.9217 21.7169 20.0907 22.856C18.2375 24.008 17.1904 24.7478 17.1904 26.5844C17.1904 29.6283 19.6564 32.1053 22.6873 32.1053C25.7182 32.1053 28.1842 29.6283 28.1842 26.5844C28.2026 26.4004 28.7934 22.3849 24.5478 17.0573Z" fill="black"/>
<path d="M14.4302 37.6261C14.1063 37.6261 13.7934 37.455 13.6241 37.1532C13.3775 36.7097 13.5376 36.1502 13.9812 35.9018C16.4416 34.5345 20.3099 31.1318 20.8785 27.3666C20.954 26.8642 21.4251 26.5256 21.9256 26.5937C22.428 26.671 22.774 27.1384 22.6986 27.6408C22.0729 31.7814 18.2046 35.6589 14.8737 37.5084C14.7357 37.5893 14.5829 37.6261 14.4302 37.6261Z" fill="black"/>
<path d="M35.5938 44.9871H9.82983C7.79999 44.9871 6.14926 43.3364 6.14926 41.3066V24.744H2.4687C1.4363 24.744 0.628418 23.9361 0.628418 22.9037C0.628418 22.4161 0.827168 21.9376 1.17314 21.5916L22.0677 1.08353C22.4247 0.733876 22.997 0.733876 23.3577 1.08353L30.0729 7.68094V3.58079C30.0729 3.07287 30.4851 2.66065 30.9931 2.66065H38.3542C38.8621 2.66065 39.2743 3.07287 39.2743 3.58079V16.702L44.2449 21.5843C44.5964 21.9376 44.7952 22.4161 44.7952 22.9037C44.7952 23.9361 43.9873 24.744 42.9549 24.744H39.2743V41.3066C39.2743 43.3364 37.6236 44.9871 35.5938 44.9871ZM22.7118 3.03055L2.4687 22.8982L7.0694 22.9037C7.57732 22.9037 7.98954 23.316 7.98954 23.8239V41.3066C7.98954 42.3206 8.81583 43.1468 9.82983 43.1468H35.5938C36.6078 43.1468 37.434 42.3206 37.434 41.3066V23.8239C37.434 23.316 37.8463 22.9037 38.3542 22.9037H42.9549C42.9549 22.9001 42.9512 22.8945 42.9494 22.8927L37.7101 17.7454C37.5334 17.5725 37.434 17.3351 37.434 17.0885V4.50093H31.9132V9.87455C31.9132 10.2463 31.6905 10.5794 31.3482 10.7229C31.0096 10.8683 30.614 10.791 30.3471 10.5315L22.7118 3.03055Z" fill="black"/>
</svg>
