<svg width="49" height="40" viewBox="0 0 49 40" fill="none" xmlns="http://www.w3.org/2000/svg">
<path d="M48.0281 22.5268C48.0281 16.3986 43.0425 11.413 36.9143 11.413C34.7418 11.413 32.6163 12.0566 30.8136 13.2398C30.3455 11.1899 29.7233 9.21511 28.9718 7.44801C26.9526 2.70029 24.3083 0.0854492 21.526 0.0854492C18.7406 0.0854492 16.0963 2.68949 14.0805 7.41788C13.3704 9.08356 12.7755 10.938 12.3171 12.869L9.52715 2.63895C9.42563 2.26706 9.08784 2.00899 8.70238 2.00899C8.31693 2.00899 7.97902 2.26706 7.87761 2.63906L0.18345 30.851C0.113348 31.108 0.1671 31.383 0.328784 31.5947C0.490575 31.8065 0.741811 31.9307 1.00822 31.9307H7.84748V38.77C7.84748 39.2421 8.23026 39.6249 8.70238 39.6249C9.1745 39.6249 9.55729 39.2421 9.55729 38.77V31.9307H16.3965C16.663 31.9307 16.9142 31.8066 17.0759 31.5946C17.2075 31.4223 17.2662 31.208 17.2462 30.9956C18.3039 31.4823 19.4579 31.7944 20.6711 31.8948V38.77C20.6711 39.2421 21.0539 39.6249 21.526 39.6249C21.9981 39.6249 22.3809 39.2421 22.3809 38.77V31.8949C24.6002 31.7112 26.6217 30.8191 28.2178 29.4456C30.1428 31.8635 32.9822 33.3696 36.0594 33.6064V38.77C36.0594 39.2421 36.4422 39.6249 36.9143 39.6249C37.3864 39.6249 37.7692 39.2421 37.7692 38.77V33.6079C43.4994 33.17 48.0281 28.3673 48.0281 22.5268ZM15.2773 30.2209H9.55729V28.8652L11.0702 27.3524C11.404 27.0184 11.404 26.4773 11.0702 26.1433C10.7362 25.8096 10.195 25.8096 9.8611 26.1433L9.55729 26.447V20.8169C9.55729 20.3448 9.1745 19.962 8.70238 19.962C8.23026 19.962 7.84748 20.3448 7.84748 20.8169V24.7373L6.74219 23.632C6.40824 23.2983 5.86708 23.2983 5.53314 23.632C5.19929 23.966 5.19929 24.5071 5.53314 24.8411L7.84748 27.1554V28.5105C7.84748 28.5108 7.84748 28.5112 7.84748 28.5115V30.2209H2.12751L8.70238 6.11297L11.5989 16.7334C11.3735 18.3943 11.2537 20.0579 11.2537 21.6584C11.2537 24.9079 12.7708 27.8093 15.1333 29.693L15.2773 30.2209ZM22.3809 28.8652L25.5501 25.696C25.884 25.3621 25.884 24.8209 25.5501 24.4869C25.2162 24.1532 24.675 24.1532 24.3411 24.4869L22.3809 26.447V22.8809L24.6952 20.5666C25.0291 20.2326 25.0291 19.6915 24.6952 19.3575C24.3613 19.0238 23.8201 19.0238 23.4862 19.3575L22.3809 20.4627V18.2522C22.3809 17.7801 21.9981 17.3973 21.526 17.3973C21.0539 17.3973 20.6711 17.7801 20.6711 18.2522V22.5262C20.6711 22.5265 20.6711 22.527 20.6711 22.5273V24.7372L18.7109 22.777C18.3769 22.4433 17.8358 22.4433 17.5018 22.777C17.168 23.111 17.168 23.6521 17.5018 23.9861L20.6711 27.1554V28.5105C20.6711 28.5108 20.6711 28.5112 20.6711 28.5115V30.178C16.3497 29.7475 12.9636 26.0911 12.9636 21.6584C12.9636 17.112 13.969 12.039 15.6533 8.08844C17.3584 4.08908 19.4989 1.79526 21.526 1.79526C23.5493 1.79526 25.6897 4.09956 27.3983 8.11719C29.0828 12.078 30.0884 17.1402 30.0884 21.6585C30.0884 26.0913 26.7022 29.7477 22.3809 30.1781V28.8652ZM37.7692 31.8915V30.5752L40.9385 27.4059C41.2723 27.072 41.2723 26.5308 40.9385 26.1969C40.6045 25.8631 40.0634 25.8631 39.7294 26.1969L37.7692 28.1568V22.5268C37.7692 22.0546 37.3864 21.6718 36.9143 21.6718C36.4422 21.6718 36.0594 22.0546 36.0594 22.5268V26.4471L34.0992 24.4869C33.7653 24.1532 33.2241 24.1532 32.8901 24.4869C32.5563 24.8209 32.5563 25.3621 32.8901 25.696L36.0594 28.8652V30.2203C36.0594 30.2206 36.0594 30.221 36.0594 30.2213V31.8916C33.4372 31.6529 31.03 30.3232 29.4268 28.2157C30.9069 26.4355 31.7982 24.1491 31.7982 21.6584C31.7982 19.5262 31.5834 17.2776 31.1866 15.0696C32.8222 13.8129 34.8431 13.1228 36.9143 13.1228C42.0996 13.1228 46.3183 17.3414 46.3183 22.5268C46.3183 27.4239 42.5554 31.4581 37.7692 31.8915Z" fill="black"/>
</svg>
