<svg width="37" height="37" fill="none" xmlns="http://www.w3.org/2000/svg"><path fill-rule="evenodd" clip-rule="evenodd" d="M24.275 4.929h5.084A2.639 2.639 0 0132 7.568v9.38a2.639 2.639 0 01-2.64 2.639H7.053a2.639 2.639 0 01-2.64-2.639v-9.38a2.639 2.639 0 012.64-2.64H21.7a.552.552 0 110 1.104H7.053c-.848 0-1.536.688-1.536 1.536V8.9h25.378V7.568c0-.848-.688-1.536-1.536-1.536h-5.084a.552.552 0 110-1.103zm5.084 13.555c.847 0 1.536-.69 1.536-1.536v-6.944H5.517v6.944c0 .847.69 1.535 1.536 1.535h22.306zM4.708 23.428a2.688 2.688 0 012.685-2.684 2.688 2.688 0 012.685 2.684 2.688 2.688 0 01-2.685 2.685 2.688 2.688 0 01-2.685-2.684zm1.103 0c0 .873.71 1.582 1.582 1.582.872 0 1.581-.71 1.581-1.582 0-.872-.71-1.581-1.581-1.581-.872 0-1.582.71-1.582 1.581zm23.209-2.684a2.688 2.688 0 00-2.686 2.684 2.688 2.688 0 002.685 2.685 2.688 2.688 0 002.685-2.684 2.688 2.688 0 00-2.685-2.685zm0 4.266c-.873 0-1.582-.71-1.582-1.582 0-.872.71-1.581 1.581-1.581.872 0 1.582.71 1.582 1.581 0 .873-.71 1.582-1.582 1.582z" fill="#467637"/><path fill-rule="evenodd" clip-rule="evenodd" d="M33.984 7.577h.518c1.053 0 1.91.856 1.91 1.91v5.669c0 1.053-.857 1.91-1.91 1.91h-.518v10.15h.121a1.5 1.5 0 011.498 1.498v3.257a1.5 1.5 0 01-1.498 1.498h-.599v1.912A1.62 1.62 0 0131.887 37h-4.044a1.62 1.62 0 01-1.62-1.619v-1.912h-1.287a2.1 2.1 0 01-2.022 1.545h-9.416a2.1 2.1 0 01-2.022-1.545h-.92v1.912A1.62 1.62 0 018.936 37H4.893a1.62 1.62 0 01-1.619-1.619v-1.912h-.599a1.5 1.5 0 01-1.497-1.498v-3.257c0-.741.542-1.357 1.25-1.475V17.065H1.91A1.912 1.912 0 010 15.155V9.487c0-1.053.857-1.91 1.91-1.91h.518V5.24c0-2.89 2.35-5.24 5.24-5.24h21.076c2.89 0 5.24 2.35 5.24 5.24v2.337zM1.91 15.962h.518V8.68H1.91a.807.807 0 00-.807.806v5.67c0 .444.362.806.807.806zm2.982 19.935h4.045a.516.516 0 00.515-.516V33.47H4.377v1.912c0 .284.231.516.515.516zm8.606-1.986h9.416a.993.993 0 00.825-.442H12.673a.993.993 0 00.825.441zm18.39 1.986a.516.516 0 00.515-.516V33.47h-5.076v1.912c0 .284.231.516.516.516h4.044zm2.611-7.183a.394.394 0 00-.394-.394H11.108a.552.552 0 110-1.103h.514v-4.051a2.79 2.79 0 012.79-2.79H22a2.79 2.79 0 012.79 2.79v4.05h8.092V5.24a4.137 4.137 0 00-4.137-4.137H7.668A4.137 4.137 0 003.53 5.24v21.977h5.002a.552.552 0 010 1.103H2.675a.394.394 0 00-.395.394v3.258c0 .217.177.394.395.394h31.43a.394.394 0 00.394-.394v-3.258zm-10.813-1.497v-4.051a1.69 1.69 0 00-1.687-1.687h-7.586a1.69 1.69 0 00-1.687 1.687v4.05h10.96zm10.816-11.255a.807.807 0 00.806-.806v-5.67a.807.807 0 00-.806-.806h-.518v7.282h.518z" fill="#467637"/></svg>