<svg width="47" height="49" fill="none" xmlns="http://www.w3.org/2000/svg"><path d="M32.255 39.584h-3.36l.5-.76h1.325a.387.387 0 100-.759h-1.518a.372.372 0 00-.324.162l-.823 1.244v-1.034a.388.388 0 00-.243-.356.388.388 0 00-.42.113c-.274.323-1.615 1.503-2.245 1.373 0 0-.226 0-.372-.306.663-.921 1.212-1.826 1.099-2.31a.565.565 0 00-.34-.404 1.034 1.034 0 00-1.146.258 2.39 2.39 0 00-.485 2.326l-.371.453h-1.955a.387.387 0 100 .759h1.34l-.112.129a.389.389 0 10.581.5l.533-.63h3.376v.388a.389.389 0 00.275.372h.113a.387.387 0 00.323-.162l.372-.662h3.877a.387.387 0 000-.76v.066zM24.92 37.37a.388.388 0 01.194-.113 4.38 4.38 0 01-.533.954 1.34 1.34 0 01.339-.857v.017zm2.051 2.23l.323-.243v.243h-.323zm19.402-26.331a3.231 3.231 0 00-1.616-3.23.355.355 0 00-.226-.227h-1.615a.356.356 0 00-.307.21 3.23 3.23 0 00-1.615 3.23l.759 19.078v6.058a.388.388 0 00.388.388h.387v.323l-.743 2.229a.386.386 0 000 .339l1.535 2.294c.068.02.141.02.21 0a.37.37 0 00.194 0h.08l1.535-2.294a.372.372 0 000-.34l-.743-2.228v-.323h.388a.388.388 0 00.387-.388v-6.074l1.002-19.045zm-2.666-2.698c1.26 0 1.907.889 1.907 2.666l-.76 18.706h-2.31l-.743-18.69c0-1.777.63-2.682 1.906-2.682zm.76 27.462H42.56v-3.797h2.294v3.813l-.387-.017zm.387-5.347v.759H42.56v-.76h2.294zm-.743 6.606l.711 2.117-1.098 1.615-1.099-1.615.71-2.117a.39.39 0 000-.129v-.387h.76v.387a.39.39 0 000 .146l.016-.017z" fill="#467637"/><path d="M43.708 23.559a.388.388 0 00.387-.388V11.718a.388.388 0 00-.76 0v11.453a.388.388 0 00.373.388zM37.1 4.578L32.53.007a.388.388 0 00-.145 0H4.018a.388.388 0 00-.388.388v44.907a.388.388 0 00.388.387h32.808a.388.388 0 00.388-.387V4.805a.356.356 0 00-.114-.227zM32.093.653l4.361 4.362v39.899H4.405V.653h27.688z" fill="#467637"/><path d="M31.495 6h3.812a.388.388 0 000-.76h-3.44V1.8a.387.387 0 00-.76 0v3.812a.388.388 0 00.388.388zM8.59 20.505h23.665a.388.388 0 000-.759H8.589a.387.387 0 000 .76zm0 3.054h23.665a.388.388 0 000-.76H8.589a.387.387 0 000 .76zm0 3.053h23.665a.388.388 0 000-.76H8.589a.388.388 0 000 .76zm0 3.053h23.665a.388.388 0 000-.76H8.589a.388.388 0 000 .76zm12.212 2.278H8.589a.387.387 0 000 .76h12.213a.388.388 0 000-.76zm-8.013-16.784a4.571 4.571 0 10-4.571-4.588 4.588 4.588 0 004.571 4.588zm0-8.4a3.812 3.812 0 11-3.796 3.812 3.829 3.829 0 013.796-3.812z" fill="#467637"/><path d="M11.384 13.511a.387.387 0 00.55 0l2.39-2.39.872.872a.388.388 0 00.533 0 .388.388 0 000-.533l-1.147-1.147a.388.388 0 00-.533 0l-2.665 2.665a.387.387 0 000 .533zm-.985-1.519l.5-.5.501.5a.388.388 0 00.533 0 .388.388 0 000-.533l-.76-.759h-.128a.34.34 0 00-.34 0h-.097l-.759.76a.387.387 0 000 .532.372.372 0 00.275.114.37.37 0 00.274-.114zm1.244-2.18a1.147 1.147 0 100-2.293 1.147 1.147 0 000 2.293zm0-1.534a.388.388 0 11-.388.387.388.388 0 01.387-.371v-.016zm22.469 39.366H1.675V2.995a.388.388 0 10-.759 0v45.02a.388.388 0 00.388.34h32.808a.388.388 0 000-.76v.049z" fill="#467637"/></svg>