<svg width="21" height="21" fill="none" xmlns="http://www.w3.org/2000/svg"><path fill-rule="evenodd" clip-rule="evenodd" d="M.928 10.45C.912 5.162 5.08.763 10.362.512c5.806-.277 10.58 4.44 10.4 10.224-.169 5.397-4.67 9.684-10.069 9.601a9.872 9.872 0 01-4.262-1.034l-5.01 1.186a.386.386 0 01-.466-.453l1.053-5.112a9.875 9.875 0 01-1.08-4.474zm9.92 7.736a7.715 7.715 0 005.491-2.275 7.78 7.78 0 002.275-5.492 7.716 7.716 0 00-2.275-5.492 7.716 7.716 0 00-5.491-2.275 7.78 7.78 0 00-5.493 2.275 7.716 7.716 0 00-2.274 5.492 7.68 7.68 0 00.844 3.526l.343.673-.646 3.138 3.071-.728.698.348a7.684 7.684 0 003.456.81zm2.892-6.167l1.921.551c.46.133.663.67.406 1.074-.376.593-.972 1.317-1.718 1.498-1.315.318-3.335.007-5.857-2.347-2.183-2.037-2.76-3.734-2.624-5.08.078-.764.714-1.453 1.25-1.907a.717.717 0 011.119.256l.808 1.829c.107.24.073.52-.088.727l-.41.53a.7.7 0 00-.056.777c.489.85 2.4 2.55 3.31 2.918a.7.7 0 00.76-.161l.47-.479a.716.716 0 01.709-.186z" fill="#7AD06D"/></svg>