<svg width="31" height="29" fill="none" xmlns="http://www.w3.org/2000/svg"><path fill-rule="evenodd" clip-rule="evenodd" d="M.21 16.416c.361-.329.789-.625 1.25-.79.657-.23 1.348-.328 2.039-.427.427-.033.855 0 1.25.099.493.132.559.592.131.888-.263.198-.592.296-.888.395-.954.296-1.94.56-2.927.822l-.527.132c-.131-.099-.46-.197-.526-.395-.033-.23.033-.592.197-.724zM3.4 4.87c.066-.164.296-.263.494-.428.657.264 1.282.46 1.809.79.592.329 1.118.757 1.644 1.184.296.23.395.527.132.856-.263.329-.526.197-.855.033C5.8 6.876 4.979 6.48 4.157 6.02a2.49 2.49 0 01-.724-.592c-.099-.098-.099-.362-.033-.559zM6.953 0c-.658 0-.921.329-.79.855.033.066.033.198.066.264.724 1.118 1.447 2.27 2.204 3.355.099.132.526.198.724.099.296-.099.394-.428.296-.724C8.993 2.5 8.367 1.217 7.282.197 7.216.1 7.018.033 6.952 0zM5.867 19.41c-.723.79-1.48 1.58-2.5 1.974-.427.165-.79-.131-.79-.69.067-.1.132-.33.264-.428a41.936 41.936 0 012.368-1.547c.132-.065.46.033.592.165.1.099.132.46.066.526zm10.427 8.093c-.23-.92-.46-1.842-.625-2.763-.032-.165.198-.428.362-.527.132-.065.46.033.527.132.46.954.954 1.941.954 3.027 0 .46-.395.724-.922.493-.065-.066-.263-.197-.296-.362zm-4.605.198a9.38 9.38 0 01.46-1.645c.231-.658.494-1.316.823-1.941.066-.165.362-.362.527-.33.197.034.328.297.427.395-.164 1.382-.329 2.6-.92 3.718-.067.132-.165.33-.297.362-.263.066-.56.164-.79.066-.164-.033-.263-.428-.23-.625zm-.164-19.114c-.23.394-.46.79-.921.888-.592.131-1.217.197-1.842.329-.987.23-1.974.428-2.895.724-.658.197-.723.658-.296 1.184.494.56.987 1.119 1.513 1.612.691.658 1.415 1.217 2.105 1.875.165.132.296.428.264.592-.066.658-.23 1.283-.33 1.941-.164 1.02-.328 2.04-.46 2.797-.033 1.217.263 1.48 1.086 1.151a101.879 101.879 0 004.309-1.974c.394-.197.69-.23 1.052-.033.263.132.494.264.757.395l4.342 2.073a.668.668 0 00.954-.691 126.51 126.51 0 00-.79-4.902c-.066-.329-.033-.526.165-.79a62.474 62.474 0 001.842-2.302 32.92 32.92 0 001.48-2.237c.263-.428.164-.757-.197-.856-1.448-.395-2.862-.855-4.342-1.118-.724-.132-1.25-.297-1.58-.987a.688.688 0 00-.13-.198c-.889-1.217-1.744-2.434-2.665-3.619-.362-.493-.757-.427-1.086.099a179.475 179.475 0 00-2.335 4.047zm8.19-3.718c.362-.987.658-2.007 1.053-2.994.131-.329.493-.625.79-.855.098-.099.361-.099.493-.033.164.099.263.329.395.493-.198.428-.362.823-.527 1.185-.395.888-.756 1.776-1.151 2.632-.132.296-.329.625-.69.46-.395-.164-.494-.46-.363-.888zm3.125 1.349c.198-.33.46-.658.757-.921a7.8 7.8 0 011.283-1.053c.197-.132.559-.165.756-.033.296.165.263.494.033.724-.592.658-1.217 1.283-1.809 1.908-.099.099-.296.132-.428.197-.526 0-.822-.427-.592-.822zm4.638 15.396c-.23.264-.493.395-.822.165-.526-.329-1.053-.625-1.579-.987a1.358 1.358 0 01-.493-.56c-.1-.164-.1-.46-.033-.624.066-.165.329-.264.493-.362.23.098.428.131.592.263.592.428 1.184.855 1.744 1.316.263.197.361.493.098.79zm2.467-4.21c-.164.361-.493.394-.855.263-1.217-.428-2.467-.823-3.684-1.218-.263-.098-.56-.263-.428-.592.099-.23.395-.395.494-.493 1.546.23 2.861.559 4.079 1.184.361.197.559.46.394.855z" fill="#fff"/></svg>